<?xml version="1.0" encoding="utf-8"?>
<!-- Generator: Adobe Illustrator 18.0.0, SVG Export Plug-In . SVG Version: 6.00 Build 0)  -->
<!DOCTYPE svg PUBLIC "-//W3C//DTD SVG 1.1//EN" "http://www.w3.org/Graphics/SVG/1.1/DTD/svg11.dtd">
<svg version="1.1" id="Layer_1" xmlns="http://www.w3.org/2000/svg" xmlns:xlink="http://www.w3.org/1999/xlink" x="0px" y="0px"
	 viewBox="0 0 1920 1080" enable-background="new 0 0 1920 1080" xml:space="preserve">
<g>
	<defs>
		<rect id="SVGID_1_" width="1920" height="1080"/>
	</defs>
	<clipPath id="SVGID_2_">
		<use xlink:href="#SVGID_1_"  overflow="visible"/>
	</clipPath>
	<g clip-path="url(#SVGID_2_)">
		<defs>
			<rect id="SVGID_3_" width="1920" height="1080"/>
		</defs>
		<clipPath id="SVGID_4_">
			<use xlink:href="#SVGID_3_"  overflow="visible"/>
		</clipPath>
		<path clip-path="url(#SVGID_4_)" fill="#E1F4FD" d="M1595.3,997.6c0,0,197.6,38.3,260.6-106.6c81.6-187.9-86.1-330.4-214.7-303.9
			c-280.3,57.8-276.8-796.6-656.6-310.6c-100.5,128.6-235.9-102-399.9,182.6c-38.3,66.5-272.5-62-389.1-9.4
			c-228.1,103-123.8,549.7,39.2,551.4C397.8,1002.9,1595.3,997.6,1595.3,997.6"/>
		<rect x="1300" y="388.9" clip-path="url(#SVGID_4_)" fill="#9DC7EA" width="253.5" height="611.9"/>
		<rect x="1299.8" y="388.9" clip-path="url(#SVGID_4_)" fill="#599AD3" width="45.2" height="611.9"/>
		<rect x="1356" y="388.9" clip-path="url(#SVGID_4_)" fill="#6B97CF" width="253.5" height="611.9"/>
		<rect x="1554.1" y="388.9" clip-path="url(#SVGID_4_)" fill="#9DC7EA" width="47" height="611.9"/>
		<path clip-path="url(#SVGID_4_)" fill="#F48288" d="M1024.8,994.4c-0.4,5.2-7.7,5.2-16.1,4.2c-8.3-1-33.4-2.6-33.9-4.3
			c-0.5-1.5,5.1-2.7,11.1-4.1c0.8-0.2,1.5-0.4,2.3-0.5c6.8-1.7,12.6-5.3,17.1-11.1c5-6.5,9.7-35.9,9.7-35.9l18.2,3.4
			c0,0-10.6,25.3-11.7,33.5c-0.5,3.7,2.2,6.2,2.8,9.4C1024.6,990.8,1024.9,992.6,1024.8,994.4"/>
		<path clip-path="url(#SVGID_4_)" fill="#414042" d="M1024.8,994.4c-0.4,5.2-7.7,5.2-16,4.2c-5.7-0.7-6.5,0.1-10.1,0.7H984
			c-6.4-1.1-8.8-3.7-9.2-5c-0.5-1.5,5.1-2.7,11.1-4.1l0.1,0.1c0,0,7.5,4.1,17.1,3.2c7.8-0.7,15.8-3.9,21.2-4.5
			C1024.6,990.8,1024.9,992.6,1024.8,994.4"/>
		<path clip-path="url(#SVGID_4_)" fill="#254790" d="M1008.5,963.9c0,0,4.8,3.2,9.2,4c6.7,1.2,9.8-0.1,9.8-0.1
			s32.3-81.1,30.5-108.6c0-0.7-0.1-1.4-0.1-2.1c-0.1-4.8,0.6-11.1,1.8-18.4c0.4-2.7,0.9-5.5,1.5-8.4c1.3-6.8,2.9-14.1,4.7-21.5
			c0.8-3.3,1.6-6.6,2.4-9.9c8.1-32.4,18.1-64.4,18.1-64.4s-58.3-19.1-61.6-1.2c-1.3,6.8-5.5,34.2-3.6,76c1.5,33.7,0.5,59.9-2.4,90.4
			C1016.3,926.3,1011.9,949.3,1008.5,963.9"/>
		<path clip-path="url(#SVGID_4_)" fill="#1F3966" d="M1058,857c-0.1-4.8,0.6-11.1,1.8-18.4c0.4-2.7,0.9-5.5,1.5-8.4
			c1.3-6.8,2.9-14.1,4.7-21.5c0.8-3.3,1.6-6.6,2.4-9.9c-1.2-9.9-2.1-16.7-2.1-16.7S1042.1,815.1,1058,857"/>
		<path clip-path="url(#SVGID_4_)" fill="#F48288" d="M1098.4,994.4c-0.4,5.2-7.7,5.2-16.1,4.2c-8.3-1-33.4-2.6-33.9-4.3
			c-0.5-1.5,5.1-2.7,11.1-4.1c0.8-0.2,1.5-0.4,2.3-0.5c6.8-1.7,11.3-6.7,17.1-11.1c5.5-4.1,1.7-24.3,1.7-24.3l17.1-6.1
			c0,0-2.6,20.2-2.6,31.4c0,3.7,2.2,6.2,2.8,9.4C1098.2,990.8,1098.5,992.6,1098.4,994.4"/>
		<path clip-path="url(#SVGID_4_)" fill="#414042" d="M1098.4,994.4c-0.4,5.2-7.7,5.2-16,4.2c-5.7-0.7-6.5,0.1-10.1,0.7h-14.6
			c-6.4-1.1-8.8-3.7-9.2-5c-0.5-1.5,5.1-2.7,11.1-4.1l0.1,0.1c0,0,7.5,4.1,17.1,3.2c7.8-0.7,15.8-3.9,21.2-4.5
			C1098.2,990.8,1098.5,992.6,1098.4,994.4"/>
		<path clip-path="url(#SVGID_4_)" fill="#254790" d="M1051.3,728.1c0,0,19,94.6,22.2,146s7.2,94.1,7.2,94.1s4.1,1.5,8.9,1.2
			c5-0.3,9-1.8,9-1.8s18.8-77.4,12.6-108.4c-6.2-31-1-59.6,1.9-85.3c4.3-36.9-12.2-54-23.7-65.7
			C1077.7,696.4,1051.3,728.1,1051.3,728.1"/>
		<path clip-path="url(#SVGID_4_)" fill="#492E1F" d="M1037.8,554.9c-1.9-15.4,2.9-40,33.7-36.1c30.7,3.9,40.4,34.1,34.2,47.6
			c-6.2,13.4,8.9,16.7,13.7,31.1c4.1,12.4,5.5,27.8,12.1,34.7c21.3,22.3-20.4,56.6-45.6,49.3c-45.8-13.2-51.7-15.1-50.1-51.1
			c0.8-18.4,15.2-25.6,6.1-30.9C1019.9,586.6,1042.1,589.7,1037.8,554.9"/>
		<path clip-path="url(#SVGID_4_)" fill="#FEF8BA" d="M1047.1,604.3l9.1,13.6l18.3-0.9l8.5-21.9c0,0-2.6-0.5-3.8-27.8l-22.9,7
			c0,0,1.2,7.1-0.4,14.8C1054.8,594.7,1052.3,600.4,1047.1,604.3"/>
		<path clip-path="url(#SVGID_4_)" fill="#FEF8BA" d="M1044.6,594.7c1.2,0,22.7-7.2,53.5,5.3c0,0-14.6,83.5-8.3,99.5
			c6.3,15.9,8.7,30.1,8.7,30.1l-68,0.8c0,0,1-54.7-2.2-74.1C1025,637,1044.6,594.7,1044.6,594.7"/>
		<path clip-path="url(#SVGID_4_)" fill="#B5D79A" d="M1098,693c-0.4-1.6-0.7-3-0.8-4.2c-0.9-10.1,0.6-18.3,3.2-26.4c0,0,0,0,0,0
			c0-0.1,0.1-0.3,0.1-0.4c0.1-0.2,0.2-0.5,0.3-1c0,0,0,0,0,0c0.1-0.4,0.2-0.8,0.3-1.4c0-0.2,0.1-0.4,0.1-0.6
			c1.8-7.8,5.6-27.5,6.6-30.2c0.3-0.9,0.7-2.4,1-4.3c1-5.9,1.5-15.4-2-19.3c-4.8-5.5-21.3-9.4-21.3-9.4c-3.4,5.3-14.7,18.1-29,15.8
			c-8.3-1.4-9.5-17.4-9.5-17.4c-8.9,1.2-11.1,2.6-11.1,2.6s-21.3,13.3-51.3,55.5c-1,1.3-3.2,1.2-8.8,0.1c-7.1-1.4-21.5-1.2-43.2-4.4
			c0,0-0.7,0.5-1,2.9c-0.4,5.2-1,6.8-1,6.8s14.3,6.8,29.5,11.6c5.4,1.7,11,3.3,16.4,4.5c5,1.1,9.8,1.9,13.9,2.1
			c0,0,17.4-6.7,34.2-25.2c1,15.6,3.2,35.6,1.8,50.3c-0.8,8.4-6.5,36.5-5,41.1c3,9.7,25.9,10.2,46.4,9.2c0.4,0,0.9,0,1.3-0.1
			c3.2-0.2,6.3-0.5,9.2-0.8c5.5-0.6,10.3-1.4,13.3-2.1c4-0.9,9-2.2,13.1-4.2c3.1-1.5,5.7-3.4,6.8-5.8
			C1109.8,727.8,1100.3,704.7,1098,693"/>
	</g>
	<g clip-path="url(#SVGID_2_)">
		<text transform="matrix(1 0 0 1 1037.6748 661.625)" fill="#2E358D" font-family="'Comfortaa-Bold'" font-size="6.6281">a</text>
	</g>
	<g clip-path="url(#SVGID_2_)">
		<text transform="matrix(1 0 0 1 1042.1484 661.625)" fill="#2E358D" font-family="'Comfortaa-Bold'" font-size="6.6281">r</text>
	</g>
	<g clip-path="url(#SVGID_2_)">
		<text transform="matrix(1 0 0 1 1045.1045 661.625)" fill="#2E358D" font-family="'Comfortaa-Bold'" font-size="6.6281">celsheba</text>
	</g>
	<g clip-path="url(#SVGID_2_)">
		<defs>
			<polygon id="SVGID_5_" points="1030.8,656.5 1035.7,656.5 1035.7,645.3 1030.8,640.4 			"/>
		</defs>
		<clipPath id="SVGID_6_">
			<use xlink:href="#SVGID_5_"  overflow="visible"/>
		</clipPath>
		
			<radialGradient id="SVGID_7_" cx="0" cy="1080" r="1" gradientTransform="matrix(12.7289 0 0 -12.7289 1033.3646 14399.1943)" gradientUnits="userSpaceOnUse">
			<stop  offset="0" style="stop-color:#00A9E5"/>
			<stop  offset="1" style="stop-color:#2E358D"/>
		</radialGradient>
		<rect x="1030.8" y="640.4" clip-path="url(#SVGID_6_)" fill="url(#SVGID_7_)" width="4.9" height="16"/>
	</g>
	<g clip-path="url(#SVGID_2_)">
		<defs>
			<path id="SVGID_8_" d="M1030.9,640.4l4.9,4.9h6.3c0,0,1.8,0.5,1.8,2.4c0,1.8-1.8,2.4-1.8,2.4h-5.4c0,0-5.3,0-5.8,5.5l0,3.4l5,5
				v-7.2c0,0,0.2-1.7,2.1-1.7c1.9,0,5.3,0,5.3,0s5.9,0,5.8-7.1c0-7.1-7.4-7.6-7.4-7.6H1030.9z"/>
		</defs>
		<clipPath id="SVGID_9_">
			<use xlink:href="#SVGID_8_"  overflow="visible"/>
		</clipPath>
		
			<linearGradient id="SVGID_10_" gradientUnits="userSpaceOnUse" x1="0" y1="1079.8147" x2="1" y2="1079.8147" gradientTransform="matrix(17.5354 -14.7139 -14.7139 -17.5354 16919.5352 19594.4961)">
			<stop  offset="0" style="stop-color:#3F75B7"/>
			<stop  offset="0.6089" style="stop-color:#3F75B7"/>
			<stop  offset="1" style="stop-color:#2E358D"/>
		</linearGradient>
		<polygon clip-path="url(#SVGID_9_)" fill="url(#SVGID_10_)" points="1019.2,650.2 1041.5,631.4 1060.7,654.3 1038.3,673 		"/>
	</g>
	<g clip-path="url(#SVGID_2_)">
		<defs>
			<path id="SVGID_11_" d="M1048.9,649.4c0,0,0-0.1,0-0.2C1048.9,649.3,1048.9,649.4,1048.9,649.4 M1030.9,640.4l4.9,4.9h6.3
				c6.7,0,6.9,3.1,6.9,3.9c1-8.2-7.3-8.8-7.3-8.8H1030.9z"/>
		</defs>
		<clipPath id="SVGID_12_">
			<use xlink:href="#SVGID_11_"  overflow="visible"/>
		</clipPath>
		
			<radialGradient id="SVGID_13_" cx="0" cy="1080" r="1" gradientTransform="matrix(14.1857 0 0 -14.1857 1046.3708 15965.3301)" gradientUnits="userSpaceOnUse">
			<stop  offset="0" style="stop-color:#00A9E5"/>
			<stop  offset="1" style="stop-color:#2E358D"/>
		</radialGradient>
		<rect x="1030.9" y="640.4" clip-path="url(#SVGID_12_)" fill="url(#SVGID_13_)" width="19.1" height="9"/>
	</g>
	<g clip-path="url(#SVGID_2_)">
		<defs>
			<path id="SVGID_14_" d="M1030.9,659.1l5,5v-7.2c0.3-1.7,2.1-1.7,2.1-1.7C1033.1,655.1,1030.9,659.1,1030.9,659.1"/>
		</defs>
		<clipPath id="SVGID_15_">
			<use xlink:href="#SVGID_14_"  overflow="visible"/>
		</clipPath>
		
			<linearGradient id="SVGID_16_" gradientUnits="userSpaceOnUse" x1="0" y1="1080.0818" x2="1" y2="1080.0818" gradientTransform="matrix(6.1025 -5.1206 -5.1206 -6.1025 6563.2207 7252.3208)">
			<stop  offset="0" style="stop-color:#3F75B7"/>
			<stop  offset="1" style="stop-color:#2E358D"/>
		</linearGradient>
		<polygon clip-path="url(#SVGID_15_)" fill="url(#SVGID_16_)" points="1026.4,658.8 1035,651.6 1042.3,660.4 1033.8,667.5 		"/>
	</g>
	<g clip-path="url(#SVGID_2_)">
		<defs>
			<rect id="SVGID_17_" width="1920" height="1080"/>
		</defs>
		<clipPath id="SVGID_18_">
			<use xlink:href="#SVGID_17_"  overflow="visible"/>
		</clipPath>
		<path clip-path="url(#SVGID_18_)" fill="#A5C58D" d="M1053.4,720c3.9,13.2,6.1,24,15.9,31.3c3.2-0.2,6.3-0.5,9.2-0.8
			c5.5-0.6,10.3-1.4,13.3-2.1c4-0.9,9-2.2,13.1-4.2c3.1-1.5,5.7-3.4,6.8-5.8c-2-10.6-11.5-33.7-13.7-45.4c-0.2-1.1-0.4-2.2-0.5-3.1
			c-0.8-10.5,0.5-19.1,2.8-27.5c0,0,0,0,0,0c0.1-0.4,0.3-0.9,0.4-1.3c0,0,0,0,0,0c0.1-0.3,0.2-0.8,0.3-1.4c0-0.2,0.1-0.4,0.1-0.6
			c1.6-7.4,5.7-30.7,6.7-33.8c0.3-1,0.7-2.6,1-4.6l-8.2-7.9c0,0-47,20.1-57.3,47.7C1033.1,688.2,1047.8,701.1,1053.4,720"/>
		<path clip-path="url(#SVGID_18_)" fill="#A5C58D" d="M960.2,669.3c10.4,3.3,21.7,6.2,30.3,6.6c0,0,17.6-6.8,34.5-25.6
			c0.7-3.2,1.4-8.6-2.5-7c-5.4,2.2-25.5,28-33.1,28.5C984,672.2,968.5,670.4,960.2,669.3"/>
		<path clip-path="url(#SVGID_18_)" fill="#B5D79A" d="M997.3,661.9c0,0,23.2,11.6,43.2,16.4c5.8,1.4,11.3,2.4,16.1,2.6
			c0,0,22.1-6.3,38.1-29.7c29.6-43.3,7.3-49.4,7.3-49.4s-21.3,13.3-51.3,55.5c-1,1.5-3.7,1.1-10.5-0.2c-7.3-1.5-21.8-1.3-41.9-4.2
			c0,0-0.3,0.7-0.5,3.1C997.3,661.3,997.3,661.9,997.3,661.9"/>
		<path clip-path="url(#SVGID_18_)" fill="#FEF8BA" d="M975.8,652.4c-7-1.4-21.9-1.5-43.2-4.6c-1.7-0.5-3.6-1.2-5.3-2.1
			c-4.6-2.3-16.8-3.8-19.4-1.4c-2.6,2.4,2.8,12.4,13.9,12.7c3.9,0.1,6.8,0.4,9,0.7c1.2,0.6,14.9,6.9,29.5,11.5
			c5.4,1.7,11,3.3,16.4,4.5C978.8,664.2,977.3,656.7,975.8,652.4"/>
		<path clip-path="url(#SVGID_18_)" fill="#DCD7A3" d="M1055.9,589.3c9.4-0.8,23.3-21.8,23.3-21.8l-22.9,7
			C1056.3,574.4,1057.5,581.5,1055.9,589.3"/>
		<path clip-path="url(#SVGID_18_)" fill="#FEF8BA" d="M1050.3,576c0,0,27.4,5.5,30.5-11.6c3.2-17.1,8.8-27.9-8.5-32.1
			c-17.3-4.2-22,1.7-24.4,7.1C1045.5,544.8,1043.3,574.1,1050.3,576"/>
		<path clip-path="url(#SVGID_18_)" fill="#492E1F" d="M1063.7,528c0,0-0.5,5.8,8.5,15.6c9,9.8,6.9,27.4,6.9,27.4
			s15.2-28.5,7.1-37.6S1063.7,528,1063.7,528"/>
		<path clip-path="url(#SVGID_18_)" fill="#492E1F" d="M1074.7,520.4c0,0-13.6-4.6-27.1,8.8c-5.8,5.7-4.9,17-1.8,23.5
			c0,0,4.8-14,13.5-17.1C1068,532.6,1074.7,520.4,1074.7,520.4"/>
		<polygon clip-path="url(#SVGID_18_)" fill="#9DC7EA" points="966.9,613.5 908.6,614.8 922,695.8 981,697.7 		"/>
		<path clip-path="url(#SVGID_18_)" fill="#FEF8BA" d="M1040.6,678.4c-4.4-8.7-2.7-16.3-0.4-21.3c-7.3-1.5-21.9-2.1-42-5.1
			c0,0,0,0,0,0c-2.2-0.6-5.4-1.6-8.2-3c-4.9-2.4-17.9-4.1-20.7-1.5c-2.8,2.6,2.9,13.2,14.8,13.5c6.6,0.2,10.6,0.9,12.8,1.4
			C998.9,663.5,1021.4,673.8,1040.6,678.4"/>
		<rect x="587.3" y="711.3" clip-path="url(#SVGID_18_)" fill="#3B74BA" width="139.7" height="139.7"/>
		<rect x="630.4" y="711.3" clip-path="url(#SVGID_18_)" fill="#599AD3" width="139.7" height="139.7"/>
		<g opacity="0.2" clip-path="url(#SVGID_18_)">
			<g>
				<defs>
					<rect id="SVGID_19_" x="706.4" y="851" width="150" height="150"/>
				</defs>
				<clipPath id="SVGID_20_">
					<use xlink:href="#SVGID_19_"  overflow="visible"/>
				</clipPath>
				<rect x="706.4" y="851" clip-path="url(#SVGID_20_)" fill="#D5E9F8" width="150" height="150"/>
			</g>
		</g>
		<rect x="752.6" y="851" clip-path="url(#SVGID_18_)" fill="#4357A6" width="150" height="150"/>
		<polygon clip-path="url(#SVGID_18_)" fill="#10122C" points="752.6,851 706.4,879 706.4,851 		"/>
		<rect x="441.2" y="866.6" clip-path="url(#SVGID_18_)" fill="#599AD3" width="95.3" height="95.3"/>
		<rect x="470.6" y="866.6" clip-path="url(#SVGID_18_)" fill="#4357A6" width="95.3" height="95.3"/>
		<polygon clip-path="url(#SVGID_18_)" fill="#10122C" points="470.6,866.6 441.2,884.4 441.2,866.6 		"/>
		<polygon clip-path="url(#SVGID_18_)" fill="#599AD3" points="489,922.3 452,922.3 453.6,918 452,913.3 488.6,913.3 486.4,918.1 		
			"/>
		<polygon clip-path="url(#SVGID_18_)" fill="#10122C" points="470.5,913.3 470.5,922.3 452,922.3 453.6,918 452,913.3 		"/>
		<rect x="447" y="811.8" clip-path="url(#SVGID_18_)" fill="#599AD3" width="54.8" height="54.8"/>
		<rect x="463.9" y="811.8" clip-path="url(#SVGID_18_)" fill="#4357A6" width="54.8" height="54.8"/>
		<polygon clip-path="url(#SVGID_18_)" fill="#10122C" points="463.9,811.8 447,822.1 447,811.8 		"/>
		<rect x="485.6" y="823.5" clip-path="url(#SVGID_18_)" fill="#3B74BA" width="43.2" height="43.2"/>
		<rect x="498.9" y="823.5" clip-path="url(#SVGID_18_)" fill="#599AD3" width="43.2" height="43.2"/>
		
			<rect x="503" y="854.6" transform="matrix(0.9806 -0.1958 0.1958 0.9806 -158.2626 116.7235)" clip-path="url(#SVGID_18_)" fill="#D5E9F8" width="16.3" height="8.3"/>
		<polygon clip-path="url(#SVGID_18_)" fill="#D5E9F8" points="506.6,834.5 491,834.5 491.7,832.6 491,830.7 506.5,830.7 
			505.5,832.7 		"/>
		<polygon clip-path="url(#SVGID_18_)" fill="#9DC7EA" points="498.8,830.7 498.8,834.5 491.1,834.5 491.7,832.6 491.1,830.7 		"/>
		<polygon clip-path="url(#SVGID_18_)" fill="#599AD3" points="473.1,823.7 454.7,823.7 455.4,821.5 454.7,819.2 472.9,819.2 
			471.8,821.6 		"/>
		<polygon clip-path="url(#SVGID_18_)" fill="#10122C" points="463.9,819.2 463.9,823.7 454.7,823.7 455.4,821.5 454.7,819.2 		"/>
		<polygon clip-path="url(#SVGID_18_)" fill="#599AD3" points="473.1,856.8 454.7,856.8 455.4,854.6 454.7,852.3 472.9,852.3 
			471.8,854.7 		"/>
		<polygon clip-path="url(#SVGID_18_)" fill="#10122C" points="463.9,852.3 463.9,856.8 454.7,856.8 455.4,854.6 454.7,852.3 		"/>
		<rect x="522.3" y="886.1" clip-path="url(#SVGID_18_)" fill="#3B74BA" width="75.8" height="75.8"/>
		<rect x="545.6" y="886.1" clip-path="url(#SVGID_18_)" fill="#599AD3" width="75.8" height="75.8"/>
		
			<rect x="597.8" y="892.4" transform="matrix(0.9806 -0.1958 0.1958 0.9806 -163.929 136.2456)" clip-path="url(#SVGID_18_)" fill="#D5E9F8" width="18.5" height="9.4"/>
		<polygon clip-path="url(#SVGID_18_)" fill="#D5E9F8" points="555.7,898.1 535.2,898.1 536,895.7 535.2,893.1 555.5,893.1 
			554.3,895.8 		"/>
		<polygon clip-path="url(#SVGID_18_)" fill="#9DC7EA" points="545.4,893.1 545.4,898.1 535.2,898.1 536,895.7 535.2,893.1 		"/>
		<polygon clip-path="url(#SVGID_18_)" fill="#D5E9F8" points="555.7,954.6 535.2,954.6 536,952.2 535.2,949.6 555.5,949.6 
			554.3,952.3 		"/>
		<polygon clip-path="url(#SVGID_18_)" fill="#9DC7EA" points="545.4,949.6 545.4,954.6 535.2,954.6 536,952.2 535.2,949.6 		"/>
		<path clip-path="url(#SVGID_18_)" fill="#144A88" d="M415.2,978.5c-5.7,0-10.4,4.7-10.4,10.4s4.7,10.4,10.4,10.4
			c5.7,0,10.4-4.7,10.4-10.4S421,978.5,415.2,978.5"/>
		<path clip-path="url(#SVGID_18_)" fill="#599AD3" d="M415.2,982.1c-3.7,0-6.7,3-6.7,6.7c0,3.7,3,6.7,6.7,6.7c3.7,0,6.7-3,6.7-6.7
			C421.9,985.1,418.9,982.1,415.2,982.1"/>
		<path clip-path="url(#SVGID_18_)" fill="#144A88" d="M624.7,978.5c-5.7,0-10.4,4.7-10.4,10.4s4.7,10.4,10.4,10.4
			c5.7,0,10.4-4.7,10.4-10.4S630.4,978.5,624.7,978.5"/>
		<path clip-path="url(#SVGID_18_)" fill="#599AD3" d="M624.7,982.1c-3.7,0-6.7,3-6.7,6.7c0,3.7,3,6.7,6.7,6.7c3.7,0,6.7-3,6.7-6.7
			C631.4,985.1,628.4,982.1,624.7,982.1"/>
		<path clip-path="url(#SVGID_18_)" fill="#144A88" d="M646.4,961.9H433.5l-85-232.1c-0.8-2.1-2.7-3.5-5-3.6l-28.3-1.2
			c-3-0.1-5.6,2.2-5.7,5.3c-0.1,3,2.2,5.6,5.3,5.7l24.7,1l82.3,224.8h-18.5c-2.9,0-5.3,2.4-5.3,5.3v6.4c0,2.9,2.4,5.3,5.3,5.3h243.2
			c2.9,0,5.3-2.4,5.3-5.3v-6.4C651.7,964.3,649.3,961.9,646.4,961.9"/>
		<path clip-path="url(#SVGID_18_)" fill="#B26232" d="M311.5,708.1c0,0,10.6,7,18.8,7.3c8.2,0.3,13,8.5,14.1,11.9
			c1.1,3.4-2.1,8.6-4.6,5.5c-3.8-4.7-11.6-1-19-7.2c-7.4-6.1-18.5-10.1-18.5-10.1L311.5,708.1z"/>
		<path clip-path="url(#SVGID_18_)" fill="#A5C58D" d="M216.9,593.4c0,0,22.8,81.5,40.9,97.9c9.4,8.5,61.6,43.4,65.9,32.2
			c0,0,6.4-7.9,2.9-12.5c0,0-43.9-31.6-47.3-33.7c-5.9-3.7,1.4-77.7-14.2-90.4C249.5,574.2,225.6,570.9,216.9,593.4"/>
		<path clip-path="url(#SVGID_18_)" fill="#414042" d="M308.8,999.1c0,0-1.7,0.1-4.5,0.1h-43c-1-0.1-1.7-0.3-2-0.4
			c-3.9-1.8-2.1-18.9-2.1-18.9s16.7-13.9,19.3-3.6c2.5,10.4,16.5,14.8,24.3,15.9C308.7,993.4,308.8,999.1,308.8,999.1"/>
		<path clip-path="url(#SVGID_18_)" fill="#254790" d="M173,788.3c8.3,16.9,27.9,40.4,35.1,58.6c1.7,4.3,2.7,8.3,2.7,11.9
			c0.2,40.9,44.6,121.6,44.6,121.6c4.2,2.7,22.3-2.7,22.3-2.7s-2.1-17.9-12.5-79.9c-5.7-34.2-15.4-85-22.9-123.8
			c-1.9-10-3.7-19.2-5.3-27c-3.3-17-5.5-28-5.5-28l-17.2,0.3l-46.5,0.8C167.9,720,148.6,738.5,173,788.3"/>
		<path clip-path="url(#SVGID_18_)" fill="#1F3966" d="M173,788.3c8.3,16.9,27.9,40.4,35.1,58.6c10.3-21.7,25.8-54.7,34.3-72.9
			c-1.9-10-3.7-19.2-5.3-27c-6.7-8.2-15.3-18.7-22.7-27.7l-46.5,0.8C167.9,720,148.6,738.5,173,788.3"/>
		<path clip-path="url(#SVGID_18_)" fill="#414042" d="M116.7,999.2H93.4c-2.2-1.7-4-4.6-4.8-8.8c-1.4-7-9.4-10.5-11.3-16.1
			c-1.9-5.7,6.4-14.1,6.4-14.1l2.8-3.9l14.6,2.8c0,0,1.5,10.1,1.4,17.8c-0.1,7.7,2.8,15.8,9.7,17
			C117.1,994.8,117.1,997.7,116.7,999.2"/>
		<path clip-path="url(#SVGID_18_)" fill="#254790" d="M181.1,889.1c-8.7,15.9-73.2,89.5-73.2,89.5s-20.3-6.9-23.9-19.2
			c0,0,38.1-62.6,55.5-89.3c5-7.6,7.7-124.3,25.4-145.6c22.2-26.7,62.3,23.9,62.3,23.9s-12.5,40.8-16.4,53.7
			C202,830.6,187.1,878.2,181.1,889.1"/>
		<path clip-path="url(#SVGID_18_)" fill="#BE713B" d="M305.4,714.2c0,0,10.6,7,18.8,7.3s13,8.5,14.1,11.9c1.1,3.4-2.1,8.6-4.6,5.5
			c-3.8-4.7-11.6-1-19-7.2c-7.4-6.1-18.5-10.1-18.5-10.1L305.4,714.2z"/>
		<path clip-path="url(#SVGID_18_)" fill="#E6E1AA" d="M266.8,578.5c6.4-10.6,9.1-17.3,9.1-17.3l-15-26.4c-8.8,24.7-29,30.3-29,30.3
			s23.6,25.9,42.7,27.2C274.6,592.3,272.5,585.4,266.8,578.5"/>
		<path clip-path="url(#SVGID_18_)" fill="#E6E1AA" d="M281.3,562.8c0,0-29.8-6.3-25.6-24.8c4.2-18.5,3.2-31.8,22.4-28.5
			c19.2,3.3,21.3,11.2,21.4,17.7C299.6,533.7,289.1,564,281.3,562.8"/>
		<path clip-path="url(#SVGID_18_)" fill="#492E1F" d="M255.4,539.3c0,0,9.8-23.2,36.7-16.9c18.5,4.3,13.6-14.5,12.5-17.5
			c0,0-14.3-2.7-29.2-5.1C244.3,494.8,253.7,534.6,255.4,539.3"/>
		<path clip-path="url(#SVGID_18_)" fill="#B5D79A" d="M280.4,619.8c-0.6,9.2-3.4,23.3-7.2,38.8c-1.5,6-3.1,12.3-4.8,18.6
			c-2.8,10.2-5.6,20.5-8.6,30.2l-0.1,0.3c-0.2,1-0.5,2-0.8,3c-2.6,8.5-5,16.4-7.2,23.2c-4.1,12.8-4.1,20-7.4,21.4
			c-6.6,2.9-32.5-0.2-48.1-7c-13.1-5.6-33.1-22.5-33-30.9c0.1-9.8,13.3-39.5,22.1-74.1c10.8-42.3,34.8-76,54.7-82.9
			c1.5-0.5,3.1,2.7,8.9,8.2c5.4,5.1,12.1,8.3,18.5,9l3.8,6.3C276.3,592.9,281.4,604.7,280.4,619.8"/>
		<path clip-path="url(#SVGID_18_)" fill="#A5C58D" d="M268.4,677.1C267,683.1,270.1,670.8,268.4,677.1c-2.8,10.2-5.6,20.5-8.6,30.2
			l-0.1,0.3c-0.2,1-0.5,2-0.8,3c-2.6,8.5-5,16.4-7.2,23.2c-41.5-52.8-18-116-18-116L268.4,677.1z"/>
		<path clip-path="url(#SVGID_18_)" fill="#B5D79A" d="M210.3,600c0,0,22.8,81.5,40.9,97.9c9.4,8.5,61.6,43.4,65.9,32.2
			c0,0,6.5-7.9,2.9-12.5c0,0-43.9-31.6-47.3-33.7c-5.9-3.7,1.4-77.7-14.2-90.4C242.9,580.8,219,577.5,210.3,600"/>
		<path clip-path="url(#SVGID_18_)" fill="#492E1F" d="M271.9,527.7c0,0,3.4-5.5,12.3-6.4c0,0-26.3,0.6-27.4,8.6
			c-1.1,8.1-1.4,9.3-1.4,9.3S269.3,539.8,271.9,527.7"/>
		<rect x="1364.4" y="649.4" clip-path="url(#SVGID_18_)" fill="#7FB3E1" width="57.5" height="51.1"/>
		<rect x="1374.9" y="649.4" clip-path="url(#SVGID_18_)" fill="#9DC7EA" width="57.5" height="51.1"/>
		<rect x="1438.2" y="641.7" clip-path="url(#SVGID_18_)" fill="#7FB3E1" width="72.4" height="58.8"/>
		<rect x="1451.5" y="641.7" clip-path="url(#SVGID_18_)" fill="#9DC7EA" width="72.4" height="58.8"/>
		<path clip-path="url(#SVGID_18_)" fill="#4357A6" d="M750.8,798.4l-13.5-50.6c-0.5-1.9-2.5-3.1-4.4-2.5l-84.1,22.5
			c-1.9,0.5-3.1,2.5-2.5,4.4l13.5,50.6c0.5,1.9,2.5,3.1,4.4,2.5l84.1-22.5C750.2,802.2,751.3,800.3,750.8,798.4"/>
		<g opacity="0.2" clip-path="url(#SVGID_18_)">
			<g>
				<defs>
					<rect id="SVGID_21_" x="646.1" y="745.1" width="91.6" height="40.1"/>
				</defs>
				<clipPath id="SVGID_22_">
					<use xlink:href="#SVGID_21_"  overflow="visible"/>
				</clipPath>
				<path clip-path="url(#SVGID_22_)" fill="#D5E9F8" d="M737.3,747.8c-0.5-1.9-2.5-3.1-4.4-2.5l-84.1,22.5
					c-1.9,0.5-3.1,2.5-2.5,4.4l52.3,13.1l39.2-36L737.3,747.8z"/>
			</g>
		</g>
		<g opacity="0.2" clip-path="url(#SVGID_18_)">
			<g>
				<defs>
					<rect id="SVGID_23_" x="726" y="795" width="18.7" height="7.1"/>
				</defs>
				<clipPath id="SVGID_24_">
					<use xlink:href="#SVGID_23_"  overflow="visible"/>
				</clipPath>
				<path clip-path="url(#SVGID_24_)" fill="#D5E9F8" d="M744.7,796c-0.2-0.8-1-1.2-1.8-1l-15.8,4.2c-0.8,0.2-1.2,1-1,1.8
					s1,1.2,1.8,1l15.8-4.2C744.4,797.6,744.9,796.8,744.7,796"/>
			</g>
		</g>
		<rect x="532.3" y="851" clip-path="url(#SVGID_18_)" fill="#599AD3" width="150" height="150"/>
		<rect x="578.5" y="851" clip-path="url(#SVGID_18_)" fill="#4357A6" width="150" height="150"/>
		<polygon clip-path="url(#SVGID_18_)" fill="#10122C" points="578.5,851 532.3,879 532.3,851 		"/>
		<polygon clip-path="url(#SVGID_18_)" fill="#599AD3" points="607.4,938.6 549.2,938.6 551.7,931.8 549.2,924.4 606.8,924.4 
			603.3,932 		"/>
		<polygon clip-path="url(#SVGID_18_)" fill="#10122C" points="578.3,924.4 578.3,938.6 549.2,938.6 551.7,931.8 549.2,924.4 		"/>
		<g opacity="0.2" clip-path="url(#SVGID_18_)">
			<g>
				<defs>
					<rect id="SVGID_25_" x="854.9" y="913" width="86.2" height="86.2"/>
				</defs>
				<clipPath id="SVGID_26_">
					<use xlink:href="#SVGID_25_"  overflow="visible"/>
				</clipPath>
				<rect x="854.9" y="913" clip-path="url(#SVGID_26_)" fill="#D5E9F8" width="86.2" height="86.2"/>
			</g>
		</g>
		<rect x="881.5" y="913" clip-path="url(#SVGID_18_)" fill="#4357A6" width="86.2" height="86.2"/>
		<polygon clip-path="url(#SVGID_18_)" fill="#10122C" points="881.5,913 854.9,929.1 854.9,913 		"/>
		<rect x="915.7" y="931.3" clip-path="url(#SVGID_18_)" fill="#3B74BA" width="67.9" height="67.9"/>
		<rect x="936.6" y="931.3" clip-path="url(#SVGID_18_)" fill="#599AD3" width="67.9" height="67.9"/>
		
			<rect x="943.1" y="980.3" transform="matrix(0.9806 -0.1958 0.1958 0.9806 -174.7319 206.2945)" clip-path="url(#SVGID_18_)" fill="#D5E9F8" width="25.7" height="13.1"/>
		<polygon clip-path="url(#SVGID_18_)" fill="#D5E9F8" points="948.8,948.6 924.3,948.6 925.3,945.8 924.3,942.7 948.6,942.7 
			947.1,945.9 		"/>
		<polygon clip-path="url(#SVGID_18_)" fill="#9DC7EA" points="936.6,942.7 936.6,948.6 924.3,948.6 925.3,945.8 924.3,942.7 		"/>
		<polygon clip-path="url(#SVGID_18_)" fill="#599AD3" points="896,931.7 867,931.7 868.2,928.3 867,924.6 895.8,924.6 894,928.4 		
			"/>
		<polygon clip-path="url(#SVGID_18_)" fill="#10122C" points="881.5,924.6 881.5,931.7 867,931.7 868.2,928.3 867,924.6 		"/>
		<polygon clip-path="url(#SVGID_18_)" fill="#599AD3" points="896,983.7 867,983.7 868.2,980.4 867,976.7 895.8,976.7 894,980.5 		
			"/>
		<polygon clip-path="url(#SVGID_18_)" fill="#10122C" points="881.5,976.7 881.5,983.7 867,983.7 868.2,980.4 867,976.7 		"/>
		<rect x="660.1" y="882.1" clip-path="url(#SVGID_18_)" fill="#3B74BA" width="119.3" height="119.3"/>
		<rect x="696.9" y="882.1" clip-path="url(#SVGID_18_)" fill="#599AD3" width="119.3" height="119.3"/>
		
			<rect x="778.9" y="892" transform="matrix(0.9806 -0.1958 0.1958 0.9806 -160.7729 172.7997)" clip-path="url(#SVGID_18_)" fill="#D5E9F8" width="29.1" height="14.8"/>
		<polygon clip-path="url(#SVGID_18_)" fill="#D5E9F8" points="712.7,901 680.4,901 681.7,897.2 680.4,893.2 712.4,893.2 
			710.5,897.4 		"/>
		<polygon clip-path="url(#SVGID_18_)" fill="#9DC7EA" points="696.6,893.2 696.6,901 680.4,901 681.7,897.2 680.4,893.2 		"/>
		<polygon clip-path="url(#SVGID_18_)" fill="#D5E9F8" points="712.7,989.9 680.4,989.9 681.7,986.1 680.4,982 712.4,982 
			710.5,986.3 		"/>
		<polygon clip-path="url(#SVGID_18_)" fill="#9DC7EA" points="696.6,982 696.6,989.9 680.4,989.9 681.7,986.1 680.4,982 		"/>
		<polygon clip-path="url(#SVGID_18_)" fill="#D5E9F8" points="653.2,750.7 607.3,750.7 609.2,745.3 607.3,739.5 652.8,739.5 
			650,745.5 		"/>
		<polygon clip-path="url(#SVGID_18_)" fill="#9DC7EA" points="630.3,739.5 630.3,750.7 607.3,750.7 609.2,745.3 607.3,739.5 		"/>
		<rect x="1355.9" y="451.5" clip-path="url(#SVGID_18_)" fill="#85B7E2" width="238.6" height="8.4"/>
		<rect x="1299.7" y="381" clip-path="url(#SVGID_18_)" fill="#599AD3" width="309.9" height="8.4"/>
		<rect x="1355.9" y="534.5" clip-path="url(#SVGID_18_)" fill="#85B7E2" width="238.6" height="8.4"/>
		<rect x="1355.9" y="617.5" clip-path="url(#SVGID_18_)" fill="#85B7E2" width="238.6" height="8.4"/>
		<rect x="1355.9" y="700.5" clip-path="url(#SVGID_18_)" fill="#85B7E2" width="238.6" height="8.4"/>
		<g opacity="0.2" clip-path="url(#SVGID_18_)">
			<g>
				<defs>
					<rect id="SVGID_27_" x="1364.2" y="466.8" width="67.7" height="67.7"/>
				</defs>
				<clipPath id="SVGID_28_">
					<use xlink:href="#SVGID_27_"  overflow="visible"/>
				</clipPath>
				<rect x="1364.2" y="466.8" clip-path="url(#SVGID_28_)" fill="#D5E9F8" width="67.7" height="67.7"/>
			</g>
		</g>
		<rect x="1385" y="466.8" clip-path="url(#SVGID_18_)" fill="#4357A6" width="67.7" height="67.7"/>
		<polygon clip-path="url(#SVGID_18_)" fill="#10122C" points="1385,466.8 1364.2,479.4 1364.2,466.8 		"/>
		<rect x="1411.9" y="481.2" clip-path="url(#SVGID_18_)" fill="#3B74BA" width="53.3" height="53.3"/>
		<rect x="1428.3" y="481.2" clip-path="url(#SVGID_18_)" fill="#599AD3" width="53.3" height="53.3"/>
		
			<rect x="1433.4" y="519.9" transform="matrix(0.9806 -0.1958 0.1958 0.9806 -74.8674 292.8615)" clip-path="url(#SVGID_18_)" fill="#D5E9F8" width="20.2" height="10.3"/>
		<polygon clip-path="url(#SVGID_18_)" fill="#D5E9F8" points="1437.9,495 1418.6,495 1419.4,492.8 1418.6,490.3 1437.7,490.3 
			1436.6,492.9 		"/>
		<polygon clip-path="url(#SVGID_18_)" fill="#9DC7EA" points="1428.3,490.3 1428.3,495 1418.6,495 1419.4,492.8 1418.6,490.3 		"/>
		<polygon clip-path="url(#SVGID_18_)" fill="#FDD2AE" points="1396.4,481.3 1373.7,481.3 1374.6,478.6 1373.7,475.8 1396.2,475.8 
			1394.8,478.8 		"/>
		<polygon clip-path="url(#SVGID_18_)" fill="#10122C" points="1385.1,475.8 1385.1,481.3 1373.7,481.3 1374.6,478.6 1373.7,475.8 
					"/>
		<polygon clip-path="url(#SVGID_18_)" fill="#FDD2AE" points="1396.4,522.2 1373.7,522.2 1374.6,519.5 1373.7,516.7 1396.2,516.7 
			1394.8,519.6 		"/>
		<polygon clip-path="url(#SVGID_18_)" fill="#10122C" points="1385.1,516.7 1385.1,522.2 1373.7,522.2 1374.6,519.5 1373.7,516.7 
					"/>
		<rect x="1397.1" y="398.3" clip-path="url(#SVGID_18_)" fill="#3B74BA" width="53.3" height="53.3"/>
		<rect x="1413.5" y="398.3" clip-path="url(#SVGID_18_)" fill="#599AD3" width="53.3" height="53.3"/>
		
			<rect x="1418.6" y="436.8" transform="matrix(0.9806 -0.1959 0.1959 0.9806 -58.8818 288.4221)" clip-path="url(#SVGID_18_)" fill="#D5E9F8" width="20.2" height="10.3"/>
		<polygon clip-path="url(#SVGID_18_)" fill="#D5E9F8" points="1423.1,411.9 1403.8,411.9 1404.6,409.6 1403.8,407.2 1422.9,407.2 
			1421.7,409.7 		"/>
		<polygon clip-path="url(#SVGID_18_)" fill="#9DC7EA" points="1413.5,407.2 1413.5,411.9 1403.8,411.9 1404.6,409.6 1403.8,407.2 
					"/>
		<g opacity="0.2" clip-path="url(#SVGID_18_)">
			<g>
				<defs>
					<rect id="SVGID_29_" x="1473.9" y="413.8" width="37.7" height="37.7"/>
				</defs>
				<clipPath id="SVGID_30_">
					<use xlink:href="#SVGID_29_"  overflow="visible"/>
				</clipPath>
				<rect x="1473.9" y="413.8" clip-path="url(#SVGID_30_)" fill="#D5E9F8" width="37.7" height="37.7"/>
			</g>
		</g>
		<rect x="1485.5" y="413.8" clip-path="url(#SVGID_18_)" fill="#4357A6" width="37.7" height="37.7"/>
		<polygon clip-path="url(#SVGID_18_)" fill="#10122C" points="1485.5,413.8 1473.9,420.9 1473.9,413.8 		"/>
		<polygon clip-path="url(#SVGID_18_)" fill="#FDD2AE" points="1491.9,422 1479.2,422 1479.7,420.5 1479.2,418.9 1491.8,418.9 
			1491,420.6 		"/>
		<polygon clip-path="url(#SVGID_18_)" fill="#10122C" points="1485.5,418.9 1485.5,422 1479.2,422 1479.7,420.5 1479.2,418.9 		"/>
		<polygon clip-path="url(#SVGID_18_)" fill="#FDD2AE" points="1491.9,444.7 1479.2,444.7 1479.7,443.2 1479.2,441.6 1491.8,441.6 
			1491,443.3 		"/>
		<polygon clip-path="url(#SVGID_18_)" fill="#10122C" points="1485.5,441.6 1485.5,444.7 1479.2,444.7 1479.7,443.2 1479.2,441.6 
					"/>
		<rect x="1364.8" y="573.2" clip-path="url(#SVGID_18_)" fill="#3B74BA" width="44.3" height="44.3"/>
		<rect x="1378.5" y="573.2" clip-path="url(#SVGID_18_)" fill="#599AD3" width="44.3" height="44.3"/>
		
			<rect x="1382.7" y="605.2" transform="matrix(0.9806 -0.1958 0.1958 0.9806 -92.4087 284.2152)" clip-path="url(#SVGID_18_)" fill="#D5E9F8" width="16.8" height="8.5"/>
		<polygon clip-path="url(#SVGID_18_)" fill="#D5E9F8" points="1386.4,584.5 1370.4,584.5 1371.1,582.6 1370.4,580.6 1386.3,580.6 
			1385.3,582.7 		"/>
		<polygon clip-path="url(#SVGID_18_)" fill="#9DC7EA" points="1378.4,580.6 1378.4,584.5 1370.4,584.5 1371.1,582.6 1370.4,580.6 
					"/>
		<rect x="1428.1" y="573.2" clip-path="url(#SVGID_18_)" fill="#3B74BA" width="44.3" height="44.3"/>
		<rect x="1441.8" y="573.2" clip-path="url(#SVGID_18_)" fill="#599AD3" width="44.3" height="44.3"/>
		
			<rect x="1446" y="605.2" transform="matrix(0.9806 -0.1958 0.1958 0.9806 -91.1752 296.5835)" clip-path="url(#SVGID_18_)" fill="#D5E9F8" width="16.8" height="8.5"/>
		<polygon clip-path="url(#SVGID_18_)" fill="#D5E9F8" points="1449.8,584.5 1433.8,584.5 1434.4,582.6 1433.8,580.6 1449.6,580.6 
			1448.7,582.7 		"/>
		<polygon clip-path="url(#SVGID_18_)" fill="#9DC7EA" points="1441.8,580.6 1441.8,584.5 1433.8,584.5 1434.4,582.6 1433.8,580.6 
					"/>
		<g opacity="0.2" clip-path="url(#SVGID_18_)">
			<g>
				<defs>
					<rect id="SVGID_31_" x="1488.2" y="502.2" width="32.3" height="32.3"/>
				</defs>
				<clipPath id="SVGID_32_">
					<use xlink:href="#SVGID_31_"  overflow="visible"/>
				</clipPath>
				<rect x="1488.2" y="502.2" clip-path="url(#SVGID_32_)" fill="#D5E9F8" width="32.3" height="32.3"/>
			</g>
		</g>
		<rect x="1498.1" y="502.2" clip-path="url(#SVGID_18_)" fill="#4357A6" width="32.3" height="32.3"/>
		<polygon clip-path="url(#SVGID_18_)" fill="#10122C" points="1498.1,502.2 1488.2,508.2 1488.2,502.2 		"/>
		<rect x="1510.9" y="509.1" clip-path="url(#SVGID_18_)" fill="#3B74BA" width="25.4" height="25.4"/>
		<rect x="1518.8" y="509.1" clip-path="url(#SVGID_18_)" fill="#599AD3" width="25.4" height="25.4"/>
		
			<rect x="1521.2" y="527.7" transform="matrix(0.9806 -0.1959 0.1959 0.9806 -74.2712 309.1526)" clip-path="url(#SVGID_18_)" fill="#D5E9F8" width="9.6" height="4.9"/>
		<polygon clip-path="url(#SVGID_18_)" fill="#D5E9F8" points="1523.4,515.8 1514.2,515.8 1514.5,514.7 1514.2,513.6 1523.3,513.6 
			1522.7,514.8 		"/>
		<polygon clip-path="url(#SVGID_18_)" fill="#9DC7EA" points="1518.8,513.6 1518.8,515.8 1514.2,515.8 1514.5,514.7 1514.2,513.6 
					"/>
		<polygon clip-path="url(#SVGID_18_)" fill="#FDD2AE" points="1503.6,509.3 1492.7,509.3 1493.2,508 1492.7,506.6 1503.5,506.6 
			1502.8,508 		"/>
		<polygon clip-path="url(#SVGID_18_)" fill="#10122C" points="1498.1,506.6 1498.1,509.3 1492.7,509.3 1493.2,508 1492.7,506.6 		
			"/>
		<polygon clip-path="url(#SVGID_18_)" fill="#FDD2AE" points="1503.6,528.8 1492.7,528.8 1493.2,527.5 1492.7,526.1 1503.5,526.1 
			1502.8,527.5 		"/>
		<polygon clip-path="url(#SVGID_18_)" fill="#10122C" points="1498.1,526.1 1498.1,528.8 1492.7,528.8 1493.2,527.5 1492.7,526.1 
					"/>
		<polygon clip-path="url(#SVGID_18_)" fill="#599AD3" points="1560.5,558.6 1546.9,617.7 1584.5,617.7 1598.1,558.6 		"/>
		<polygon clip-path="url(#SVGID_18_)" fill="#FFFFFF" points="1536.1,558.6 1522.5,617.7 1560.1,617.7 1573.7,558.6 		"/>
		<path clip-path="url(#SVGID_18_)" fill="#4357A6" d="M1546.5,590.2l0,25.7c0,1-0.8,1.8-1.8,1.8l-42.7,0c-1,0-1.8-0.8-1.8-1.8
			l0-25.7c0-1,0.8-1.8,1.8-1.8l42.7,0C1545.7,588.4,1546.5,589.2,1546.5,590.2"/>
		<g opacity="0.2" clip-path="url(#SVGID_18_)">
			<g>
				<defs>
					<rect id="SVGID_33_" x="1500.2" y="588.4" width="46.3" height="14.6"/>
				</defs>
				<clipPath id="SVGID_34_">
					<use xlink:href="#SVGID_33_"  overflow="visible"/>
				</clipPath>
				<path clip-path="url(#SVGID_34_)" fill="#D5E9F8" d="M1546.5,590.2l0,0.7l-23.1,12.1l-23.1-12.8c0-1,0.8-1.8,1.8-1.8l42.7,0
					C1545.7,588.4,1546.5,589.2,1546.5,590.2"/>
			</g>
		</g>
		<g opacity="0.2" clip-path="url(#SVGID_18_)">
			<g>
				<defs>
					<rect id="SVGID_35_" x="1534.4" y="613.3" width="9.4" height="1.4"/>
				</defs>
				<clipPath id="SVGID_36_">
					<use xlink:href="#SVGID_35_"  overflow="visible"/>
				</clipPath>
				<path clip-path="url(#SVGID_36_)" fill="#D5E9F8" d="M1543.2,613.3l-8,0c-0.4,0-0.7,0.3-0.7,0.7c0,0.4,0.3,0.7,0.7,0.7l8,0
					c0.4,0,0.7-0.3,0.7-0.7S1543.5,613.3,1543.2,613.3"/>
			</g>
		</g>
		<path clip-path="url(#SVGID_18_)" fill="#4357A6" d="M1538.6,590c0-1-0.8-1.8-1.8-1.8l-42.7,0c-1,0-1.8,0.8-1.8,1.8l0,25.7
			c0,1,0.8,1.8,1.8,1.8l42.7,0c1,0,1.8-0.8,1.8-1.8L1538.6,590z"/>
		<g opacity="0.2" clip-path="url(#SVGID_18_)">
			<g>
				<defs>
					<rect id="SVGID_37_" x="1492.3" y="588.2" width="46.3" height="14.6"/>
				</defs>
				<clipPath id="SVGID_38_">
					<use xlink:href="#SVGID_37_"  overflow="visible"/>
				</clipPath>
				<path clip-path="url(#SVGID_38_)" fill="#D5E9F8" d="M1538.6,590l0,0.7l-23.1,12.1l-23.1-12.8c0-1,0.8-1.8,1.8-1.8l42.7,0
					C1537.8,588.2,1538.6,589,1538.6,590"/>
			</g>
		</g>
		<g opacity="0.2" clip-path="url(#SVGID_18_)">
			<g>
				<defs>
					<rect id="SVGID_39_" x="1526.6" y="613.1" width="9.4" height="1.4"/>
				</defs>
				<clipPath id="SVGID_40_">
					<use xlink:href="#SVGID_39_"  overflow="visible"/>
				</clipPath>
				<path clip-path="url(#SVGID_40_)" fill="#D5E9F8" d="M1535.3,613.1l-8,0c-0.4,0-0.7,0.3-0.7,0.7c0,0.4,0.3,0.7,0.7,0.7l8,0
					c0.4,0,0.7-0.3,0.7-0.7C1536,613.4,1535.7,613.1,1535.3,613.1"/>
			</g>
		</g>
		<path clip-path="url(#SVGID_18_)" fill="#1D2F50" d="M1877.3,1001.9H54.1c0,0-0.1,0-0.1,0.1v0.3c0,0,0,0.1,0.1,0.1h1823.2
			c0,0,0.1,0,0.1-0.1L1877.3,1001.9C1877.4,1001.9,1877.3,1001.9,1877.3,1001.9"/>
		<path clip-path="url(#SVGID_18_)" fill="#C5433C" d="M1317.4,758.1v-0.8h-85.2c-10.5,0-19,8.3-19,18.4c0,9.2,6.9,16.8,16,18.2
			v206.7h320.3V758.1H1317.4z"/>
		<path clip-path="url(#SVGID_18_)" fill="#FEF8BA" d="M1250.8,653.3c0,0-5.6-1.1-10.2-3.4c-4.6-2.3-17-3.8-19.7-1.4
			s2.8,12.5,14.1,12.8c11.3,0.3,14.5,2.2,14.5,2.2L1250.8,653.3z"/>
		<path clip-path="url(#SVGID_18_)" fill="#FEF8BA" d="M1410.9,757.3l-81.6-0.1c0,0,10.2-54.3,4.5-72.2c-5.6-17.8,0.3-43.8,0.3-43.8
			c8.2-19.3,10.3-37.4,13.9-38.4c2-0.5,3.6-1.6,5.6-2c32.1-6.4,58.1,5.2,58.1,5.2c7.2,18-8.2,31.4-9,72
			C1402,717.9,1410.9,757.3,1410.9,757.3"/>
		<path clip-path="url(#SVGID_18_)" fill="#B5D79A" d="M1244,662c0,0,14.4,6.7,29.9,11.6c5.5,1.7,11.1,3.3,16.6,4.6
			c5,1.1,9.9,1.9,14.1,2c0,0,0.3-0.1,1-0.5c3.9-1.7,19.1-8.9,33.9-25.2c1.1-1.4,2.4-2.7,3.6-4.2c0.9-1,1.8-11.2,2.5-21.7l0.1-0.1
			c0.8-12.4,1.4-25.6,1.4-25.6s-20,5.4-48.6,53.6c-0.8,1.4-3.2,1.1-8.8,0.1c-7.2-1.4-21.8-1.3-43.8-4.4c0,0-0.8,0.6-1,3
			C1244.6,660.4,1244,662,1244,662"/>
		<rect x="1235.5" y="638.5" clip-path="url(#SVGID_18_)" fill="#9BD199" width="54.5" height="45.4"/>
		<polygon clip-path="url(#SVGID_18_)" fill="#8DBE8B" points="1235.5,683.6 1227.6,681.6 1227.6,636.2 1235.5,638.2 		"/>
		<path clip-path="url(#SVGID_18_)" fill="#A5C58D" d="M1305.7,679.8c3.9-1.7,19.1-8.9,33.9-25.2c1.1-1.4,2.4-2.7,3.6-4.2
			c0.9-1,1.8-11.2,2.5-21.7C1343,631.4,1310.9,662.4,1305.7,679.8"/>
		<path clip-path="url(#SVGID_18_)" fill="#492E1F" d="M1377.8,518.8c0,0,1.8-3.7,11-2.7c9.1,1,24.9,2.7,25,52.4
			c0,5.4,32.8,55.1-4.2,101.8l-26.4-66.8L1377.8,518.8z"/>
		<path clip-path="url(#SVGID_18_)" fill="#F3726D" d="M1375.2,519.4c0,0,9.7-3.3,14.9,1.6c5.1,4.8,2.2,11.2,2.2,11.2L1375.2,519.4z
			"/>
		<path clip-path="url(#SVGID_18_)" fill="#492E1F" d="M1344.4,538.4c0,0,0.2-21.3,34.7-18.9c5.9,0.4,11.2,3.8,13.9,9
			c3.9,7.5,5.6,20.8-7,42.1L1344.4,538.4z"/>
		<path clip-path="url(#SVGID_18_)" fill="#FEF8BA" d="M1388.2,601l-7.8,30.2l-22.5,1.1l-11.2-16.7c10.5-7.9,11.9-21.7,11.8-29.9
			c0-0.1,0-0.2,0-0.2c-0.1-3.9-0.5-6.4-0.5-6.4l16-4.8l12.2-3.7c-1.1,9.2-1,15.9-0.5,20.5C1386.3,598.5,1388.2,601,1388.2,601"/>
		<path clip-path="url(#SVGID_18_)" fill="#B5D79A" d="M1324.4,761.1c0,0,62.1,12.8,97.7-0.5c1.9-0.8-5.5-27.4-10.7-45.7
			c-2.5-9-4.5-15.9-4.4-16.9c1.3-24.8,6.2-46,8.5-62.4c0.7-4.3,1.1-8.2,1.3-11.8v-1.8c0.1-5.9-0.7-10.7-2.8-14.7
			c-3.9-7.2-24.9-7.3-24.9-7.3c-2.1,2.4-13.4,10.3-26.9,10.1c-13.6-0.1-6.9-9.7-6.9-9.7c-0.6,0.1-1.5,0.2-1.9,0.4
			c-6.8,1.5-11.4,4.7-11.4,4.7c-10.9,11.8-14.4,70.8-14.2,72.8C1328.3,685.5,1324.4,761.1,1324.4,761.1"/>
	</g>
	<g clip-path="url(#SVGID_2_)">
		<text transform="matrix(-1 0 0 1 1364.1357 661.625)" fill="#2E358D" font-family="'Comfortaa-Bold'" font-size="6.6281">a</text>
	</g>
	<g clip-path="url(#SVGID_2_)">
		<text transform="matrix(-1 0 0 1 1359.6621 661.625)" fill="#2E358D" font-family="'Comfortaa-Bold'" font-size="6.6281">r</text>
	</g>
	<g clip-path="url(#SVGID_2_)">
		<text transform="matrix(-1 0 0 1 1356.7061 661.625)" fill="#2E358D" font-family="'Comfortaa-Bold'" font-size="6.6281">celsheba</text>
	</g>
	<g clip-path="url(#SVGID_2_)">
		<defs>
			<polygon id="SVGID_41_" points="1366.1,645.3 1366.1,656.5 1371,656.5 1371,640.4 			"/>
		</defs>
		<clipPath id="SVGID_42_">
			<use xlink:href="#SVGID_41_"  overflow="visible"/>
		</clipPath>
		
			<radialGradient id="SVGID_43_" cx="0" cy="1080" r="1" gradientTransform="matrix(-12.7289 0 0 -12.7289 1368.4458 14399.1943)" gradientUnits="userSpaceOnUse">
			<stop  offset="0" style="stop-color:#00A9E5"/>
			<stop  offset="1" style="stop-color:#2E358D"/>
		</radialGradient>
		<rect x="1366.1" y="640.4" clip-path="url(#SVGID_42_)" fill="url(#SVGID_43_)" width="4.9" height="16"/>
	</g>
	<g clip-path="url(#SVGID_2_)">
		<defs>
			<path id="SVGID_44_" d="M1360.2,640.4c0,0-7.3,0.4-7.4,7.6c0,7.1,5.8,7.1,5.8,7.1s3.3,0,5.3,0c1.9,0,2.1,1.7,2.1,1.7v7.2l4.9-5
				l0-3.4c-0.5-5.5-5.8-5.5-5.8-5.5h-5.4c0,0-1.8-0.6-1.8-2.4c0-1.8,1.8-2.4,1.8-2.4h6.3l4.9-4.9H1360.2z"/>
		</defs>
		<clipPath id="SVGID_45_">
			<use xlink:href="#SVGID_44_"  overflow="visible"/>
		</clipPath>
		
			<linearGradient id="SVGID_46_" gradientUnits="userSpaceOnUse" x1="0" y1="1079.8146" x2="1" y2="1079.8146" gradientTransform="matrix(-17.5354 -14.7139 14.7139 -17.5354 -14517.7256 19594.4961)">
			<stop  offset="0" style="stop-color:#3F75B7"/>
			<stop  offset="0.6089" style="stop-color:#3F75B7"/>
			<stop  offset="1" style="stop-color:#2E358D"/>
		</linearGradient>
		<polygon clip-path="url(#SVGID_45_)" fill="url(#SVGID_46_)" points="1382.6,650.2 1360.3,631.4 1341.1,654.3 1363.5,673 		"/>
	</g>
	<g clip-path="url(#SVGID_2_)">
		<defs>
			<path id="SVGID_47_" d="M1352.9,649.4c0-0.1,0-0.1,0-0.2C1352.9,649.4,1352.9,649.4,1352.9,649.4 M1360.2,640.4
				c0,0-8.3,0.6-7.3,8.8c-0.1-0.8,0.1-3.9,6.9-3.9h6.3l4.9-4.9H1360.2z"/>
		</defs>
		<clipPath id="SVGID_48_">
			<use xlink:href="#SVGID_47_"  overflow="visible"/>
		</clipPath>
		
			<radialGradient id="SVGID_49_" cx="0" cy="1080" r="1" gradientTransform="matrix(-14.1857 0 0 -14.1857 1355.4395 15965.3301)" gradientUnits="userSpaceOnUse">
			<stop  offset="0" style="stop-color:#00A9E5"/>
			<stop  offset="1" style="stop-color:#2E358D"/>
		</radialGradient>
		<rect x="1351.9" y="640.4" clip-path="url(#SVGID_48_)" fill="url(#SVGID_49_)" width="19.1" height="9"/>
	</g>
	<g clip-path="url(#SVGID_2_)">
		<defs>
			<path id="SVGID_50_" d="M1366,656.9v7.2l4.9-5c0,0-2.3-4-7-4C1363.9,655.1,1365.7,655.1,1366,656.9"/>
		</defs>
		<clipPath id="SVGID_51_">
			<use xlink:href="#SVGID_50_"  overflow="visible"/>
		</clipPath>
		
			<linearGradient id="SVGID_52_" gradientUnits="userSpaceOnUse" x1="0" y1="1080.0818" x2="1" y2="1080.0818" gradientTransform="matrix(-6.1025 -5.1206 5.1206 -6.1025 -4161.4102 7252.3208)">
			<stop  offset="0" style="stop-color:#3F75B7"/>
			<stop  offset="1" style="stop-color:#2E358D"/>
		</linearGradient>
		<polygon clip-path="url(#SVGID_51_)" fill="url(#SVGID_52_)" points="1375.4,658.8 1366.8,651.6 1359.5,660.4 1368,667.5 		"/>
	</g>
	<g clip-path="url(#SVGID_2_)">
		<defs>
			<rect id="SVGID_53_" width="1920" height="1080"/>
		</defs>
		<clipPath id="SVGID_54_">
			<use xlink:href="#SVGID_53_"  overflow="visible"/>
		</clipPath>
		<path clip-path="url(#SVGID_54_)" fill="#DCD7A3" d="M1385.5,591.2c-9.7-5.1-24.6-5.4-27-5.4h-0.3c0,0,0.1-0.1,0.3-0.2
			c1.6-1.2,8.8-6.4,15.4-11.2l12.2-3.7C1384.9,579.9,1385,586.5,1385.5,591.2"/>
		<path clip-path="url(#SVGID_54_)" fill="#FEF8BA" d="M1352.5,586.3c0,0,34.3,1.6,34.9-19.7c0.6-21.2,5.5-35.3-16.4-37.2
			c-21.9-1.9-26.4,6.1-28.3,13.1C1340.8,549.5,1343.6,585.3,1352.5,586.3"/>
		<path clip-path="url(#SVGID_54_)" fill="#492E1F" d="M1355.9,537.8c0,0-14.7,10-12.3,21.7c0,0-7.3-3.8-6.6-14.9
			c0.7-11.1,11.3-18.7,20.7-19.3c9.4-0.6,16.4,0.2,16.4,0.2L1355.9,537.8z"/>
		<path clip-path="url(#SVGID_54_)" fill="#492E1F" d="M1353.4,534.1c-6.1,3.2,19.1,5.9,20.6,16.1c1.5,10.2,13.5,14.1,13.5,14.1
			S1402.7,508.1,1353.4,534.1"/>
		<path clip-path="url(#SVGID_54_)" fill="#A5C58D" d="M1333.4,673.3c0,0,27.4,36.6,78,41.7c-2.5-9-4.5-15.9-4.4-16.9
			c1.3-24.8,6.2-46,8.5-62.4c0.7-4.3,1.1-8.2,1.3-11.8v-1.8c-5.8,1.1-14.9,7.2-18.8,8.1C1367.8,637.2,1333.4,673.3,1333.4,673.3"/>
		<path clip-path="url(#SVGID_54_)" fill="#B5D79A" d="M1302.9,664.7c0,0,23.5,11.7,43.8,16.5c5.9,1.4,11.5,2.4,16.3,2.6
			c0,0,21.9-6.7,38.6-29.9c32.2-44.9,7.3-49.7,7.3-49.7s-21.5,13.3-52,55.8c-1.1,1.5-3.7,1.2-10.7-0.2c-7.4-1.5-22.1-1.3-42.4-4.3
			c0,0-0.3,0.8-0.5,3.1C1302.8,664,1302.9,664.7,1302.9,664.7"/>
		<path clip-path="url(#SVGID_54_)" fill="#FEF8BA" d="M1302.3,665.3c0,0,24,11.1,44.3,15.9c-4.5-8.8-2.7-16.4-0.4-21.4
			c-7.4-1.5-22.2-2.1-42.5-5.1c0,0-0.2,1.6-0.4,4C1302.8,664,1302.3,665.3,1302.3,665.3"/>
		<path clip-path="url(#SVGID_54_)" fill="#FEF8BA" d="M1306.3,655.4c0,0-5.9-1.1-10.9-3.6c-5-2.5-18.2-4.1-21-1.5
			c-2.8,2.6,3,13.3,15,13.6c12.1,0.3,15.5,2.3,15.5,2.3L1306.3,655.4z"/>
		<rect x="1318" y="758.1" clip-path="url(#SVGID_54_)" fill="#F3726D" width="320.3" height="242.6"/>
		<path clip-path="url(#SVGID_54_)" fill="#F37A71" d="M1683.5,757.3H1187c-11.6,0-20.8,8.3-20.8,18.4c0,10.2,9.3,18.4,20.8,18.4
			h496.5c12.8,0,23.2-8.3,23.2-18.4C1706.8,765.7,1696.3,757.3,1683.5,757.3"/>
		<path clip-path="url(#SVGID_54_)" fill="#39B54A" d="M1664.1,873.5c0,0,26.3-14.8,14-34.8c0,0-9.8-12.3-20.4-15.5
			c0,0,5.6,29.9,0,30.6c-5.6,0.7-3.9-33.7-3.9-33.7s-27.7-13.3-38.6-12.3c0,0,17.2,29.2,11.6,28.5c-5.6-0.7-24.9-30.2-24.9-30.2
			s-28.5-5.3-33,11.6c-4.6,16.9,2.8,25.3,7,26.3c4.2,1.1,31.3,0.7,30.6,4.2s-19,9.1-29.2,6c0,0,11.2,27.8,26,26.3
			c14.8-1.4,19.3-10.5,28.5-11.2c9.1-0.7,15.8,1.8,11.2,4.2c-4.6,2.5-20,0.8-27.4,7.1c-7.4,6.3-13.3,10.1,0.4,12.9
			c13.7,2.8,38.3,1.1,43.2-9.5L1664.1,873.5z"/>
		<path clip-path="url(#SVGID_54_)" fill="#009444" d="M1672.3,896.2c-7.4-13.7-8.2-22.7-8.2-22.7c-8.4-26.7-82.2-50.6-82.2-50.6
			c93.8,37.9,77.3,61.1,77.3,61.1c2.5,1.5,6.3,8.5,8.9,13.9c0.4,0.9,1,2.2,1.8,3.9c0.4,0.8,0.6,1.4,0.8,1.9
			c4.8,12.1,2.3,32.9,2.3,32.9l2.9,0.8C1682.5,916.4,1672.3,896.2,1672.3,896.2"/>
		<path clip-path="url(#SVGID_54_)" fill="#39B54A" d="M1706,853.2c0,0-34.7-19.4-18.5-45.8c0,0,13-16.2,26.9-20.4
			c0,0-7.4,39.4,0,40.3c7.4,0.9,5.1-44.5,5.1-44.5s36.6-17.6,50.9-16.2c0,0-22.7,38.4-15.3,37.5c7.4-0.9,32.9-39.8,32.9-39.8
			s37.5-6.9,43.5,15.3c6,22.2-3.7,33.3-9.3,34.7c-5.6,1.4-41.2,0.9-40.3,5.6c0.9,4.6,25,12,38.4,7.9c0,0-14.8,36.6-34.3,34.7
			s-25.5-13.9-37.5-14.8c-12-0.9-20.8,2.3-14.8,5.6c6,3.2,26.4,1.1,36.1,9.3c9.7,8.3,17.6,13.4-0.5,17.1c-18.1,3.7-50.5,1.4-57-12.5
			L1706,853.2z"/>
		<path clip-path="url(#SVGID_54_)" fill="#009444" d="M1814.4,786.5c0,0-97.2,31.5-108.3,66.7c0,0,0.5,11-9.2,29.1
			c0,0-15,27.5-6.5,55.2l3.9-1c0,0-3.4-27.5,3-43.4c0.3-0.6,0.6-1.4,1.1-2.5c1.2-2.3,1.9-3.9,2.4-5.2c3.5-7.1,8.5-16.4,11.8-18.3
			C1712.5,867.1,1690.8,836.5,1814.4,786.5"/>
		<path clip-path="url(#SVGID_54_)" fill="#8DC63F" d="M1720.9,813.2c0,0-10.5,27.8-15,29.4c-4.5,1.6,4.3-25.5,4.3-25.5
			c-9.2,1.1-29.5,17.2-29.5,17.2s7.7,28,3,28.5c-4.8,0.4-5.6-25.1-5.6-25.1c-8.1,4.5-13.9,16.4-13.9,16.4c-6.5,18.7,17.9,26,17.9,26
			s2.5,9.8-1.1,22.4c0,0-6.2,16.3,3,32.4l2.3-1.2c0,0-6-16.9-4.1-27.7c0.1-0.4,0.2-0.9,0.3-1.5c0.4-1.6,0.7-2.7,0.8-3.5
			c1.2-4.9,3-11.4,4.8-13.1c0,0-0.3-0.3-0.7-1c0.2,0.3,0.5,0.6,0.7,1c6,7.8,26.5,4.7,37.3-0.1c10.8-4.8,5.1-6.9-2.1-10.7
			c-7.2-3.8-19.6,0.4-23.8-0.8c-4.2-1.2,0.8-4.4,8.5-5.5c7.6-1.1,13.1,5.6,25.5,4.1c12.4-1.5,16.6-26.4,16.6-26.4
			c-7.8,4.5-23.9,3.2-25.1,0.4c-1.2-2.8,21.1-7.4,24.4-9s7.8-9.9,1-23C1743.3,803.6,1720.9,813.2,1720.9,813.2"/>
		<path clip-path="url(#SVGID_54_)" fill="#8B5E3C" d="M1615.8,929.5c0,37.6,30.5,68,68,68s68-30.5,68-68H1615.8z"/>
		<path clip-path="url(#SVGID_54_)" fill="#A97C50" d="M1700.6,997c-2.8,0.3-5.6,0.5-8.5,0.5c-37.6,0-68-30.5-68-68h16.9
			C1641,964.2,1667,992.9,1700.6,997"/>
		<path clip-path="url(#SVGID_54_)" fill="#8B5E3C" d="M1744.4,992.6h-121.1c-4.6,0-8.4,3.8-8.4,8.4h137.9
			C1752.8,996.4,1749.1,992.6,1744.4,992.6"/>
		<rect x="1613.6" y="929.5" clip-path="url(#SVGID_54_)" fill="#A97C50" width="139.8" height="2.1"/>
	</g>
	<g clip-path="url(#SVGID_2_)">
		<text transform="matrix(1 0 0 1 740.1831 270.0449)" font-family="'MyriadPro-Regular'" font-size="123.5801">A</text>
	</g>
	<g clip-path="url(#SVGID_2_)">
		<text transform="matrix(1 0 0 1 815.4434 270.0449)" font-family="'MyriadPro-Regular'" font-size="123.5801">bout us</text>
	</g>
	<g clip-path="url(#SVGID_2_)">
		<defs>
			<rect id="SVGID_55_" width="1920" height="1080"/>
		</defs>
		<clipPath id="SVGID_56_">
			<use xlink:href="#SVGID_55_"  overflow="visible"/>
		</clipPath>
		<path clip-path="url(#SVGID_56_)" fill="#492E1F" d="M768.5,626.1c-1.7-3.4,38.2-15.5,38.8,17.8c0,0,74.7-1.8,39.1-43.5
			C834,586,835.2,574,835.6,562.9c0.4-11.1-7.7-43.4-35.4-40.1c0,0-7.2-2.9-16.3,1.7C763.4,535.2,717.3,638.4,768.5,626.1"/>
		<path clip-path="url(#SVGID_56_)" fill="#FEF8BA" d="M890.7,663.3c0,0,4.9-7.4,8.8-7.6c3.9-0.1,11.2-2.2,10.6-0.7
			c-0.6,1.5-5.1,1.6-5.5,2.5c-0.4,0.9,6.7,2.2,8.7,2.3c2,0.1,6.8,0,6.7,1c-0.1,1-8.6,5.2-14.6,4.6c-6-0.6-13.4,1.7-13.4,1.7
			L890.7,663.3z"/>
		<path clip-path="url(#SVGID_56_)" fill="#B5D79A" d="M892.8,671.8c0,0-10.2,13.9-23.8,19.9c0,0,0,0,0,0c-4.8,2.1-10,3.3-15.4,2.5
			c-3.9-0.6-7.5-2-10.8-3.8c-6.2-3.5-11.3-8.7-15.1-13.4c-1.1-1.4-2.2-2.8-3-4.1c-2.9-4.1-4.4-7.2-4.4-7.2l3.5-59.1
			c0,0,12.4,2.9,16,8.4c3.6,5.5,18.9,49.4,21.5,50.8c2.6,1.3,30.1-4.9,30.1-4.9S895.2,665.3,892.8,671.8"/>
		<path clip-path="url(#SVGID_56_)" fill="#414042" d="M717.9,962c0,0-8.4,7.6-6.7,13.1c1.6,5.4,9.2,9.1,10.2,15.7
			c1,6.6,5.1,10.3,8.8,10.3h17.5c0,0,2.7-4.7-3.8-6.1c-6.5-1.4-9-9.2-8.6-16.4c0.4-7.2-0.6-16.9-0.6-16.9l-13.9-3.2L717.9,962z"/>
		<path clip-path="url(#SVGID_56_)" fill="#414042" d="M788.8,965.2c0,0-3,32.4,0.7,34.2l47.1-0.1c0,0,0-5.4-7.6-6.6
			c-7.6-1.2-20.8-5.6-23.1-15.5C803.6,967.4,788.8,965.2,788.8,965.2"/>
		<path clip-path="url(#SVGID_56_)" fill="#A5C58D" d="M842.8,690.4c-6.2-3.5-11.3-8.7-15.1-13.4c-1.1-1.4-2.2-2.8-3-4.1
			c2.6-12.3,6.4-29.1,5.6-18.4C829.2,668.3,840,686,842.8,690.4"/>
		<path clip-path="url(#SVGID_56_)" fill="#FEF8BA" d="M755.3,732.9c9.7-21.7,15.6-27.9,14.5-34.7c-0.8-5,2.6-93.5,2.6-93.5
			c1.1-0.4,3.5-0.7,4.7-1c4-0.9,7.3-3.7,8.6-7.5c1.6-4.6,3-11.4,2.9-20l1.2,0.2l20.9,4.1c0,0-0.5,6.6-0.5,12.7c0,0.1,0,0.1,0,0.2
			c0,5.4,3.5,10.1,8.7,11.6c2.6,0.8,4.9,1.4,4.9,1.4s7.7,21.9,9.1,44.3c1.5,22.5-13.9,32.2,0.1,77.1
			C847.3,773.9,749.9,744.9,755.3,732.9"/>
		<path clip-path="url(#SVGID_56_)" fill="#DCD7A3" d="M810.7,580.7c0,0-0.5,6.6-0.5,12.7c-11.7-0.3-17.8-11-20.4-16.9L810.7,580.7z
			"/>
		<path clip-path="url(#SVGID_56_)" fill="#FEF8BA" d="M814.6,586.5c0,0-27.6,0.5-27.6-16.7c0-17.2-3.6-28.7,14-29.7
			c17.6-1,21.1,5.5,22.5,11.3C824.8,557,821.7,586,814.6,586.5"/>
		<path clip-path="url(#SVGID_56_)" fill="#492E1F" d="M813.5,539.6c0,0-7.6,20.2-19.2,23.2c-11.6,3-16.6-0.1-16.6-0.1
			s8.9-7.1,10.7-19.4C788.5,543.2,807.8,530,813.5,539.6"/>
		<path clip-path="url(#SVGID_56_)" fill="#492E1F" d="M811.7,541.2c0,0,5.6,2.1,7.9,6.2c2.3,4,4.2,9.3,3.7,15.8
			c0,0,5.7-13.7-0.7-21.5C815.8,533.5,811.7,541.2,811.7,541.2"/>
		<path clip-path="url(#SVGID_56_)" fill="#B5D79A" d="M752.6,643.9c0,0-0.7,9.9,0,21.8c0.5,7.9,8.4,18.4,9.5,21
			c2.8,6.5,6,7.6,6,7.6l24.7,6.1l8.7,2.1l27.4-8.2c0,0,12.5-34.8,7.5-54.4c-5-19.6-12.7-33.2-12.7-33.2s-22.4,21.9-51.5-1.9
			L752.6,643.9z"/>
		<path clip-path="url(#SVGID_56_)" fill="#F8CBA6" d="M759.8,668.8c0.5,7.9,1.2,15.2,2.3,17.8c2.8,6.5,6,7.6,6,7.6l24.7,6.1
			l10.7-3.2c0,0-35.8-5.4-31.9-36.2L759.8,668.8z"/>
		<path clip-path="url(#SVGID_56_)" fill="#1F3966" d="M827.2,699.5c0,0,13.6,42.2,14.4,56.6c0.9,14.4-25.9,204.2-27,210.9
			c-1,6.2-8.8,10.2-8.8,10.2s-3.6,2.1-8.7,0.7c-7.1-2-9.3-4.4-9.3-4.4s-10.6-135.4-4-183.8c6.5-48.4,6.6-90.2,6.6-90.2H827.2z"/>
		<path clip-path="url(#SVGID_56_)" fill="#254790" d="M769.7,698.3c0,0-20.7,27.8-22.6,46.5c-1.9,18.8-3,84.7-7.1,103
			c-4.1,18.3-19.2,53.5-19.2,110.6c0,0,1.6,3.3,6.4,5c1.6,0.6,3.6,1.1,5.6,1.6c4,0.9,8.1-1,9.9-4.7c10.2-20.6,42.7-86.9,44.4-100.6
			c1.2-9.7,11.4-74.2,33.8-112c5.4-9.1-3.3-45.2-3.3-45.2L769.7,698.3z"/>
		<path clip-path="url(#SVGID_56_)" fill="#1F3966" d="M829.4,693c0,0-5.4,4.3-16.3,4.5c-12.9,0.3-44.9-3.3-44.9-3.3s-1.4,4-1.4,8.2
			c0,0,39.1,9.9,61.8,1.4C828.6,703.8,831.5,698.3,829.4,693"/>
		<path clip-path="url(#SVGID_56_)" fill="#FFFFFF" d="M810.3,702c0-3.7,2.6-6.7,5.9-6.7s5.9,3,5.9,6.7s-2.6,6.7-5.9,6.7
			S810.3,705.7,810.3,702 M812.3,702c0,2.6,1.8,4.7,3.9,4.7c2.2,0,3.9-2.1,3.9-4.7s-1.8-4.7-3.9-4.7
			C814,697.3,812.3,699.4,812.3,702"/>
	</g>
	<g clip-path="url(#SVGID_2_)">
		<text transform="matrix(1 0 0 1 793.5874 663.751)" fill="#2E358D" font-family="'Comfortaa-Bold'" font-size="6.6281">a</text>
	</g>
	<g clip-path="url(#SVGID_2_)">
		<text transform="matrix(1 0 0 1 798.0615 663.751)" fill="#2E358D" font-family="'Comfortaa-Bold'" font-size="6.6281">r</text>
	</g>
	<g clip-path="url(#SVGID_2_)">
		<text transform="matrix(1 0 0 1 801.0176 663.751)" fill="#2E358D" font-family="'Comfortaa-Bold'" font-size="6.6281">celsheba</text>
	</g>
	<g clip-path="url(#SVGID_2_)">
		<defs>
			<polygon id="SVGID_57_" points="786.7,658.6 791.6,658.6 791.6,647.5 786.7,642.5 			"/>
		</defs>
		<clipPath id="SVGID_58_">
			<use xlink:href="#SVGID_57_"  overflow="visible"/>
		</clipPath>
		
			<radialGradient id="SVGID_59_" cx="0" cy="1080" r="1" gradientTransform="matrix(12.7289 0 0 -12.7289 789.2776 14401.3203)" gradientUnits="userSpaceOnUse">
			<stop  offset="0" style="stop-color:#00A9E5"/>
			<stop  offset="1" style="stop-color:#2E358D"/>
		</radialGradient>
		<rect x="786.7" y="642.5" clip-path="url(#SVGID_58_)" fill="url(#SVGID_59_)" width="4.9" height="16"/>
	</g>
	<g clip-path="url(#SVGID_2_)">
		<defs>
			<path id="SVGID_60_" d="M786.8,642.5l4.9,5h6.3c0,0,1.8,0.5,1.8,2.4c0,1.8-1.8,2.4-1.8,2.4h-5.4c0,0-5.3,0-5.8,5.5l0,3.4l5,5V659
				c0,0,0.2-1.7,2.1-1.7c1.9,0,5.3,0,5.3,0s5.9,0,5.8-7.1s-7.4-7.6-7.4-7.6H786.8z"/>
		</defs>
		<clipPath id="SVGID_61_">
			<use xlink:href="#SVGID_60_"  overflow="visible"/>
		</clipPath>
		
			<linearGradient id="SVGID_62_" gradientUnits="userSpaceOnUse" x1="0" y1="1079.8147" x2="1" y2="1079.8147" gradientTransform="matrix(17.5354 -14.7139 -14.7139 -17.5354 16675.4492 19596.6211)">
			<stop  offset="0" style="stop-color:#3F75B7"/>
			<stop  offset="0.6089" style="stop-color:#3F75B7"/>
			<stop  offset="1" style="stop-color:#2E358D"/>
		</linearGradient>
		<polygon clip-path="url(#SVGID_61_)" fill="url(#SVGID_62_)" points="775.1,652.3 797.4,633.6 816.6,656.4 794.3,675.1 		"/>
	</g>
	<g clip-path="url(#SVGID_2_)">
		<defs>
			<path id="SVGID_63_" d="M804.8,651.6c0,0,0-0.1,0-0.2C804.9,651.4,804.8,651.5,804.8,651.6 M786.8,642.5l4.9,5h6.3
				c6.7,0,6.9,3.1,6.9,3.9c1-8.2-7.3-8.8-7.3-8.8H786.8z"/>
		</defs>
		<clipPath id="SVGID_64_">
			<use xlink:href="#SVGID_63_"  overflow="visible"/>
		</clipPath>
		
			<radialGradient id="SVGID_65_" cx="0" cy="1080" r="1" gradientTransform="matrix(14.1857 0 0 -14.1857 802.2839 15967.4561)" gradientUnits="userSpaceOnUse">
			<stop  offset="0" style="stop-color:#00A9E5"/>
			<stop  offset="1" style="stop-color:#2E358D"/>
		</radialGradient>
		<rect x="786.8" y="642.5" clip-path="url(#SVGID_64_)" fill="url(#SVGID_65_)" width="19.1" height="9"/>
	</g>
	<g clip-path="url(#SVGID_2_)">
		<defs>
			<path id="SVGID_66_" d="M786.8,661.2l5,5V659c0.3-1.7,2.1-1.7,2.1-1.7C789.1,657.2,786.8,661.2,786.8,661.2"/>
		</defs>
		<clipPath id="SVGID_67_">
			<use xlink:href="#SVGID_66_"  overflow="visible"/>
		</clipPath>
		
			<linearGradient id="SVGID_68_" gradientUnits="userSpaceOnUse" x1="0" y1="1080.0818" x2="1" y2="1080.0818" gradientTransform="matrix(6.1025 -5.1206 -5.1206 -6.1025 6319.1338 7254.4473)">
			<stop  offset="0" style="stop-color:#3F75B7"/>
			<stop  offset="1" style="stop-color:#2E358D"/>
		</linearGradient>
		<polygon clip-path="url(#SVGID_67_)" fill="url(#SVGID_68_)" points="782.4,660.9 790.9,653.8 798.2,662.5 789.7,669.6 		"/>
	</g>
	<g clip-path="url(#SVGID_2_)">
		<defs>
			<rect id="SVGID_69_" width="1920" height="1080"/>
		</defs>
		<clipPath id="SVGID_70_">
			<use xlink:href="#SVGID_69_"  overflow="visible"/>
		</clipPath>
		
			<rect x="743.4" y="654.3" transform="matrix(-0.7542 -0.6567 0.6567 -0.7542 897.1141 1717.1604)" clip-path="url(#SVGID_70_)" fill="#F47621" width="53.1" height="72.7"/>
		<path clip-path="url(#SVGID_70_)" fill="#FEF8BA" d="M777.2,700.8c0,0,14.7,1.7,14.6,5.2c0,3.5-3.7,10.6-5.5,11
			c-1.8,0.3-11.9-9.7-11.9-9.7L777.2,700.8z"/>
		<path clip-path="url(#SVGID_70_)" fill="#B5D79A" d="M772.3,604.7c0,0-19.6,1.4-27.1,19.6s-21.8,48.9-21.8,54.1
			c0,5.2,8,21.1,50.7,30.2c0,0,4.4-4.7,4.2-8.3c0,0-26.7-22.9-26.6-25.6c0.1-5.1,4.4-11.8,27.8-35.2
			C785.9,633.1,772.3,604.7,772.3,604.7"/>
		<polygon clip-path="url(#SVGID_70_)" fill="#A5C58D" points="765.4,641.8 755,667.4 769.2,651 		"/>
		<polygon clip-path="url(#SVGID_70_)" fill="#ABD698" points="1227.6,636.2 1235.5,638.2 1290,638.5 1281.6,636.2 		"/>
		<path clip-path="url(#SVGID_70_)" fill="#D1CD9C" d="M255.9,545.4c0,0,3.3,10.5,20.1,15.8c0,0-1.3,4.2-8.6,16.3
			C267.3,577.5,254,566.2,255.9,545.4"/>
		<path clip-path="url(#SVGID_70_)" fill="#00AEEF" d="M267.9,578.5c0,0,8.3,4.6,2.2,11.4c0,0-34.6-19.8-30.1-29.7
			c0,0,1.9-2.7,4.8-2.2C244.8,558.1,238.5,563.6,267.9,578.5"/>
		<path clip-path="url(#SVGID_70_)" fill="#00AEEF" d="M271.9,587c0,0,7,13.9,6.4,19.2l1.1-1.2c0,0-2.1-10.5-7.1-19L271.9,587z"/>
	</g>
</g>
<rect x="-286" y="-24" fill="none" width="2332" height="1158"/>
</svg>
