<svg width="492" height="714" viewBox="0 0 492 714" fill="none" xmlns="http://www.w3.org/2000/svg">
<rect width="492" height="714" rx="30" fill="url(#paint0_linear)"/>
<path d="M443.505 250.1C444.505 248.7 445.905 248.5 447.505 248.3C447.705 248.3 447.705 247.9 447.505 247.8C445.805 247.2 444.005 248.5 443.205 249.9C443.005 250.1 443.305 250.3 443.505 250.1Z" fill="#985D3F"/>
<path d="M443.205 250.1C448.005 248.9 452.505 251.1 453.605 256.1C454.605 260.6 453.005 266 447.905 266.7C447.605 266.7 447.705 267.2 448.005 267.2C453.605 267.3 455.405 260.3 454.305 255.8C453.105 251 447.905 247 443.005 249.6C442.805 249.9 443.005 250.2 443.205 250.1Z" fill="#985D3F"/>
<path d="M437.305 250.9C437.305 250.9 437.305 248.1 440.105 247.5C442.905 246.9 443.905 249.7 443.905 249.7C443.905 249.7 447.705 248.7 451.205 255.2C454.705 261.7 450.805 268.1 447.505 269.4C444.305 270.7 440.505 268.4 440.505 268.4L437.305 250.9Z" fill="#985D3F"/>
<path d="M437.105 283.1C447.305 286.1 446.605 267.4 443.705 262.4C443.505 262.1 443.005 262.3 443.105 262.6C445.505 268.7 447.205 282.8 437.105 282.7C437.005 282.7 436.905 283 437.105 283.1Z" fill="#B37047"/>
<path d="M472.305 386.4C472.305 386.4 469.805 388.3 466.705 391C466.705 391 467.905 392.5 469.605 396C470.705 398.3 472.505 397 475.605 396.2C477.405 395.7 479.405 393.9 478.905 392.6C478.405 391.2 475.405 390 472.305 386.4Z" fill="url(#paint1_linear)"/>
<path d="M413.105 507.5C413.805 510.6 415.105 512.9 414.105 515.5C413.005 518.3 404.005 519.3 403.905 520.9C403.805 523 412.605 521.5 416.105 521.5C419.705 521.5 420.105 522 420.605 521C421.405 519.5 420.705 517.6 419.205 513.7C418.605 512.1 418.105 509.8 418.005 506.5L413.105 507.5Z" fill="url(#paint2_linear)"/>
<path d="M420.605 521C421.405 519.5 420.705 517.6 419.205 513.7C418.605 512.1 418.105 510 418.005 506.8L413.505 508.7L413.605 509.3C414.005 510.6 414.305 511.8 414.405 512.9C415.005 512.9 416.205 513.1 417.505 512.6C417.505 512.6 417.705 513.8 418.205 515.1C418.705 516.4 420.305 517.9 419.705 519.8C419.305 521.1 415.305 520.2 413.305 520.5C412.705 520.6 412.505 521.1 412.605 521.7C413.905 521.6 415.205 521.5 416.105 521.5C419.705 521.5 420.105 522 420.605 521Z" fill="#D37A85"/>
<path d="M421.505 521.1H412.405C412.005 521.1 411.705 521.4 411.705 521.8C411.705 522.2 412.005 522.5 412.405 522.5H421.505C421.905 522.5 422.205 522.2 422.205 521.8C422.205 521.4 421.905 521.1 421.505 521.1Z" fill="#363344"/>
<path d="M402.805 521.3C402.705 518.8 408.005 518.2 411.605 516.4C412.305 516.3 414.805 518.3 414.905 522.4C414.905 522.4 406.505 522.4 404.605 522.4C402.805 522.4 402.805 521.3 402.805 521.3Z" fill="#363344"/>
<path d="M429.205 507C429.405 510.1 430.305 512.6 428.905 515C427.405 517.6 418.605 519.3 418.505 520.9C418.405 523 427.205 521.5 430.705 521.5C434.305 521.5 434.705 522 435.205 521C436.005 519.5 435.205 518.1 434.305 514.1C433.905 512.4 433.805 510.1 434.305 506.8L429.205 507Z" fill="url(#paint3_linear)"/>
<path d="M435.205 521C436.005 519.5 435.205 518.1 434.305 514.1C434.005 512.7 433.905 511 434.105 508.6L429.405 508.9C429.505 509.7 429.605 510.5 429.705 511.3C430.305 511.5 431.505 511.8 432.905 511.7C432.905 511.7 432.905 513.9 433.305 516.1C433.705 518.2 434.205 520.2 431.405 520.5C428.605 520.7 425.805 520.6 425.805 520.6L426.405 521.8C428.105 521.7 429.605 521.5 430.705 521.5C434.305 521.5 434.705 522 435.205 521Z" fill="#D37A85"/>
<path d="M399.105 273.8C400.305 276.7 401.605 279.3 401.005 282.6C400.605 285 399.005 286.8 398.805 289.3C398.605 291.8 399.405 294.2 401.505 295.6C401.805 295.8 402.105 295.4 401.905 295.1C397.305 290.3 401.805 286.4 402.105 281.3C402.305 278.6 400.805 275.8 399.505 273.6C399.305 273.5 399.005 273.6 399.105 273.8Z" fill="#B37047"/>
<path d="M401.505 278.2C401.505 278.2 395.205 274.1 396.105 264.6C397.005 255.1 402.105 250.7 409.005 247.6C415.905 244.5 421.705 245 424.205 247.5C424.205 247.5 430.205 243.5 437.005 250C440.305 253.2 444.005 259.2 444.805 264.8C445.905 272.4 444.405 279.7 438.905 281.5C438.905 281.5 438.605 291.6 425.305 293.5C420.005 294.3 401.505 278.2 401.505 278.2Z" fill="#B37047"/>
<path d="M433.705 277.3L427.405 276.7L421.905 292.9C423.205 293.4 424.205 293.7 425.005 293.5C437.905 291.5 439.605 277.4 433.705 277.3Z" fill="#985D3F"/>
<path d="M400.705 308.2C395.305 311.2 393.005 318 388.005 326.2C383.105 334.4 380.805 335.9 377.905 339.8C374.905 343.7 372.405 358.9 382.105 356.8C393.805 354.2 400.705 342.5 401.505 340C402.405 337.3 400.705 308.2 400.705 308.2Z" fill="#FFB655"/>
<path d="M456.105 354.8C460.705 365.2 465.005 375.2 472.405 386.5L466.905 391.2C466.905 391.2 451.605 374.7 445.105 360.2L456.105 354.8Z" fill="url(#paint4_linear)"/>
<path d="M392.605 375.5C392.605 375.5 387.305 400.8 392.505 437.8C396.905 469.7 411.705 511.2 411.705 511.2C411.705 511.2 416.405 511.8 420.905 508.9C420.905 508.9 420.205 484.5 418.405 475C416.705 465.5 413.905 458.6 412.805 453.2C411.805 447.8 418.105 411.7 418.105 411.7C418.105 411.7 418.705 439.1 420.005 456.1C421.205 471 425.405 497.5 426.905 509.1C426.905 509.1 431.605 512.5 437.005 509.1C437.005 509.1 439.305 487.6 439.605 476C439.905 464.4 438.505 457.8 437.405 448.6C436.305 439.4 445.605 411.2 447.005 397.8C448.205 386.3 444.205 373.3 445.005 375.2L392.605 375.5Z" fill="#E7DEE8"/>
<path d="M392.505 437.8C396.905 469.7 411.705 511.2 411.705 511.2C411.705 511.2 416.605 513.6 420.905 508.9C420.905 508.9 420.205 484.5 418.405 475C416.705 465.5 413.905 458.6 412.805 453.2C411.805 447.8 418.105 411.7 418.105 411.7L417.605 403.4L421.305 401L415.505 399.8L415.405 383.1L397.705 375.5H392.705C392.605 375.5 387.305 400.8 392.505 437.8Z" fill="#C5BBC7"/>
<path d="M438.505 275.1C438.505 275.1 427.505 275.2 420.405 270.2C413.005 265.1 411.005 255.4 411.005 255.4C411.005 255.4 403.705 256.4 400.505 262.3C395.305 271.8 403.305 281.6 403.305 281.6L432.505 283.3L433.505 278.1C436.005 277.4 437.505 276.3 438.505 275.1Z" fill="#985D3F"/>
<path d="M428.505 287C428.505 287 415.405 291.2 412.605 295.7C418.205 300.2 410.805 304.9 406.305 306.2C406.305 306.2 406.205 316.7 416.705 317.2C427.205 317.6 433.405 306 433.405 306C428.905 305 425.905 302.2 425.005 299.1C423.705 294.1 426.405 290.3 428.505 287Z" fill="url(#paint5_linear)"/>
<path d="M412.705 302.7C414.505 305.9 420.605 314.4 431.805 308.5C432.905 307 433.505 305.9 433.505 305.9C429.005 304.9 426.005 302.1 425.105 299C423.805 294.1 426.505 290.3 428.505 287C428.505 287 415.405 291.2 412.605 295.7C415.705 298.2 414.805 300.7 412.705 302.7Z" fill="#D37A85"/>
<path d="M432.605 278C430.705 277.8 429.305 281.5 429.305 281.5C426.205 282.1 427.305 275.2 427.305 275.2C412.305 270.1 409.905 259.2 409.905 259.2C402.705 260.4 401.605 268.6 401.605 268.6C397.105 289.9 407.905 298.7 411.505 299.3C415.005 299.8 423.005 296.7 428.405 287.8C431.405 288.5 434.205 286.8 435.305 284.1C436.405 281.5 435.905 278.2 432.605 278Z" fill="url(#paint6_linear)"/>
<path d="M405.805 288.9C405.805 288.9 410.705 290 417.305 288.4C417.305 288.4 415.905 293.1 411.505 293.2C407.605 293.3 405.805 288.9 405.805 288.9Z" fill="#4B3C59"/>
<path d="M407.805 289.8C407.805 289.8 411.505 290.4 416.105 289.3C416.105 289.3 415.105 292 411.605 292.3C408.805 292.4 407.805 289.8 407.805 289.8Z" fill="#FFF4E9"/>
<path d="M410.205 278.9C410.905 276.8 410.605 274.4 409.205 272.4C410.105 273.2 410.805 274.4 411.105 275.5C411.405 276.7 411.605 278 411.205 279.2C410.605 281.5 408.905 283.2 406.905 284.4C407.605 285.5 408.805 286.5 410.205 287C407.605 286.7 406.205 285.5 404.605 283.9C407.305 282.9 409.505 281.4 410.205 278.9Z" fill="#D37A85"/>
<path d="M414.605 270.3C414.405 271.6 416.305 270.7 419.905 272.1C422.105 272.9 423.905 274.4 424.205 274.2C424.605 273.9 423.505 272.6 420.405 270.9C417.905 269.6 414.805 269.4 414.605 270.3Z" fill="#985D3F"/>
<path d="M407.805 270C407.905 271.2 406.205 270.5 403.905 271.3C402.305 271.9 401.105 272.9 400.705 272.7C400.405 272.5 401.005 271.2 403.105 270.2C405.005 269.3 407.705 269.3 407.805 270Z" fill="#985D3F"/>
<path d="M417.932 274.919C416.996 274.847 416.165 275.726 416.077 276.882C415.988 278.039 416.675 279.034 417.611 279.106C418.547 279.178 419.378 278.299 419.467 277.143C419.556 275.986 418.869 274.99 417.932 274.919Z" fill="#4B3C59"/>
<path d="M421.905 278.5C421.605 276.8 420.305 275.1 418.005 274.7C416.705 274.4 415.405 275.9 415.605 276.8C415.605 276.8 416.605 275.8 418.005 276.2C419.405 276.5 421.905 278.5 421.905 278.5Z" fill="#4B3C59"/>
<path d="M420.305 276.2C420.305 276.2 421.905 275.4 422.005 275.6C422.105 275.8 420.905 276.8 420.905 276.8L420.305 276.2Z" fill="#4B3C59"/>
<path d="M421.005 276.9C421.005 276.9 422.805 276.6 422.905 276.7C422.905 276.8 421.405 277.6 421.405 277.6L421.005 276.9Z" fill="#4B3C59"/>
<path d="M402.505 276.3C402.405 277.4 403.005 278.3 403.805 278.4C404.605 278.5 405.305 277.6 405.405 276.5C405.505 275.4 404.905 274.5 404.105 274.4C403.305 274.4 402.605 275.2 402.505 276.3Z" fill="#4B3C59"/>
<path d="M407.205 277.8C407.205 276.2 405.905 274.3 404.205 274.2C402.805 274 401.705 275.7 401.905 276.6C401.905 276.6 402.805 275.4 404.205 275.6C405.805 275.8 407.205 277.8 407.205 277.8Z" fill="#4B3C59"/>
<path d="M403.005 275.2C403.005 275.2 401.705 274.2 401.605 274.3C401.505 274.4 402.505 275.7 402.505 275.7L403.005 275.2Z" fill="#4B3C59"/>
<path d="M402.305 275.9C402.305 275.9 400.705 275.3 400.605 275.4C400.505 275.5 401.905 276.6 401.905 276.6L402.305 275.9Z" fill="#4B3C59"/>
<path d="M430.879 285.542C431.844 285.952 433.135 285.089 433.761 283.615C434.387 282.141 434.111 280.613 433.145 280.203C432.179 279.793 430.889 280.655 430.263 282.13C429.637 283.604 429.913 285.132 430.879 285.542Z" fill="#D27A84"/>
<path d="M473.605 392.6C471.305 392 468.605 390.8 467.305 390C466.105 389.2 461.205 383.4 457.905 378.3C454.505 373.2 450.905 365 450.905 365C455.705 362.5 457.505 357.8 457.505 357.8L457.405 357.6C457.105 356.9 456.805 356.2 456.505 355.5L448.105 358.7L445.105 360.2C451.305 373.9 465.405 389.6 466.805 391.1C466.805 391.1 468.005 392.6 469.705 396.1C470.805 398.4 472.605 397.1 475.705 396.3C475.905 396.2 476.205 396.2 476.405 396L473.605 392.6Z" fill="#D37A85"/>
<path d="M440.105 308C447.105 310.7 449.805 338.4 458.505 356.3C458.505 356.3 455.105 362.3 445.305 364.3C445.305 364.3 437.305 352.2 434.605 337.7C432.305 325.1 440.105 308 440.105 308Z" fill="#FFB655"/>
<path d="M361.305 306.2C364.705 309 368.705 318.9 372.305 325.9C375.905 332.9 378.505 335.7 382.105 341.1C385.705 346.5 386.505 353.8 382.505 356C378.505 358.2 373.305 355.3 368.505 346C363.705 336.8 361.405 319.3 358.905 314.7L361.305 306.2Z" fill="url(#paint7_linear)"/>
<path d="M447.005 382.6C444.805 367.4 436.405 356 436.205 349.1C436.005 341.1 438.505 337.8 440.405 327.9C441.505 321.9 444.705 310.4 440.105 308C434.705 305.2 433.205 305.5 433.205 305.5C433.205 305.5 426.805 315.6 416.705 315.3C406.605 315.1 406.905 305.6 406.905 305.6C406.905 305.6 403.305 306.6 400.605 308.1C400.605 308.1 395.305 321.3 395.505 328.5C395.705 335.8 401.905 345 402.005 349.1C402.205 357.6 396.205 357 391.005 382.6C398.905 390.2 438.905 387.8 447.005 382.6Z" fill="#FFB655"/>
<path d="M424.605 247.9C422.005 243.3 417.505 242.7 412.805 244.4C407.905 246.1 401.505 250 399.905 255.2C399.805 255.5 400.305 255.8 400.505 255.4C402.205 251.4 405.805 249 409.505 246.9C414.705 243.9 420.105 242.8 424.105 248.2C424.305 248.5 424.805 248.2 424.605 247.9Z" fill="#B37047"/>
<path d="M436.105 521.1H427.005C426.605 521.1 426.305 521.4 426.305 521.8C426.305 522.2 426.605 522.5 427.005 522.5H436.105C436.505 522.5 436.805 522.2 436.805 521.8C436.805 521.4 436.505 521.1 436.105 521.1Z" fill="#363344"/>
<path d="M417.505 521.3C417.405 518.8 422.705 518.2 426.305 516.4C427.005 516.3 429.505 518.3 429.605 522.4C429.605 522.4 421.205 522.4 419.305 522.4C417.405 522.4 417.505 521.3 417.505 521.3Z" fill="#363344"/>
<path d="M464.505 400.2L467.005 391.8C467.205 391.2 467.805 390.9 468.305 391.1L486.805 396.5C487.405 396.7 487.705 397.3 487.505 397.8L485.005 406.2C484.805 406.8 484.205 407.1 483.705 406.9L465.205 401.5C464.605 401.3 464.305 400.7 464.505 400.2Z" fill="#C5BBC7"/>
<path d="M464.905 400L467.305 392C467.405 391.5 467.905 391.2 468.405 391.4L486.505 396.7C487.005 396.8 487.305 397.3 487.105 397.8L484.705 405.8C484.605 406.3 484.105 406.6 483.605 406.4L465.505 401.1C465.105 401 464.805 400.5 464.905 400Z" fill="#ECEAED"/>
<path d="M466.705 401.1L469.305 392.1L485.405 396.8L482.705 405.8L466.705 401.1Z" fill="#363344"/>
<path d="M485.405 396.8L469.305 392.1L466.705 401.1L482.805 405.8L485.405 396.8ZM467.105 400.9L469.605 392.5L485.005 397L482.505 405.4L467.105 400.9Z" fill="#2D2C3A"/>
<path d="M485.005 402.1C485.281 402.1 485.505 401.876 485.505 401.6C485.505 401.324 485.281 401.1 485.005 401.1C484.729 401.1 484.505 401.324 484.505 401.6C484.505 401.876 484.729 402.1 485.005 402.1Z" fill="#2D2C3A"/>
<path d="M476.805 402C478.005 402.3 477.805 406.3 475.705 405.8C474.805 405.6 474.905 404.7 475.005 403.8C475.205 402.6 475.805 401.7 476.805 402Z" fill="#FFB7A7"/>
<path d="M471.205 401C472.205 401.3 471.805 405.1 470.005 404.4C469.205 404.1 469.105 403.4 469.305 402.6C469.505 401.6 470.205 400.7 471.205 401Z" fill="#FFB7A7"/>
<path d="M473.805 401.3C475.005 401.6 474.905 405.9 472.805 405.4C471.905 405.2 471.905 404.3 472.005 403.4C472.205 402.2 472.705 401.1 473.805 401.3Z" fill="#FFB7A7"/>
<path d="M475.405 389.1C477.405 389.9 478.905 391.2 479.605 392.8C480.305 394.5 481.205 396.1 480.105 396.6C478.805 397.2 477.905 394.8 476.705 393.4C476.305 392.9 473.505 393.2 472.605 391.6C471.705 390 473.205 388.3 475.405 389.1Z" fill="url(#paint8_linear)"/>
<path d="M439.705 331.2C439.705 331.2 430.805 340.2 413.305 339.7C400.105 339.4 396.205 333.1 396.205 333.1C397.905 339.3 401.805 345.8 401.905 349.1C402.105 357.6 396.105 357 390.905 382.6C398.805 390.2 438.805 387.7 446.905 382.6C444.705 367.4 436.305 356 436.105 349.1C436.105 342 438.005 338.7 439.705 331.2Z" fill="#FC9642"/>
<path d="M415.905 252.1C418.105 260.3 424.705 266.8 433.005 268.7C433.105 268.7 433.205 268.5 433.105 268.5C425.005 266.1 419.005 260.1 416.605 252C416.405 251.6 415.805 251.8 415.905 252.1Z" fill="#985D3F"/>
<path d="M426.505 261C430.005 264.6 435.405 267.2 440.305 268.4C440.505 268.5 440.605 268.1 440.405 268C437.805 267.1 435.205 266.2 432.805 264.8C430.605 263.6 428.705 262.1 426.605 260.8C426.505 260.7 426.405 260.9 426.505 261Z" fill="#985D3F"/>
<path d="M427.105 253.4C429.005 256.3 432.105 258.7 435.505 259.5C435.605 259.5 435.605 259.4 435.505 259.3C432.205 257.9 429.505 256.1 427.305 253.2C427.305 253.1 427.005 253.3 427.105 253.4Z" fill="#985D3F"/>
<path d="M426.705 249.3C430.205 249.9 432.505 251.5 435.005 253.9C435.105 254 435.305 253.9 435.205 253.7C433.705 250.7 430.005 248.9 426.705 248.8C426.505 248.9 426.505 249.3 426.705 249.3Z" fill="#985D3F"/>
<path d="M435.005 305.8C433.705 305.4 433.205 305.5 433.205 305.5C433.205 305.5 426.805 315.6 416.705 315.3C406.605 315.1 406.905 305.6 406.905 305.6C406.905 305.6 405.905 305.9 404.505 306.4C404.805 308.8 406.505 316.2 413.605 317.5L415.405 323.1L417.905 317.5C417.905 317.6 430.305 316.5 435.005 305.8Z" fill="#FFD68D"/>
<path d="M382.505 356C385.805 354.1 387.705 346.8 379.805 337.5C387.705 348.1 384.205 355.8 379.705 355.5C374.905 355.2 370.605 350.7 366.005 334.5C361.405 318.3 358.905 314.7 358.905 314.7C361.405 319.3 363.705 336.8 368.505 346C373.205 355.2 378.505 358.2 382.505 356Z" fill="#D37A85"/>
<path d="M396.205 517.8H362.205V523.4H396.205V517.8Z" fill="#CC9767"/>
<path d="M225.405 517.8H52.9053V523.4H225.405V517.8Z" fill="#CC9767"/>
<path d="M364.805 523.3H223.205V209.2C223.205 207.2 224.805 205.6 226.805 205.6H361.205C363.205 205.6 364.805 207.2 364.805 209.2V523.3Z" fill="#CC9767"/>
<path d="M358.805 523H229.405V214.6C229.405 213.4 230.405 212.3 231.705 212.3H356.705C357.905 212.3 359.005 213.3 359.005 214.6V523H358.805Z" fill="#E8BC8B"/>
<path d="M328.605 348.1C329.705 406.3 329.705 464.8 331.605 522.9H333.405C333.405 467.6 331.505 412.1 330.705 356.8C330.005 309.2 325.705 260 327.505 212.2H324.905C322.605 256.9 327.805 304.2 328.605 348.1Z" fill="#DEB07C"/>
<path d="M324.005 523C322.605 419.6 321.005 315.4 316.805 212.4H315.105C316.005 315.8 318.905 419.7 321.605 523H324.005Z" fill="#DEB07C"/>
<path d="M298.205 523H300.505C301.505 472.1 300.305 420.7 299.905 369.9C299.505 317.5 299.505 264.8 298.105 212.4H295.505C295.805 264.9 297.005 317.4 297.405 369.9C297.905 420.8 297.205 472 298.205 523Z" fill="#DEB07C"/>
<path d="M277.305 523H279.805C281.705 419.4 280.405 315.7 275.605 212.4H274.005C278.005 315.7 279.205 419.4 277.305 523Z" fill="#DEB07C"/>
<path d="M264.005 523H265.705C266.205 470.8 262.305 418.6 260.305 366.7C258.305 315 259.005 263.9 260.405 212.4H257.905C253.005 316.1 262.305 419.3 264.005 523Z" fill="#DEB07C"/>
<path d="M240.205 366.6C242.405 418.7 243.805 470.9 245.905 523H248.105C247.605 470.9 244.105 418.6 242.105 366.6C240.105 315.1 239.805 263.8 239.005 212.3H236.305C235.205 263.5 238.105 315.9 240.205 366.6Z" fill="#DEB07C"/>
<path d="M343.605 374C343.905 424 347.305 473.3 349.505 522.9H352.205C351.505 503.2 349.605 483.5 348.605 463.8C347.005 433.9 346.205 403.9 345.905 373.9C345.405 319.9 347.505 266.1 348.005 212.2H345.905C343.705 266 343.305 320.4 343.605 374Z" fill="#DEB07C"/>
<path d="M341.905 232.8H246.305V366.5H341.905V232.8Z" fill="#CC9767"/>
<path d="M267.605 307.6C266.805 282.7 266.805 257.7 265.205 232.8H264.005C263.905 256.5 265.405 280.3 266.005 303.9C266.605 324.5 270.105 345.8 268.205 366.4H270.105C272.505 347.3 268.305 326.6 267.605 307.6Z" fill="#C78F63"/>
<path d="M271.005 232.8C272.105 277.3 273.305 322.2 276.705 366.5H277.805C277.205 322 274.905 277.3 272.805 232.8H271.005Z" fill="#C78F63"/>
<path d="M290.305 232.8H288.705C287.805 254.7 288.705 276.8 289.005 298.6C289.305 321.2 289.305 343.9 290.505 366.5H292.305C292.205 343.9 291.105 321.2 290.805 298.6C290.605 276.7 291.205 254.7 290.305 232.8Z" fill="#C78F63"/>
<path d="M306.205 232.8H304.305C302.705 277.4 303.705 322 307.605 366.5H308.805C305.605 322 304.605 277.4 306.205 232.8Z" fill="#C78F63"/>
<path d="M316.005 232.8H314.805C314.105 255.2 317.205 277.6 318.805 299.9C320.405 322.2 319.705 344.2 318.605 366.5H320.405C324.705 321.8 317.105 277.4 316.005 232.8Z" fill="#C78F63"/>
<path d="M333.905 299.9C332.205 277.5 331.105 255.1 329.405 232.8H327.905C328.105 255.2 330.805 277.6 332.405 299.9C334.005 322.1 334.105 344.3 334.805 366.5H336.605C337.905 344.4 335.605 321.8 333.905 299.9Z" fill="#C78F63"/>
<path d="M256.305 296.9C256.005 275.4 253.305 254.2 251.705 232.8H249.805C250.205 241.8 251.805 250.8 252.605 259.7C253.805 272 254.405 284.4 254.605 296.8C255.005 320.1 253.305 343.2 253.005 366.4H254.405C256.205 343.4 256.605 320 256.305 296.9Z" fill="#C78F63"/>
<path d="M341.905 402H246.305V509.9H341.905V402Z" fill="#CC9767"/>
<path d="M317.605 402H315.605C316.105 415.6 318.305 429.5 318.705 442.6C319.405 465 319.505 487.6 320.705 510H322.305C322.105 488.8 320.905 467.5 320.305 446.2C319.905 431.6 318.105 416.7 317.605 402Z" fill="#C78F63"/>
<path d="M308.905 402C309.705 438 311.505 474 313.305 509.9H315.305C314.405 474 313.405 437.8 311.105 402H308.905Z" fill="#C78F63"/>
<path d="M297.205 451.5C297.005 435 296.905 418.5 296.405 402H294.105C294.505 418.5 295.105 435 295.305 451.5C295.605 470.9 295.105 490.5 295.705 509.9H297.705C298.305 490.5 297.505 470.9 297.205 451.5Z" fill="#C78F63"/>
<path d="M280.205 402H278.805C280.905 437.9 281.505 474 280.405 509.9H282.305C283.405 473.9 282.705 437.9 280.205 402Z" fill="#C78F63"/>
<path d="M266.905 402H264.705C263.605 438 268.605 473.9 270.005 509.9H271.505C271.405 490 268.805 470 267.405 450.2C266.405 434 266.405 418 266.905 402Z" fill="#C78F63"/>
<path d="M252.005 402H249.505C249.805 418.1 251.305 434.4 252.605 450.2C254.105 470.1 255.105 490 256.505 509.9H258.405C257.805 490 255.405 470 254.105 450.2C252.805 434.1 252.405 418 252.005 402Z" fill="#C78F63"/>
<path d="M331.805 453.2C331.505 436.1 332.405 419 333.005 401.9H330.905C330.105 419 329.905 436.2 330.205 453.2C330.405 472.2 332.605 491 334.205 509.9H336.205C335.505 503.4 334.505 496.8 333.905 490.3C332.605 478 332.005 465.6 331.805 453.2Z" fill="#C78F63"/>
<path d="M246.305 232.8V366.5H341.905V232.8H246.305ZM338.305 362.4H250.005V236.9H338.305V362.4Z" fill="#AD7A52"/>
<path d="M246.305 402V509.9H341.905V402H246.305ZM338.305 505.9H250.005V405.9H338.305V505.9Z" fill="#AD7A52"/>
<path d="M356.605 212.3H231.605C230.405 212.3 229.405 213.3 229.405 214.6V523H232.405V217.7C232.405 216.5 233.405 215.5 234.605 215.5H353.705C354.905 215.5 355.905 216.5 355.905 217.7V523H358.905V214.6C358.805 213.4 357.905 212.3 356.605 212.3Z" fill="#AD7A52"/>
<path d="M245.105 393.6C249.468 393.6 253.005 390.063 253.005 385.7C253.005 381.337 249.468 377.8 245.105 377.8C240.742 377.8 237.205 381.337 237.205 385.7C237.205 390.063 240.742 393.6 245.105 393.6Z" fill="#CC9767"/>
<path d="M245.105 391.9C249.468 391.9 253.005 388.363 253.005 384C253.005 379.637 249.468 376.1 245.105 376.1C240.742 376.1 237.205 379.637 237.205 384C237.205 388.363 240.742 391.9 245.105 391.9Z" fill="#F8E0CC"/>
<path d="M237.905 384C237.905 384.2 237.905 384.3 237.905 384.5C241.605 384.2 244.405 381.1 244.405 377.3C244.405 377.1 244.405 377 244.405 376.8C240.805 377.2 237.905 380.2 237.905 384Z" fill="#F8F7F5"/>
<path d="M263.005 390.5H245.005C243.305 390.5 241.905 389.1 241.905 387.4C241.905 385.7 243.305 384.3 245.005 384.3H263.005C264.705 384.3 266.105 385.7 266.105 387.4C266.105 389.1 264.705 390.5 263.005 390.5Z" fill="#CC9767"/>
<path d="M241.805 384.3V391.2C242.805 391.7 243.905 391.9 245.105 391.9C249.405 391.9 252.805 388.5 253.005 384.3H241.805Z" fill="#CFA893"/>
<path d="M263.005 387.1H245.005C243.305 387.1 241.905 385.7 241.905 384C241.905 382.3 243.305 380.9 245.005 380.9H263.005C264.705 380.9 266.105 382.3 266.105 384C266.105 385.7 264.705 387.1 263.005 387.1Z" fill="#F8E0CC"/>
<path d="M263.005 385.5H245.005C243.605 385.5 242.305 384.5 242.005 383.2C241.905 383.5 241.905 383.7 241.905 384C241.905 385.7 243.305 387.1 245.005 387.1H263.005C264.705 387.1 266.105 385.7 266.105 384C266.105 383.7 266.105 383.4 266.005 383.2C265.605 384.5 264.405 385.5 263.005 385.5Z" fill="#D7B49D"/>
<path d="M253.005 383.4H245.105C244.605 383.4 244.305 383 244.305 382.6C244.305 382.1 244.705 381.8 245.105 381.8H253.005C253.505 381.8 253.805 382.2 253.805 382.6C253.805 383 253.405 383.4 253.005 383.4Z" fill="#F8F7F5"/>
<path d="M257.205 383.4H255.505C255.005 383.4 254.705 383 254.705 382.6C254.705 382.1 255.105 381.8 255.505 381.8H257.205C257.705 381.8 258.005 382.2 258.005 382.6C258.105 383 257.705 383.4 257.205 383.4Z" fill="#F8F7F5"/>
<path d="M294.105 293.8C296.922 293.8 299.205 291.293 299.205 288.2C299.205 285.107 296.922 282.6 294.105 282.6C291.289 282.6 289.005 285.107 289.005 288.2C289.005 291.293 291.289 293.8 294.105 293.8Z" fill="#A3714E"/>
<path d="M294.105 291.4C296.922 291.4 299.205 289.117 299.205 286.3C299.205 283.483 296.922 281.2 294.105 281.2C291.289 281.2 289.005 283.483 289.005 286.3C289.005 289.117 291.289 291.4 294.105 291.4Z" fill="#F8E0CC"/>
<path d="M294.105 290C296.149 290 297.805 288.343 297.805 286.3C297.805 284.257 296.149 282.6 294.105 282.6C292.062 282.6 290.405 284.257 290.405 286.3C290.405 288.343 292.062 290 294.105 290Z" fill="#363344"/>
<path d="M294.105 289C295.597 289 296.805 287.791 296.805 286.3C296.805 284.809 295.597 283.6 294.105 283.6C292.614 283.6 291.405 284.809 291.405 286.3C291.405 287.791 292.614 289 294.105 289Z" fill="#626376"/>
<path d="M291.905 286.3C291.905 286.6 292.005 286.9 292.105 287.1C292.305 287.2 292.505 287.2 292.705 287.2C293.905 287.2 294.905 286.2 294.905 285C294.905 284.7 294.805 284.4 294.705 284.2C294.505 284.1 294.305 284.1 294.105 284.1C292.905 284.2 291.905 285.1 291.905 286.3Z" fill="#A5ADBC"/>
<path d="M208.305 286.9H197.405C196.105 286.9 195.005 285.8 195.005 284.5V273.3C195.005 272 196.105 270.9 197.405 270.9H208.305C209.605 270.9 210.705 272 210.705 273.3V284.5C210.705 285.8 209.605 286.9 208.305 286.9Z" fill="#C5BBC7"/>
<path d="M207.605 286.1H197.305C196.005 286.1 195.005 285.1 195.005 283.8V273.2C195.005 271.9 196.005 270.9 197.305 270.9H207.605C208.905 270.9 209.905 271.9 209.905 273.2V283.8C209.805 285.1 208.805 286.1 207.605 286.1Z" fill="#E7DEE8"/>
<path d="M195.705 273.7V280.4C196.405 280.6 197.205 280.7 197.905 280.7C202.105 280.7 205.605 277.3 205.605 273C205.605 272.5 205.605 272 205.505 271.6H197.805C196.605 271.6 195.705 272.5 195.705 273.7Z" fill="#F6F0F7"/>
<path d="M202.405 282.5C204.614 282.5 206.405 280.709 206.405 278.5C206.405 276.291 204.614 274.5 202.405 274.5C200.196 274.5 198.405 276.291 198.405 278.5C198.405 280.709 200.196 282.5 202.405 282.5Z" fill="#626376"/>
<path d="M202.405 281.4C204.007 281.4 205.305 280.102 205.305 278.5C205.305 276.898 204.007 275.6 202.405 275.6C200.804 275.6 199.505 276.898 199.505 278.5C199.505 280.102 200.804 281.4 202.405 281.4Z" fill="#E7DEE8"/>
<path d="M200.105 278.5C200.105 278.8 200.205 279.1 200.305 279.4C200.505 279.5 200.705 279.5 201.005 279.5C202.305 279.5 203.305 278.5 203.305 277.2C203.305 276.9 203.205 276.6 203.105 276.3C202.905 276.2 202.705 276.2 202.405 276.2C201.105 276.2 200.105 277.2 200.105 278.5Z" fill="white"/>
<path d="M294.005 541C347.246 541 390.405 538.09 390.405 534.5C390.405 530.91 347.246 528 294.005 528C240.765 528 197.605 530.91 197.605 534.5C197.605 538.09 240.765 541 294.005 541Z" fill="#BF3054"/>
<path d="M294.005 538.4C345.81 538.4 387.805 536.161 387.805 533.4C387.805 530.638 345.81 528.4 294.005 528.4C242.201 528.4 200.205 530.638 200.205 533.4C200.205 536.161 242.201 538.4 294.005 538.4Z" fill="#D94167"/>
<path d="M369.705 439.2C369.505 437.3 366.505 435.9 365.105 435C363.305 433.8 362.005 432.1 360.805 430.3C361.905 430 362.505 428.6 363.305 427.9C362.205 427.5 360.505 427.8 359.305 427.8C357.805 422.2 356.205 416.1 360.605 411.3C362.305 411.5 364.505 412.1 366.205 412.8C365.805 411.3 363.905 410 363.405 408.5C364.805 407.1 365.705 404.9 367.205 403.4C368.505 402.1 369.905 400.9 371.505 400C371.905 400.9 373.705 402 374.605 402.7C374.105 401.6 374.405 399.4 374.205 398.1C374.905 396.2 377.705 395.1 379.505 394.3C381.705 393.2 383.805 392.3 384.905 389.9C385.505 392.1 385.705 394 386.105 396.3C386.605 399.1 387.505 402 387.705 404.8C386.605 405.4 384.905 406.4 384.105 407.5C385.505 407.6 387.205 408.4 388.305 409.1C389.105 412.1 388.105 415.7 389.205 418.6C388.005 418.5 384.405 419.6 383.705 420.2C385.605 420.9 387.605 422 389.305 423C389.405 427.7 387.405 432.6 383.105 434.9C381.605 434.1 380.505 432.8 379.005 432.1C379.805 433.4 379.705 435.2 380.205 436.6C378.505 437.1 376.905 438 375.205 438.2C373.005 438.4 371.105 438.2 369.705 439.2Z" fill="#35847A"/>
<path d="M362.005 507.6C362.005 507.6 362.205 507.1 362.405 506.4C362.605 505.6 362.805 504.4 363.005 502.7C363.405 499.5 363.705 494.8 363.905 489.2C364.005 486.4 364.105 483.3 364.205 480.1C364.205 478.5 364.305 476.8 364.305 475.1V473.8V473.1V472.5C364.405 471.6 364.405 470.8 364.505 469.9C365.005 462.8 365.805 455.3 367.005 447.9C367.605 444.2 368.305 440.5 369.005 436.8C369.705 433.2 370.405 429.6 371.305 426.2C373.105 419.3 375.505 413.1 377.805 408C380.105 402.8 382.105 398.6 383.205 395.5C383.705 394 384.105 392.7 384.205 391.9C384.405 391 384.505 390.6 384.505 390.6C384.505 390.5 384.605 390.4 384.805 390.4C384.905 390.4 385.005 390.5 385.005 390.6C385.005 390.6 384.905 391.1 384.805 391.9C384.705 392.8 384.405 394.1 383.905 395.7C383.005 398.9 381.105 403.2 379.005 408.4C376.905 413.6 374.605 419.8 373.005 426.5C372.205 429.9 371.605 433.5 370.805 437.1C370.105 440.7 369.405 444.4 368.805 448.1C367.605 455.5 366.905 463 366.405 469.9C366.305 470.8 366.305 471.7 366.205 472.5V473.1V473.7V475C366.205 476.7 366.105 478.4 366.105 480C366.005 483.2 365.905 486.3 365.805 489.1C365.505 494.7 365.205 499.4 364.705 502.8C364.505 504.5 364.205 505.8 364.005 506.7C363.705 507.7 363.505 508.1 363.505 508.1L363.405 508.2C363.205 508.6 362.705 508.8 362.205 508.6C362.005 508.5 361.805 508 362.005 507.6Z" fill="#2A7069"/>
<path d="M330.405 429.3C331.805 432.1 333.305 434.6 334.605 436.7C335.605 436.5 336.905 436.4 337.805 436.1C337.105 437.1 336.105 438.1 335.805 439.2C335.605 440 336.605 442.2 336.905 443.2C337.305 444.4 337.705 445.6 338.305 446.7C339.305 446.4 340.605 446.2 341.505 445.8C341.005 446.9 340.305 448 339.805 449.2C340.705 449.9 341.105 451.3 341.905 452.1C342.505 452.6 343.405 453.1 343.905 453.7C344.805 453.1 346.005 450.7 346.905 450.6C346.905 451.8 347.205 453.9 347.705 454.8C353.605 456.6 356.305 454.2 359.805 454.8C360.005 453.7 360.705 452.8 361.505 452.1C362.605 451 362.905 450.1 362.805 448.6C362.105 448.5 361.405 447.8 360.705 447.5C360.205 447.3 359.705 447.1 359.105 446.9C359.805 446.7 361.405 446 362.205 445.6C361.505 444.6 361.405 442.7 360.705 441.5C360.005 440.2 358.905 439.2 357.605 438.6C356.605 439.2 355.605 440 354.605 440.6C354.605 439.4 354.705 438.3 354.705 437.2C353.105 435.7 349.805 435 347.805 434.7C347.105 434.9 346.305 435.6 345.705 436C345.605 434.7 345.605 433.5 345.605 433.5C343.505 433 341.405 432.9 339.405 432.1C338.305 431.6 332.205 429.3 330.405 429.3Z" fill="#35847A"/>
<path d="M330.805 429.3C330.805 429.3 331.805 430.3 334.005 431.6C335.105 432.2 336.405 433 337.905 433.8C339.405 434.7 341.205 435.6 343.005 436.7C346.705 438.9 351.105 441.6 354.905 445.6C356.805 447.6 358.605 449.9 359.905 452.5C361.305 455.2 362.005 458 362.705 460.9C363.905 466.6 364.405 472.4 364.705 477.8C365.005 483.2 365.105 488.3 365.105 492.6C365.105 496.9 364.905 500.5 364.705 503.1C364.505 505.6 364.305 507.1 364.305 507.1C364.205 507.6 363.805 507.9 363.305 507.8C362.805 507.7 362.505 507.3 362.505 506.8C362.505 506.8 362.705 505.4 362.805 502.9C362.905 500.4 363.005 496.8 363.005 492.5C363.005 488.2 362.905 483.2 362.605 477.8C362.305 472.5 361.705 466.7 360.605 461.2C360.005 458.5 359.305 455.7 358.105 453.3C356.905 450.9 355.205 448.7 353.405 446.8C349.805 443 345.605 440.2 342.005 437.9C340.205 436.7 338.505 435.7 337.005 434.7C335.505 433.8 334.205 432.9 333.205 432.1C332.205 431.3 331.405 430.7 330.905 430.2C330.405 429.7 330.205 429.4 330.205 429.4C330.105 429.3 330.205 429.2 330.205 429.2C330.605 429.3 330.705 429.3 330.805 429.3Z" fill="#2A7069"/>
<path d="M372.805 461.7C375.305 460.3 375.005 457.3 378.605 453.9C380.005 454.5 381.105 456.6 381.905 457.8C381.905 455.8 381.605 453.8 381.405 451.9C385.605 447.7 391.205 448.9 393.905 450L393.205 453.8C394.105 453 395.105 452.2 396.305 451.7C398.505 453.3 401.005 455.3 403.005 457.4C402.705 458.4 401.505 460 401.505 460.6C402.605 460 404.005 459.9 405.205 459.5C407.105 461 408.405 463.3 409.605 465.3C411.205 467.9 412.405 470.8 414.905 472.7C413.105 473.3 408.905 474.3 407.105 474.8C406.205 473.8 405.105 472.1 404.105 471.2C404.105 472.6 404.405 474.1 404.305 475.6C402.405 477 399.505 477.2 397.305 477.6C396.305 476.4 395.005 475 394.205 473.6C394.205 474.6 393.905 477.2 393.305 477.6C392.205 478.5 389.505 477.8 388.005 477.8C386.305 477.8 384.705 477.5 383.405 476.7C383.105 475.2 382.805 472.3 382.905 470.7C381.705 471.5 380.705 473.6 379.905 474.8C377.705 473.6 375.805 470.9 374.405 468.9C372.605 466.4 372.605 463.5 372.805 461.7Z" fill="#35847A"/>
<path d="M414.705 472.8C414.705 472.8 413.305 472.4 411.005 471.4C408.705 470.5 405.405 469 401.605 467C397.905 465 393.405 462.8 388.405 461.5C385.905 460.9 383.305 460.6 380.505 460.8C379.205 460.9 377.805 461 376.505 461.3C375.205 461.6 374.505 462.3 373.505 463.4C371.805 465.2 371.305 468.1 370.805 470.8C370.405 473.5 370.205 476.3 370.105 478.9C369.805 484.2 369.805 489.2 369.605 493.5C369.405 497.8 369.105 501.4 368.705 503.9C368.305 506.4 367.905 507.8 367.905 507.8C367.805 508.3 367.305 508.5 366.805 508.4C366.305 508.3 366.105 507.8 366.205 507.3C366.205 507.3 366.605 506 366.905 503.6C367.305 501.2 367.605 497.7 367.705 493.4C367.905 489.1 367.905 484.2 368.205 478.8C368.305 476.1 368.505 473.3 368.905 470.5C369.105 469.1 369.405 467.6 369.805 466.2C370.005 465.5 370.305 464.8 370.605 464.1C370.805 463.7 371.005 463.3 371.205 463L371.505 462.6L371.705 462.3L371.905 462.1C372.405 461.6 372.905 461 373.605 460.5C374.305 460 375.105 459.7 375.805 459.5C377.305 459.1 378.805 459 380.205 458.9C383.005 458.7 386.005 459 388.605 459.7C391.305 460.4 393.705 461.4 396.005 462.5C398.205 463.6 400.305 464.7 402.105 465.8C405.705 468 408.905 469.6 411.105 470.8C413.305 471.9 414.605 472.5 414.605 472.5C414.705 472.5 414.705 472.6 414.705 472.7C414.905 472.8 414.805 472.8 414.705 472.8Z" fill="#2A7069"/>
<path d="M363.205 506.3C362.705 506.3 362.305 505.9 362.305 505.4C362.305 505.2 362.405 481.9 356.105 471.8C355.805 471.4 356.005 470.8 356.405 470.6C356.805 470.3 357.405 470.5 357.605 470.9C364.205 481.4 364.105 504.5 364.105 505.5C364.105 505.9 363.705 506.3 363.205 506.3Z" fill="#2A7069"/>
<path d="M358.405 464.1C361.705 462.7 367.305 463.8 368.805 467.5C367.205 467.4 364.805 467.4 363.405 467.9C367.505 467.7 368.505 471 370.605 473.6C370.305 475.3 368.305 477.9 366.905 479C365.205 477.9 363.205 476.7 361.305 475.7C361.705 477.6 363.305 479.1 363.805 480.9C362.805 482.1 359.905 482.8 358.505 483.1C356.905 481.7 355.105 479.9 353.305 478.8C353.805 480.6 355.305 481.9 355.705 483.7C353.305 484.5 351.005 485.1 348.805 485.8C348.005 484.7 346.505 484 345.605 483C345.905 484.5 346.005 485.7 346.005 487.3C343.805 488.7 341.305 489.1 339.005 490.6C337.305 491.8 335.205 493.1 334.105 494.9C333.405 493 333.905 490 334.105 488C334.205 486.2 334.005 483.7 334.505 481.9C335.905 481.4 337.705 480.4 338.805 480.1C337.905 479.8 335.805 479.1 334.805 479.5C334.905 477.4 334.905 474.6 335.705 472.6C337.505 472.8 339.805 472 341.505 471.7C339.905 471.4 337.905 470.9 336.405 470.4C336.705 467.7 338.405 464.6 340.505 463C342.005 463.7 343.505 463.8 345.005 464.6C344.305 463.6 343.805 462.3 343.005 461.3C345.205 459.8 349.505 459.8 351.305 459.8C352.005 460.4 352.405 461.5 352.905 462.3C353.105 461.6 353.405 460.8 353.905 460.4C355.305 461.5 357.105 462.5 358.405 464.1Z" fill="#35847A"/>
<path d="M388.905 418.5C387.905 415.6 388.805 411.9 388.005 409C386.905 408.2 385.205 407.4 383.805 407.4C384.605 406.4 386.305 405.3 387.405 404.7C387.205 401.9 386.305 399 385.805 396.2C385.405 394.1 385.205 392.3 384.705 390.4C384.205 394.3 381.605 400.5 377.005 411C372.405 421.5 370.105 434.7 369.505 438.9C369.505 439 369.605 439.1 369.605 439.2C371.005 438.1 373.005 438.4 374.805 438.2C376.505 438 378.105 437.1 379.805 436.6C379.305 435.2 379.505 433.4 378.605 432.1C380.105 432.9 381.205 434.2 382.705 434.9C387.005 432.5 389.105 427.7 388.905 423C387.205 421.9 385.205 420.9 383.305 420.2C384.105 419.6 387.705 418.4 388.905 418.5Z" fill="#2A7069"/>
<path d="M407.005 474.8C408.805 474.3 413.005 473.2 414.805 472.7L414.705 472.6C412.705 471.8 409.505 470.5 406.305 468.8C400.805 466 398.905 463.6 387.105 460.2C378.905 457.8 374.705 460.5 372.905 462.4C372.805 464.2 372.905 466.8 374.405 468.9C375.805 470.9 377.705 473.7 379.905 474.8C380.705 473.6 381.705 471.5 382.905 470.7C382.905 472.3 383.105 475.2 383.405 476.7C384.805 477.6 386.405 477.8 388.005 477.8C389.505 477.8 392.205 478.5 393.305 477.6C393.905 477.1 394.205 474.5 394.205 473.6C395.005 475 396.305 476.4 397.305 477.6C399.505 477.2 402.405 477 404.305 475.6C404.305 474.2 404.005 472.6 404.105 471.2C405.005 472 406.105 473.8 407.005 474.8Z" fill="#2A7069"/>
<path d="M361.705 452.1C362.805 451 363.105 450.1 363.005 448.6C362.305 448.5 361.605 447.8 360.905 447.5C360.405 447.3 359.905 447.1 359.305 446.9C360.005 446.7 361.605 446 362.405 445.6C361.705 444.6 361.605 442.7 360.905 441.5C360.205 440.2 359.105 439.2 357.805 438.6C356.805 439.2 355.805 440 354.805 440.6C354.805 439.4 354.905 438.3 354.905 437.2C353.305 435.7 350.005 435 348.005 434.7C347.305 434.9 346.505 435.6 345.905 436C345.805 434.7 345.805 433.5 345.805 433.5C343.705 433 341.605 432.9 339.605 432.1C338.105 431.5 332.005 429.2 330.205 429.2C330.205 429.2 330.205 429.2 330.205 429.3C331.005 430 333.705 431.9 339.705 435.6C347.305 440.3 353.605 444.8 357.105 449.9C358.405 451.7 359.205 453.3 359.805 454.5C360.305 453.5 360.905 452.8 361.705 452.1Z" fill="#2A7069"/>
<path d="M348.205 470.4C354.005 465.2 358.405 464.1 358.405 464.1C357.005 462.5 355.305 461.5 353.705 460.5C353.205 461 353.005 461.8 352.705 462.4C352.305 461.5 351.805 460.5 351.105 459.9C349.305 459.9 345.005 459.9 342.805 461.4C343.605 462.4 344.105 463.6 344.805 464.7C343.305 463.9 341.805 463.8 340.305 463.1C338.205 464.8 336.505 467.8 336.205 470.6C337.705 471.1 339.705 471.6 341.305 471.9C339.605 472.2 337.305 473 335.505 472.8C334.705 474.8 334.705 477.5 334.605 479.7C335.605 479.3 337.705 480 338.605 480.3C337.505 480.6 335.805 481.6 334.305 482.1C333.805 483.9 334.005 486.4 333.905 488.2C333.805 490.2 333.305 493.2 333.905 495.1C334.805 490.7 340.505 477.3 348.205 470.4Z" fill="#2A7069"/>
<path d="M346.405 501.1H385.405C385.405 501.1 383.805 522.7 376.005 534.7H355.405C355.605 534.7 348.005 520.1 346.405 501.1Z" fill="#E7DEE8"/>
<path d="M376.105 534.7C383.905 522.7 385.505 501.1 385.505 501.1H361.705C365.405 501.8 371.305 503.1 372.705 504.5C374.705 506.5 369.505 528.3 365.605 534.7H376.105Z" fill="#C5BBC7"/>
<path d="M353.005 509.3C356.205 509.7 360.105 509.8 363.205 509C363.605 508.9 363.505 508.3 363.105 508.3C359.805 508 356.205 508.4 353.005 508.6C352.505 508.6 352.605 509.2 353.005 509.3Z" fill="#C5BBC7"/>
<path d="M359.405 514.4C364.905 516.4 372.505 516.3 378.105 514.7C378.505 514.6 378.405 513.9 378.005 514C374.905 514.2 371.905 514.7 368.705 514.6C365.605 514.6 362.505 514 359.505 513.9C359.205 513.9 359.105 514.3 359.405 514.4Z" fill="#C5BBC7"/>
<path d="M356.105 524.6C357.105 524.7 358.205 524.7 359.205 524.7C360.105 524.7 361.105 524.8 361.905 524.6C362.205 524.5 362.205 524 361.905 524C361.005 523.8 360.105 523.9 359.205 523.9C358.205 523.9 357.105 523.9 356.105 524C355.705 524 355.705 524.6 356.105 524.6Z" fill="#C5BBC7"/>
<path d="M355.805 528.8C361.305 530.4 368.105 529.4 373.705 528.4C374.305 528.3 374.105 527.3 373.405 527.4C370.305 528 367.205 528.4 364.005 528.5C361.305 528.6 358.505 528.2 355.805 528.5C355.705 528.6 355.605 528.8 355.805 528.8Z" fill="#C5BBC7"/>
<path d="M360.905 506.4C362.405 506.6 363.905 506.8 365.405 506.9C366.005 506.9 365.905 506.1 365.405 506C363.905 505.9 362.505 505.8 361.005 505.8C360.705 505.7 360.605 506.3 360.905 506.4Z" fill="#C5BBC7"/>
<path d="M349.205 504C350.305 504.5 351.705 504.4 352.905 504.5C353.505 504.5 353.505 503.6 352.905 503.6C351.705 503.5 350.305 503.3 349.205 503.7C349.105 503.7 349.105 504 349.205 504Z" fill="#C5BBC7"/>
<path d="M145.305 420.6H138.405V531H145.305V420.6Z" fill="#E7DEE8"/>
<path d="M152.205 420.6H145.305V531H152.205V420.6Z" fill="#C5BBC7"/>
<path d="M115.605 420.6H108.705V531H115.605V420.6Z" fill="#E7DEE8"/>
<path d="M122.505 420.6H115.605V531H122.505V420.6Z" fill="#C5BBC7"/>
<path d="M199.205 420.6H192.305V531H199.205V420.6Z" fill="#E7DEE8"/>
<path d="M206.105 420.6H199.205V531H206.105V420.6Z" fill="#C5BBC7"/>
<path d="M169.505 420.6H108.705V444.7H169.505V420.6Z" fill="#E7DEE8"/>
<path d="M206.205 420.6H169.505V444.7H206.205V420.6Z" fill="#C5BBC7"/>
<path d="M169.505 514.4H108.705V523.5H169.505V514.4Z" fill="#E7DEE8"/>
<path d="M206.205 514.4H169.505V523.5H206.205V514.4Z" fill="#C5BBC7"/>
<path d="M169.405 420.6H162.505V531H169.405V420.6Z" fill="#E7DEE8"/>
<path d="M176.405 420.6H169.505V531H176.405V420.6Z" fill="#C5BBC7"/>
<path d="M169.505 420.6H108.705V425.3H169.505V420.6Z" fill="#C5BBC7"/>
<path d="M206.205 420.6H169.505V425.3H206.205V420.6Z" fill="#AA9EAD"/>
<path d="M169.505 414.6H103.305V422H169.505V414.6Z" fill="#E7DEE8"/>
<path d="M211.505 414.6H169.505V422H211.505V414.6Z" fill="#C5BBC7"/>
<path d="M169.505 434.6H108.705V436.4H169.505V434.6Z" fill="#DACFDC"/>
<path d="M206.205 434.6H169.505V436.4H206.205V434.6Z" fill="#BEB1C2"/>
<path d="M145.605 456H138.405V457.8H145.605V456Z" fill="#DACFDC"/>
<path d="M176.405 456H169.505V457.8H176.405V456Z" fill="#BEB1C2"/>
<path d="M145.605 467.1H138.405V468.2H145.605V467.1Z" fill="#DACFDC"/>
<path d="M176.405 467.1H169.505V468.2H176.405V467.1Z" fill="#BEB1C2"/>
<path d="M145.605 493H138.405V494.8H145.605V493Z" fill="#DACFDC"/>
<path d="M176.405 493H169.505V494.8H176.405V493Z" fill="#BEB1C2"/>
<path d="M115.905 456H108.705V457.8H115.905V456Z" fill="#DACFDC"/>
<path d="M115.905 467.1H108.705V468.2H115.905V467.1Z" fill="#DACFDC"/>
<path d="M115.905 493H108.705V494.8H115.905V493Z" fill="#DACFDC"/>
<path d="M169.405 456H162.505V457.8H169.405V456Z" fill="#DACFDC"/>
<path d="M169.405 467.1H162.505V468.2H169.405V467.1Z" fill="#DACFDC"/>
<path d="M169.405 493H162.505V494.8H169.405V493Z" fill="#DACFDC"/>
<path d="M206.205 456H199.305V457.8H206.205V456Z" fill="#BEB1C2"/>
<path d="M206.205 467.1H199.305V468.2H206.205V467.1Z" fill="#BEB1C2"/>
<path d="M145.605 509.3H138.405V510.6H145.605V509.3Z" fill="#DACFDC"/>
<path d="M176.405 509.3H169.505V510.6H176.405V509.3Z" fill="#BEB1C2"/>
<path d="M115.905 509.3H108.705V510.6H115.905V509.3Z" fill="#DACFDC"/>
<path d="M169.405 509.3H162.505V510.6H169.405V509.3Z" fill="#DACFDC"/>
<path d="M206.205 509.3H199.305V510.6H206.205V509.3Z" fill="#BEB1C2"/>
<path d="M206.205 493H199.305V494.8H206.205V493Z" fill="#BEB1C2"/>
<path d="M110.505 335C110.505 335 121.605 348.8 128.405 355.9C135.105 363.1 149.705 377.9 149.705 377.9L139.405 380.9C139.405 380.9 125.205 374.4 115.005 365.2C104.205 355.4 96.3053 343.5 96.3053 343.5L110.505 335Z" fill="url(#paint9_linear)"/>
<path d="M120.005 364.9C110.705 356.5 104.905 347.1 104.905 347.1C110.505 343.8 113.005 340.1 113.905 339.1C111.705 336.4 110.605 335 110.605 335L96.4053 343.6C96.4053 343.6 104.305 355.5 115.105 365.3C125.305 374.5 139.505 381 139.505 381L141.405 380.4C137.405 378 127.305 371.5 120.005 364.9Z" fill="#D27A84"/>
<path d="M91.2053 342.4C91.2053 342.4 112.905 334.7 110.005 329.1C105.505 324.2 98.8053 308 93.0053 304.1C89.2053 301.1 79.2053 315.5 81.7053 325.8C83.9053 334.4 91.2053 342.4 91.2053 342.4Z" fill="#BF3054"/>
<path d="M90.1053 343.1C96.1053 340.1 106.205 333.5 110.605 328.2L115.705 334.2C111.805 338.9 103.305 345.9 95.0053 349.4L90.1053 343.1Z" fill="#E7DEE8"/>
<path d="M73.6053 243.4C100.005 223.2 109.405 261.2 109.405 261.2C109.405 261.2 110.005 266 104.705 267.4C102.605 268 89.6053 273 89.6053 273L75.3053 282.6C75.3053 282.6 67.1053 280 65.6053 266.4C64.3053 254 67.9053 243.1 73.6053 243.4Z" fill="#80545A"/>
<path d="M87.4053 291.6C85.7053 295.4 85.2053 300.1 85.3053 300.6C85.3053 300.6 82.4053 304.7 72.8053 304.3C67.0053 301.9 61.8053 296.7 61.8053 296.7C63.6053 296 68.2053 295 71.3053 289C73.9053 283.9 73.7053 275 73.7053 275L79.8053 277.4L87.4053 291.6Z" fill="#D27A84"/>
<path d="M75.5053 265.6C76.4053 266.7 76.1053 269.3 77.9053 269.5C80.1053 269.7 79.6053 261.9 83.8053 256.2C85.5053 253.9 89.8053 250.4 96.6053 252.2C105.205 254.5 106.005 259.4 106.105 264.2C106.105 266.4 105.805 271.1 102.605 279C98.8053 288.4 93.6053 293.7 89.6053 293.9C86.9053 294.1 84.8053 293.3 82.8053 291.7C79.4053 289 75.7053 284.5 74.7053 275.8C70.2053 275 68.8053 271.4 69.5053 268.5C70.3053 265.5 72.9053 263.3 75.5053 265.6Z" fill="url(#paint10_linear)"/>
<path d="M73.5211 272.887C74.5674 272.807 75.317 271.448 75.1954 269.851C75.0738 268.254 74.127 267.024 73.0807 267.104C72.0344 267.183 71.2848 268.543 71.4064 270.14C71.5281 271.737 72.4748 272.967 73.5211 272.887Z" fill="#D27A84"/>
<path d="M100.805 266.2C101.405 264.8 103.605 265.4 105.305 266.6C106.705 267.5 107.305 269.9 106.605 270.4C105.605 271.1 105.505 270.1 103.805 269.1C102.005 267.9 100.205 267.6 100.805 266.2Z" fill="#80545A"/>
<path d="M94.0053 263.6C94.0053 262.3 92.3053 261.9 88.8053 262.4C85.8053 262.8 83.2053 264.7 83.7053 265.6C84.2053 266.6 86.0053 265.9 89.0053 265.4C91.4053 265 94.1053 265.4 94.0053 263.6Z" fill="#80545A"/>
<path d="M99.0053 266.2C98.2053 267.2 97.5053 268.3 97.0053 269.4C96.7053 270 96.5053 270.5 96.4053 271.1C96.3053 271.4 96.3053 271.7 96.3053 272C96.3053 272.3 96.2053 272.6 96.2053 272.9C96.2053 274.1 96.4053 275.2 96.9053 276.3C97.2053 276.8 97.4053 277.4 97.8053 277.8C98.0053 278 98.1053 278.3 98.3053 278.5C98.5053 278.7 98.7053 278.9 98.8053 279.1L99.3053 279.9L98.9053 280.3C98.6053 280.6 98.4053 280.7 98.2053 280.9C98.0053 281.1 97.7053 281.2 97.5053 281.3C97.0053 281.5 96.5053 281.6 96.0053 281.7C95.0053 281.8 94.0053 281.6 93.1053 281.2C93.0053 281.2 93.0053 281.1 93.0053 281C93.0053 280.9 93.1053 280.9 93.1053 280.9C94.0053 281 94.9053 280.9 95.7053 280.6C96.1053 280.4 96.4053 280.2 96.7053 280C96.9053 279.9 97.0053 279.7 97.1053 279.6C97.2053 279.5 97.3053 279.3 97.4053 279.2L97.5053 280.4C97.2053 280.1 97.0053 279.9 96.8053 279.6C96.6053 279.3 96.4053 279 96.2053 278.7C95.8053 278.1 95.6053 277.5 95.3053 276.8C94.8053 275.5 94.6053 274.1 94.8053 272.7C94.8053 272.4 94.9053 272 95.0053 271.7C95.1053 271.4 95.1053 271 95.3053 270.7C95.5053 270 95.8053 269.4 96.1053 268.9C96.4053 268.3 96.9053 267.8 97.2053 267.3C97.6053 266.8 98.1053 266.4 98.5053 265.9C98.6053 265.8 98.7053 265.8 98.8053 265.9C99.0053 266 99.0053 266.1 99.0053 266.2Z" fill="#D27A84"/>
<path d="M85.6053 267.8C85.6053 267.8 85.8053 268.4 86.3053 269.1C86.7053 269.8 87.5053 270.5 88.4053 270.9C88.6053 271 88.9053 271 89.1053 271.1C89.4053 271.2 89.5053 271.2 89.8053 271.2C90.2053 271.2 90.6053 271.1 91.0053 271C91.7053 270.7 92.2053 270.3 92.2053 270.3C92.2053 270.3 92.2053 270.5 92.1053 270.7C92.0053 271 91.9053 271.4 91.5053 271.7C91.2053 272.1 90.6053 272.5 89.9053 272.6C89.6053 272.7 89.1053 272.6 88.9053 272.6C88.5053 272.5 88.2053 272.4 87.9053 272.3C87.3053 272 86.7053 271.6 86.3053 271C85.9053 270.5 85.7053 269.9 85.6053 269.4C85.4053 268.4 85.6053 267.8 85.6053 267.8Z" fill="#634A64"/>
<path d="M98.9053 271.8C98.9053 271.8 99.2053 272.2 99.7053 272.7C100.105 273.2 100.805 273.7 101.405 273.9C101.505 274 101.805 274 101.905 274C102.005 274 102.205 274.1 102.305 274C102.605 274 102.905 274 103.105 273.8C103.605 273.5 104.005 273.1 104.005 273.1C104.005 273.1 104.205 273.6 103.805 274.4C103.605 274.7 103.205 275.2 102.605 275.3C102.305 275.4 102.005 275.4 101.705 275.4C101.405 275.4 101.205 275.3 100.905 275.2C100.305 275 99.9053 274.6 99.5053 274.2C99.2053 273.8 99.0053 273.3 98.9053 273C98.7053 272.3 98.9053 271.8 98.9053 271.8Z" fill="#634A64"/>
<path d="M77.2053 520.1C78.2053 523.7 75.7053 526.3 76.5053 528.9C77.5053 531.9 98.4053 531.2 98.7053 529.3C99.3053 525.5 86.9053 525.1 85.2053 522.1C84.1053 520 84.5053 517.9 84.5053 517.9L77.2053 520.1Z" fill="#363344"/>
<path d="M12.5053 520.1C12.6053 523.7 9.50533 526.3 9.70533 528.9C9.90533 531.9 31.1053 531.2 31.8053 529.3C33.3053 525.5 21.0053 525.1 20.1053 522.1C19.5053 520 20.4053 517.9 20.4053 517.9L12.5053 520.1Z" fill="#363344"/>
<path d="M64.4053 293C64.4053 293 52.0053 295.8 48.4053 297.2C37.7053 301.6 34.2053 314.5 27.5053 333.2C21.3053 350.4 18.5053 364 21.1053 368.6C23.9053 373.6 65.8053 382.1 77.3053 372.2C83.3053 367 85.9053 353.4 89.3053 344.5C92.7053 335.6 100.605 315.9 96.6053 308.4C94.1053 303.8 88.3053 299.8 88.3053 299.8L79.1053 302L64.4053 293Z" fill="#D94167"/>
<path d="M62.0053 373.9L60.8053 373.5C66.8053 357.4 74.1053 329.9 74.2053 329.7C77.1053 318.6 77.2053 307.8 77.2053 307.7H78.5053C78.5053 307.8 78.5053 318.8 75.5053 330C75.4053 330.2 68.1053 357.7 62.0053 373.9Z" fill="#BF3054"/>
<path d="M38.7053 306.1C34.6053 312.6 31.7053 321.9 27.7053 333.3C21.5053 350.5 18.4053 365 21.3053 368.7C24.9053 373.2 66.0053 382.2 77.5053 372.3C80.2053 370 82.2053 366 83.9053 361.5C51.5053 347 41.1053 315.2 38.7053 306.1Z" fill="#BF3054"/>
<path d="M62.0053 373.9L60.8053 373.5C62.8053 368.2 65.1053 361 67.8053 352.1L69.0053 352.5C66.4053 361.3 64.0053 368.6 62.0053 373.9Z" fill="#AF254D"/>
<path d="M65.0053 292.8L63.9053 293.2L71.8053 311L76.0053 307.1L77.4053 309.3L79.9053 307.3L82.2053 312.7L88.7053 300L88.2053 299.7L79.4053 301.5L65.0053 292.8Z" fill="#BF3054"/>
<path d="M70.5053 288.5L79.4053 301.5L72.4053 308L64.6053 292L70.5053 288.5Z" fill="#E7DEE8"/>
<path d="M79.4053 301.5L83.0053 309.9L88.7053 299.3L86.2053 294.3L79.4053 301.5Z" fill="#E7DEE8"/>
<path d="M76.7053 376.1C76.7053 376.1 89.2053 427.1 91.3053 443.9C93.4053 460.7 92.6053 482.7 93.2053 491.3C93.8053 499.9 93.7053 507.6 93.1053 511.6C92.5053 515.6 88.2053 519.8 82.3053 521.1C76.5053 522.4 71.3053 519.9 69.6053 515.1C67.9053 510.3 67.8053 466.8 66.8053 457.4C65.8053 448 51.4053 411.8 51.4053 411.8L52.4053 378.3L76.7053 376.1Z" fill="#474557"/>
<path d="M20.0053 374.8C20.0053 374.8 18.6053 385.4 18.4053 400.6C18.2053 416.3 21.6053 442.6 20.4053 451.7C19.2053 460.9 6.70531 502.7 7.00531 508.9C7.30531 515.1 9.10531 519.4 12.9053 520.8C16.7053 522.2 24.9053 522.8 29.0053 515.3C31.7053 510.2 43.2053 468.3 46.4053 453.7C47.6053 448.1 55.1053 404.8 55.1053 404.8L59.6053 402.3L58.6053 378.4L20.0053 374.8Z" fill="#626376"/>
<path d="M77.5053 377.7C59.8053 382.1 38.3053 380.7 20.0053 374.8L21.2053 368.7C39.8053 374.6 60.8053 376.1 77.8053 371.7L77.5053 377.7Z" fill="#363344"/>
<path d="M46.5053 382.4L43.8053 382.2C43.1053 382.1 42.5053 381.5 42.6053 380.7L43.2053 374.1C43.3053 373.4 43.9053 372.8 44.7053 372.9L47.4053 373.1C48.1053 373.2 48.7053 373.8 48.6053 374.6L48.0053 381.2C47.9053 381.9 47.2053 382.4 46.5053 382.4Z" fill="#626376"/>
<path d="M74.1053 381.3L71.2053 381.6C70.5053 381.7 69.9053 381.2 69.8053 380.5L69.1053 374C69.0053 373.3 69.5053 372.7 70.2053 372.6L73.1053 372.3C73.8053 372.2 74.4053 372.7 74.5053 373.4L75.2053 379.9C75.3053 380.6 74.8053 381.2 74.1053 381.3Z" fill="#474557"/>
<path d="M28.4053 379.3L25.9053 378.7C25.1053 378.5 24.6053 377.8 24.8053 377L26.1053 371.1C26.3053 370.3 27.0053 369.8 27.8053 370L30.3053 370.6C31.1053 370.8 31.6053 371.5 31.4053 372.3L30.1053 378.2C30.0053 379 29.2053 379.5 28.4053 379.3Z" fill="#626376"/>
<path d="M94.3053 334.4L84.0053 333L85.5053 327.2L95.8053 328.6L94.3053 334.4Z" fill="#E7DEE8"/>
<path d="M136.005 394L162.505 394.1C163.605 394.1 164.405 393.3 164.405 392.3L164.705 335.9C164.705 334.9 163.805 334.1 162.805 334.1L136.305 334C135.205 334 134.405 334.8 134.405 335.8L134.105 392.2C134.105 393.2 135.005 394 136.005 394Z" fill="#EFBA73"/>
<path d="M138.905 394.1L91.6053 393.9C90.6053 393.9 89.7053 393.1 89.7053 392.1L90.0053 335.7C90.0053 334.7 90.9053 333.9 91.9053 333.9L139.205 334.1C140.205 334.1 141.105 334.9 141.105 335.9L140.805 392.3C140.805 393.3 140.005 394.1 138.905 394.1Z" fill="#FFD68D"/>
<path d="M137.005 338C137.005 338 136.405 338.9 135.205 340.4C134.005 341.9 132.505 344.1 130.405 346.6C128.405 349.1 126.105 352.1 123.505 355.3C121.005 358.5 118.205 361.8 115.505 365.1C112.705 368.4 109.905 371.7 107.305 374.8C104.705 377.9 102.105 380.7 100.005 383.1C97.9053 385.5 96.0053 387.5 94.7053 388.9C93.4053 390.3 92.7053 391.1 92.7053 391.1C92.7053 391.1 93.3053 390.2 94.5053 388.7C95.7053 387.2 97.2053 385 99.3053 382.5C101.305 380 103.605 377 106.205 373.8C108.705 370.6 111.505 367.3 114.205 364C117.005 360.7 119.805 357.4 122.405 354.3C125.005 351.2 127.605 348.4 129.705 346C131.805 343.6 133.705 341.6 135.005 340.2C136.305 338.8 137.005 338 137.005 338Z" fill="#EFBA73"/>
<path d="M92.5053 336.3C92.5053 336.3 93.3053 337.1 94.6053 338.6C95.9053 340.1 97.8053 342.1 100.105 344.6C102.305 347.1 105.005 350 107.705 353.2C110.405 356.4 113.305 359.8 116.205 363.2C119.005 366.7 121.905 370.1 124.605 373.4C127.305 376.6 129.705 379.8 131.805 382.4C133.905 385 135.605 387.3 136.805 388.8C138.005 390.4 138.605 391.3 138.605 391.3C138.605 391.3 137.805 390.5 136.505 389C135.205 387.5 133.205 385.5 131.005 383C128.805 380.5 126.105 377.6 123.405 374.4C120.705 371.2 117.805 367.8 114.905 364.4C112.105 360.9 109.205 357.5 106.505 354.2C103.805 351 101.405 347.8 99.3053 345.2C97.2053 342.6 95.5053 340.3 94.3053 338.8C93.2053 337.2 92.5053 336.3 92.5053 336.3Z" fill="#EFBA73"/>
<path d="M162.705 338C162.705 338 162.505 338.9 162.005 340.3C161.505 341.8 161.005 343.9 160.105 346.4C159.305 348.9 158.405 351.9 157.305 355C156.305 358.1 155.105 361.5 153.905 364.8C152.705 368.1 151.505 371.4 150.305 374.5C149.105 377.6 147.905 380.4 147.005 382.9C146.005 385.4 145.105 387.4 144.505 388.8C143.905 390.2 143.505 391 143.505 391C143.505 391 143.705 390.1 144.205 388.7C144.705 387.2 145.205 385.1 146.105 382.6C146.905 380.1 147.805 377.1 148.905 374C149.905 370.9 151.105 367.5 152.305 364.2C153.505 360.9 154.705 357.6 155.905 354.5C157.105 351.4 158.305 348.6 159.205 346.1C160.205 343.6 161.105 341.6 161.705 340.2C162.405 338.8 162.705 338 162.705 338Z" fill="#E2A561"/>
<path d="M143.505 336.3C143.505 336.3 143.905 337.1 144.505 338.6C145.105 340.1 146.105 342.2 147.105 344.7C148.105 347.3 149.305 350.2 150.605 353.4C151.805 356.6 153.105 360 154.405 363.5C155.605 366.9 156.905 370.4 157.905 373.6C159.005 376.8 160.005 379.9 160.805 382.5C161.705 385.1 162.305 387.3 162.705 388.8C163.105 390.3 163.405 391.2 163.405 391.2C163.405 391.2 163.005 390.4 162.405 388.9C161.805 387.4 160.805 385.3 159.805 382.8C158.805 380.2 157.605 377.3 156.305 374.1C155.105 370.9 153.805 367.5 152.605 364C151.405 360.6 150.105 357.1 149.105 353.9C148.005 350.7 147.005 347.6 146.205 345C145.305 342.4 144.705 340.2 144.305 338.7C143.805 337.2 143.505 336.3 143.505 336.3Z" fill="#E2A561"/>
<path d="M157.905 341.6H148.005L148.105 334.1H158.005L157.905 341.6Z" fill="#D6985B"/>
<path d="M137.405 338.4H116.405V351.2H137.405V338.4Z" fill="#EFBA73"/>
<path d="M136.705 338.4H116.405V350.6H136.705V338.4Z" fill="#F8F7F5"/>
<path d="M118.805 340.3H117.405V348.8H118.805V340.3Z" fill="#D4C8D6"/>
<path d="M124.105 340.3H122.705V348.8H124.105V340.3Z" fill="#D4C8D6"/>
<path d="M122.205 340.3H121.105V348.8H122.205V340.3Z" fill="#D4C8D6"/>
<path d="M120.205 340.3H119.505V348.8H120.205V340.3Z" fill="#D4C8D6"/>
<path d="M125.405 340.3H125.005V348.8H125.405V340.3Z" fill="#D4C8D6"/>
<path d="M127.705 340.3H126.305V348.8H127.705V340.3Z" fill="#D4C8D6"/>
<path d="M135.805 340.3H129.105V341.4H135.805V340.3Z" fill="#D4C8D6"/>
<path d="M135.805 341.8H129.105V342.9H135.805V341.8Z" fill="#D4C8D6"/>
<path d="M135.805 344.2H129.105V344.6H135.805V344.2Z" fill="#D4C8D6"/>
<path d="M135.805 345.6H129.105V346H135.805V345.6Z" fill="#D4C8D6"/>
<path d="M135.805 347H129.105V347.4H135.805V347Z" fill="#D4C8D6"/>
<path d="M135.805 348.4H129.105V348.8H135.805V348.4Z" fill="#D4C8D6"/>
<path d="M80.5053 272.8C80.5053 272.8 82.0053 274.4 86.5053 275.3C90.3053 276.1 94.2053 274.4 96.3053 275C98.5053 275.6 99.8053 278.8 102.605 278.9C102.605 278.9 98.7053 292.5 89.6053 293.8C80.5053 295.1 76.3053 284 76.3053 284C76.3053 284 77.0053 279.8 80.5053 272.8Z" fill="#E7DEE8"/>
<path d="M80.6053 274.3C80.5053 274.3 80.4053 274.3 80.2053 274.2C77.8053 272.6 76.1053 268.5 76.0053 268.3C75.9053 268 76.0053 267.6 76.3053 267.5C76.6053 267.4 77.0053 267.5 77.1053 267.8C77.1053 267.8 78.8053 271.7 80.9053 273.1C81.2053 273.3 81.3053 273.7 81.1053 274C81.0053 274.2 80.8053 274.3 80.6053 274.3Z" fill="#E7DEE8"/>
<path d="M77.1053 284.8C76.9053 284.8 76.7053 284.7 76.5053 284.5C74.6053 280.9 73.7053 276.2 73.7053 276C73.6053 275.7 73.9053 275.3 74.2053 275.3C74.5053 275.2 74.9053 275.5 74.9053 275.8C74.9053 275.8 75.8053 280.5 77.6053 283.9C77.8053 284.2 77.6053 284.6 77.3053 284.7C77.3053 284.8 77.2053 284.8 77.1053 284.8Z" fill="#E7DEE8"/>
<path d="M96.5053 275.1C97.1053 277.3 97.8053 277.8 97.6053 280.5C97.5053 282 95.4053 289.2 89.0053 291.5C85.6053 292.7 82.3053 291.5 80.1053 290C82.3053 292.4 85.5053 294.5 89.7053 293.9C98.8053 292.6 102.705 279 102.705 279C99.9053 278.8 98.6053 275.8 96.5053 275.1Z" fill="#C5BBC7"/>
<path d="M84.2053 280.9C89.0053 282.9 94.4053 284 99.6053 283.8C99.9053 283.8 99.9053 283.4 99.6053 283.4C94.3053 283.1 89.4053 282.3 84.3053 280.7C84.1053 280.6 84.0053 280.9 84.2053 280.9Z" fill="#C5BBC7"/>
<path d="M87.9053 285.2C90.6053 286.4 93.5053 287.1 96.5053 287C96.8053 287 96.8053 286.5 96.5053 286.5C93.6053 286.3 90.8053 285.8 88.1053 284.9C87.9053 284.8 87.7053 285.1 87.9053 285.2Z" fill="#C5BBC7"/>
<path d="M83.5053 286.8C86.8053 288.8 90.9053 290 94.8053 289.9C95.1053 289.9 95.1053 289.5 94.8053 289.4C90.8053 288.9 87.4053 288.1 83.7053 286.5C83.5053 286.4 83.3053 286.7 83.5053 286.8Z" fill="#C5BBC7"/>
<path d="M117.805 358.6C119.505 359.6 119.105 360.5 117.605 362.3C116.005 364.1 115.005 365.4 115.005 365.4C115.005 365.4 127.905 364.8 128.705 366.1C129.405 367.5 128.505 369.5 124.505 369.7C124.505 369.7 128.905 369.2 129.405 370.5C130.005 371.7 128.405 374.3 121.905 374.2C121.905 374.2 125.005 374 125.305 374.8C125.605 375.6 125.105 377.8 118.305 377.4C110.805 377 105.905 373 105.905 373L113.805 363.1L117.805 358.6Z" fill="#EFBA73"/>
<path d="M66.4053 332.2C68.4053 337.1 74.9053 345.4 81.3053 350.5C89.4053 356.8 95.3053 362.4 106.505 363.8L105.805 372.6C105.805 372.6 86.0053 371.6 70.1053 361.7C56.6053 353.2 49.6053 339.9 49.6053 339.9L66.4053 332.2Z" fill="url(#paint11_linear)"/>
<path d="M103.205 372.4L102.905 363.2C102.805 363.2 102.605 363.1 102.505 363.1C100.305 364.7 99.1053 369.9 99.1053 369.9C99.1053 369.9 81.8053 367.7 71.6053 360.9C61.5053 354.1 55.5053 344.1 55.5053 344.1C62.4053 341.3 67.8053 336.9 68.6053 336.2C67.6053 334.7 66.9053 333.3 66.4053 332.1L49.6053 339.8C49.6053 339.8 56.5053 353.2 70.1053 361.6C82.5053 369.5 97.3053 371.8 103.205 372.4Z" fill="#D27A84"/>
<path d="M45.0053 336L65.9053 325.6C62.8053 320.4 56.6053 295.8 44.8053 300.3C33.0053 304.8 37.8053 324.2 45.0053 336Z" fill="#D94167"/>
<path d="M43.6053 336.2C52.0053 331.6 60.2053 327.9 66.7053 325L70.3053 332C65.3053 336 56.8053 340 47.2053 343.2L43.6053 336.2Z" fill="#E7DEE8"/>
<path d="M103.005 362.3C105.105 363.1 107.205 363.4 107.705 363.3C111.805 362.6 116.705 357.6 117.705 358.6C119.205 360.7 113.805 363.8 114.005 364.4C114.205 365 117.805 365.1 120.505 365.2C123.005 365.3 128.205 364.5 128.605 366.1C129.005 367.7 123.205 368.2 121.205 368.4C119.205 368.6 117.205 368.5 116.905 368.9C116.605 369.3 119.005 369.3 121.605 369.4C123.605 369.5 129.205 368.8 129.405 370.4C129.505 371.8 126.105 372.4 121.805 372.4C118.705 372.4 116.905 372.6 116.905 372.9C116.905 373.3 118.505 373.5 120.405 373.5C122.305 373.5 125.105 373.6 125.205 374.6C125.305 375.6 122.505 375.9 119.905 375.8C117.305 375.7 111.205 375.7 105.505 373.3C105.505 373.3 104.405 372.8 100.005 372.5C100.105 372.5 100.205 365.7 103.005 362.3Z" fill="#D94167"/>
<path d="M102.605 241.9C96.8053 236.4 78.5053 234.4 70.0053 244.1C67.1053 247.4 65.8053 251.8 65.3053 255.7C68.1053 257.5 69.0053 261.1 69.0053 261.1L65.1053 262.2C65.2053 264.2 65.4053 265.5 65.4053 265.5C98.5053 255.4 110.105 259.8 110.105 259.8C110.105 259.8 107.905 246.9 102.605 241.9Z" fill="#D94167"/>
<path d="M65.8053 256C65.8053 256 63.3053 260.2 63.8053 263.9L65.1053 262.2L67.7053 261.4L65.8053 256Z" fill="#80545A"/>
<path d="M86.8053 259.7C86.8053 259.7 94.8053 265.2 98.8053 266.2C106.505 268.3 116.705 267.6 118.205 266.3C119.705 265 110.205 259.6 110.205 259.6C110.205 259.6 105.705 257 86.8053 259.7Z" fill="#D94167"/>
<path d="M89.9053 257.6L109.805 258.2C109.005 254.7 106.705 245.9 102.605 242C99.6053 239.1 93.2053 237.2 86.6053 237.4C87.4053 237.4 97.6053 237.4 99.9053 244.8C102.605 253.8 89.9053 257.6 89.9053 257.6Z" fill="#BF3054"/>
<path d="M19.6053 379.2L31.0053 382C31.0053 382 26.1053 389.1 18.7053 391.1L19.6053 379.2Z" fill="#474557"/>
<path d="M77.8053 381L73.3053 381.9C73.3053 381.9 76.2053 386.7 80.0053 389.7L77.8053 381Z" fill="#3F3E4F"/>
<path d="M110.105 259.7C110.105 259.7 109.905 258.5 109.505 256.8C91.6053 253.5 69.0053 261.1 69.0053 261.1L65.1053 262.2C65.2053 264.2 65.4053 265.5 65.4053 265.5C98.5053 255.4 110.105 259.7 110.105 259.7Z" fill="#BF3054"/>
<path d="M99.1053 265C96.2053 264.2 91.0053 261 88.5053 259.4C87.9053 259.5 87.4053 259.6 86.8053 259.6C86.8053 259.6 94.8053 265.1 98.8053 266.1C106.505 268.2 116.705 267.5 118.205 266.2C118.505 266 118.405 265.6 118.105 265.2C115.705 266.6 106.305 267 99.1053 265Z" fill="#BF3054"/>
<path d="M18.4053 400.6C18.2053 416.3 21.6053 442.6 20.4053 451.7C19.2053 460.9 6.70531 502.7 7.00531 508.9C7.30531 515.1 9.10531 519.4 12.9053 520.8C13.2053 520.9 13.6053 521 13.9053 521.1C10.8053 519.4 7.80532 514.7 8.30532 508.6C9.10532 497.8 23.5053 463.8 24.2053 452.9C24.6053 446.7 19.2053 409.9 18.4053 396.3C18.4053 397.7 18.4053 399.1 18.4053 400.6Z" fill="#474557"/>
<path d="M60.3053 372.8C57.5053 372.8 55.2053 374.9 55.2053 377.6C55.2053 380.2 57.5053 382.4 60.3053 382.4C63.1053 382.4 65.4053 380.3 65.4053 377.6C65.4053 374.9 63.1053 372.8 60.3053 372.8ZM60.3053 380.3C58.7053 380.3 57.4053 379.1 57.4053 377.6C57.4053 376.1 58.7053 374.9 60.3053 374.9C61.9053 374.9 63.2053 376.1 63.2053 377.6C63.2053 379.1 61.9053 380.3 60.3053 380.3Z" fill="#A5ADBC"/>
<path d="M128.405 197.7C127.505 198.9 126.105 199.5 124.205 199.5C122.305 199.5 120.905 198.9 119.905 197.6C119.005 196.3 118.505 194.5 118.505 192.1V180.8C118.505 177 119.505 174.6 121.505 173.6C122.205 173.2 123.105 173.1 124.205 173.1C127.805 173.1 129.605 175.4 129.605 180V183.5H125.805V180.2C125.805 178.9 125.705 177.9 125.505 177.3C125.305 176.7 124.805 176.4 124.205 176.4C123.505 176.4 123.105 176.7 122.805 177.3C122.505 177.9 122.405 178.8 122.405 180.1V192.2C122.405 193.6 122.505 194.6 122.805 195.2C123.005 195.8 123.505 196.1 124.105 196.1C124.705 196.1 125.205 195.8 125.405 195.2C125.605 194.6 125.805 193.6 125.805 192.2V188.5H129.705V192.2C129.805 194.6 129.305 196.5 128.405 197.7Z" fill="#D94167"/>
<path d="M142.705 197.6C141.805 198.8 140.405 199.5 138.405 199.5C136.405 199.5 135.005 198.9 134.005 197.6C133.105 196.4 132.605 194.5 132.605 192V180.1C132.605 175.4 134.505 173 138.405 173C140.405 173 141.805 173.6 142.705 174.8C143.605 176 144.005 177.8 144.005 180.1V192C144.005 194.5 143.605 196.4 142.705 197.6ZM136.905 195.2C137.105 195.8 137.605 196.1 138.305 196.1C139.005 196.1 139.505 195.8 139.705 195.2C139.905 194.6 140.005 193.5 140.005 192.1V180C140.005 178.8 139.905 177.9 139.705 177.3C139.505 176.7 139.005 176.5 138.405 176.5C137.705 176.5 137.305 176.8 137.005 177.3C136.705 177.9 136.605 178.8 136.605 180V192C136.605 193.5 136.705 194.6 136.905 195.2Z" fill="#D94167"/>
<path d="M147.605 199.2V173.4H150.705L156.205 188.9L155.905 181.9V173.5H159.405V199.3H156.605L151.005 183.3L151.205 190.1V199.4H147.605V199.2Z" fill="#D94167"/>
<path d="M164.605 199.2V176.8H161.605V173.4H171.405V176.8H168.505V199.2H164.605Z" fill="#D94167"/>
<path d="M172.405 199.2L176.105 173.4H181.305L185.205 199.2H181.505L180.905 194.6H176.705L176.105 199.2H172.405ZM180.505 191.4L178.805 178.4H178.705L177.105 191.4H180.505Z" fill="#D94167"/>
<path d="M197.405 197.7C196.505 198.9 195.105 199.5 193.205 199.5C191.305 199.5 189.905 198.9 188.905 197.6C188.005 196.3 187.505 194.5 187.505 192.1V180.8C187.505 177 188.505 174.6 190.505 173.6C191.205 173.2 192.105 173.1 193.205 173.1C196.805 173.1 198.605 175.4 198.605 180V183.5H194.805V180.2C194.805 178.9 194.705 177.9 194.505 177.3C194.305 176.7 193.805 176.4 193.205 176.4C192.505 176.4 192.105 176.7 191.805 177.3C191.505 177.9 191.405 178.8 191.405 180.1V192.2C191.405 193.6 191.505 194.6 191.805 195.2C192.005 195.8 192.505 196.1 193.105 196.1C193.705 196.1 194.205 195.8 194.405 195.2C194.605 194.6 194.805 193.6 194.805 192.2V188.5H198.705V192.2C198.705 194.6 198.305 196.5 197.405 197.7Z" fill="#D94167"/>
<path d="M203.205 199.2V176.8H200.205V173.4H210.005V176.8H207.105V199.2H203.205Z" fill="#D94167"/>
<path d="M212.205 199.2V173.4H216.105V195.9H221.105V199.2H212.205Z" fill="#D94167"/>
<path d="M223.405 199.2V173.4H232.105V176.8H227.305V184.3H231.805V187.6H227.305V195.8H232.205V199.2H223.405Z" fill="#D94167"/>
<path d="M234.805 191.9V189.6H238.505V192.2C238.505 193.6 238.605 194.6 238.905 195.2C239.105 195.8 239.605 196.1 240.305 196.1C241.005 196.1 241.405 195.9 241.605 195.4C241.805 194.9 241.905 194.1 241.905 193.1C241.905 192 241.705 191.1 241.305 190.3C240.905 189.5 240.305 188.7 239.405 187.8L237.505 185.8C236.605 184.9 235.905 183.9 235.405 182.9C234.905 181.9 234.705 180.7 234.705 179.4C234.705 177.3 235.105 175.7 235.905 174.6C236.705 173.6 238.105 173 240.105 173C242.105 173 243.505 173.6 244.205 174.8C244.905 176 245.305 177.8 245.305 180.1V181.7H241.705V179.9C241.705 178.6 241.605 177.8 241.405 177.2C241.205 176.7 240.805 176.4 240.205 176.4C239.605 176.4 239.105 176.6 238.905 177C238.605 177.4 238.505 178 238.505 178.8C238.505 179.6 238.605 180.3 238.905 180.8C239.205 181.3 239.705 181.9 240.405 182.7L242.505 185C243.605 186.2 244.405 187.3 244.905 188.5C245.405 189.7 245.705 191 245.705 192.4C245.705 194.8 245.305 196.6 244.505 197.8C243.705 199 242.305 199.5 240.205 199.5C238.205 199.5 236.805 198.9 236.005 197.6C235.205 196.2 234.805 194.4 234.805 191.9Z" fill="#D94167"/>
<path d="M248.105 191.9V189.6H251.805V192.2C251.805 193.6 251.905 194.6 252.205 195.2C252.405 195.8 252.905 196.1 253.605 196.1C254.305 196.1 254.705 195.9 254.905 195.4C255.105 194.9 255.205 194.1 255.205 193.1C255.205 192 255.005 191.1 254.605 190.3C254.205 189.5 253.605 188.7 252.705 187.8L250.805 185.8C249.905 184.9 249.205 183.9 248.705 182.9C248.205 181.9 248.005 180.7 248.005 179.4C248.005 177.3 248.405 175.7 249.205 174.6C250.005 173.6 251.405 173 253.405 173C255.405 173 256.805 173.6 257.505 174.8C258.205 176 258.605 177.8 258.605 180.1V181.7H255.005V179.9C255.005 178.6 254.905 177.8 254.705 177.2C254.505 176.7 254.105 176.4 253.505 176.4C252.905 176.4 252.405 176.6 252.205 177C251.905 177.4 251.805 178 251.805 178.8C251.805 179.6 251.905 180.3 252.205 180.8C252.505 181.3 253.005 181.9 253.705 182.7L255.805 185C256.905 186.2 257.705 187.3 258.205 188.5C258.705 189.7 259.005 191 259.005 192.4C259.005 194.8 258.605 196.6 257.805 197.8C257.005 199 255.605 199.5 253.505 199.5C251.505 199.5 250.105 198.9 249.305 197.6C248.505 196.2 248.105 194.4 248.105 191.9Z" fill="#D94167"/>
<path d="M267.305 199.2V173.4H273.105C275.005 173.4 276.405 174 277.205 175.1C278.105 176.2 278.505 177.9 278.505 180V191.6C278.505 194.2 278.105 196.1 277.205 197.3C276.305 198.5 274.905 199.1 272.905 199.1H267.305V199.2ZM271.205 196.1H272.505C273.205 196.1 273.705 195.9 274.105 195.4C274.405 194.9 274.605 194.1 274.605 192.8V180.1C274.605 178.8 274.405 177.8 274.105 177.2C273.805 176.6 273.205 176.3 272.405 176.3H271.205V196.1Z" fill="#D94167"/>
<path d="M282.005 199.2V173.4H290.705V176.8H286.005V184.3H290.505V187.6H286.005V195.8H290.905V199.2H282.005Z" fill="#D94167"/>
<path d="M294.005 199.2V173.4H297.905V195.9H302.905V199.2H294.005Z" fill="#D94167"/>
<path d="M305.305 199.2V173.4H309.205V199.2H305.305Z" fill="#D94167"/>
<path d="M316.105 199.2L312.105 173.4H315.805L317.505 185.1L318.505 193.3H318.605L319.505 185.1L320.905 173.4H324.605L320.905 199.2H316.105Z" fill="#D94167"/>
<path d="M327.405 199.2V173.4H336.105V176.8H331.305V184.3H335.805V187.6H331.305V195.8H336.205V199.2H327.405Z" fill="#D94167"/>
<path d="M344.605 187H343.305V199.2H339.405V173.4H345.905C347.205 173.4 348.305 173.7 348.905 174.2C349.605 174.7 350.005 175.5 350.205 176.5C350.405 177.5 350.505 178.7 350.505 180.3C350.505 181.9 350.305 183.1 350.005 183.9C349.705 184.7 349.105 185.3 348.205 185.6C349.105 185.8 349.705 186.4 350.105 187.4C350.505 188.4 350.605 190.6 350.605 193.9C350.605 197.2 350.605 199 350.705 199.2H346.805C346.705 199 346.705 195.9 346.705 189.9C346.705 188.8 346.605 188 346.305 187.6C345.905 187.3 345.405 187.1 344.605 187ZM343.305 183.9H344.905C345.405 183.9 345.805 183.8 346.005 183.6C346.205 183.4 346.405 183 346.505 182.4C346.605 181.9 346.605 181 346.605 179.9V179.7C346.605 178.3 346.505 177.4 346.205 177C346.005 176.6 345.405 176.4 344.605 176.4H343.305V183.9Z" fill="#D94167"/>
<path d="M356.505 199.2V188.9L352.205 173.4H356.005L358.605 183.1H358.705L361.005 173.4H364.705L360.605 188.9V199.2H356.505Z" fill="#D94167"/>
<defs>
<linearGradient id="paint0_linear" x1="246" y1="0" x2="246" y2="714" gradientUnits="userSpaceOnUse">
<stop stop-color="white"/>
<stop offset="1" stop-color="#00A8EA"/>
</linearGradient>
<linearGradient id="paint1_linear" x1="475.656" y1="396.655" x2="451.283" y2="354.236" gradientUnits="userSpaceOnUse">
<stop stop-color="#FF9595"/>
<stop offset="0.131" stop-color="#FFA39C"/>
<stop offset="0.3346" stop-color="#FFB2A4"/>
<stop offset="0.5" stop-color="#FFB7A7"/>
<stop offset="0.6696" stop-color="#FFB0A3"/>
<stop offset="0.9092" stop-color="#FF9E9A"/>
<stop offset="1" stop-color="#FF9595"/>
</linearGradient>
<linearGradient id="paint2_linear" x1="413.157" y1="524.011" x2="410.534" y2="507.906" gradientUnits="userSpaceOnUse">
<stop stop-color="#FFB7A7"/>
<stop offset="1" stop-color="#FF9595"/>
</linearGradient>
<linearGradient id="paint3_linear" x1="428.307" y1="523.937" x2="425.667" y2="507.724" gradientUnits="userSpaceOnUse">
<stop stop-color="#FFB7A7"/>
<stop offset="1" stop-color="#FF9595"/>
</linearGradient>
<linearGradient id="paint4_linear" x1="473.404" y1="397.488" x2="450.836" y2="358.211" gradientUnits="userSpaceOnUse">
<stop stop-color="#FF9595"/>
<stop offset="0.131" stop-color="#FFA39C"/>
<stop offset="0.3346" stop-color="#FFB2A4"/>
<stop offset="0.5" stop-color="#FFB7A7"/>
<stop offset="0.6696" stop-color="#FFB0A3"/>
<stop offset="0.9092" stop-color="#FF9E9A"/>
<stop offset="1" stop-color="#FF9595"/>
</linearGradient>
<linearGradient id="paint5_linear" x1="419.876" y1="314.474" x2="419.876" y2="289.378" gradientUnits="userSpaceOnUse">
<stop stop-color="#FFB7A7"/>
<stop offset="1" stop-color="#FF9595"/>
</linearGradient>
<linearGradient id="paint6_linear" x1="411.223" y1="299.871" x2="425.999" y2="251.818" gradientUnits="userSpaceOnUse">
<stop stop-color="#FFB7A7"/>
<stop offset="1" stop-color="#FF9595"/>
</linearGradient>
<linearGradient id="paint7_linear" x1="357.04" y1="309.435" x2="383.264" y2="358.306" gradientUnits="userSpaceOnUse">
<stop stop-color="#FFB7A7"/>
<stop offset="1" stop-color="#FF9595"/>
</linearGradient>
<linearGradient id="paint8_linear" x1="479.383" y1="397.02" x2="449.495" y2="352.612" gradientUnits="userSpaceOnUse">
<stop stop-color="#FF9595"/>
<stop offset="0.131" stop-color="#FFA39C"/>
<stop offset="0.3346" stop-color="#FFB2A4"/>
<stop offset="0.5" stop-color="#FFB7A7"/>
<stop offset="0.6696" stop-color="#FFB0A3"/>
<stop offset="0.9092" stop-color="#FF9E9A"/>
<stop offset="1" stop-color="#FF9595"/>
</linearGradient>
<linearGradient id="paint9_linear" x1="135.429" y1="387.157" x2="98.6206" y2="308.943" gradientUnits="userSpaceOnUse">
<stop stop-color="#FFB7A7"/>
<stop offset="1" stop-color="#FF9595"/>
</linearGradient>
<linearGradient id="paint10_linear" x1="82.5725" y1="294.513" x2="95.35" y2="229.566" gradientUnits="userSpaceOnUse">
<stop stop-color="#FFB7A7"/>
<stop offset="1" stop-color="#FF9595"/>
</linearGradient>
<linearGradient id="paint11_linear" x1="82.0226" y1="378.101" x2="71.2951" y2="307.525" gradientUnits="userSpaceOnUse">
<stop stop-color="#FFB7A7"/>
<stop offset="1" stop-color="#FF9595"/>
</linearGradient>
</defs>
</svg>
