<svg width="774" height="774" viewBox="0 0 774 774" fill="none" xmlns="http://www.w3.org/2000/svg">
<path d="M106.106 676.867V683.36C106.106 690.545 111.978 696.381 119.2 696.381H654.581C661.803 696.381 667.675 690.545 667.675 683.36V676.867H106.106Z" fill="#54608A"/>
<path d="M654.581 691.165H119.2C111.978 691.165 106.106 685.329 106.106 678.144V683.36C106.106 690.545 111.978 696.381 119.2 696.381H654.581C661.803 696.381 667.675 690.545 667.675 683.36V678.144C667.675 685.329 661.803 691.165 654.581 691.165Z" fill="#34436B"/>
<path d="M155.639 686.606C155.639 687.7 156.514 688.576 157.609 688.576H466.953C468.047 688.576 468.923 687.7 468.923 686.606C468.923 685.512 468.047 684.636 466.953 684.636H157.572C156.514 684.673 155.639 685.548 155.639 686.606Z" fill="#47A3DB"/>
<path d="M664.465 668.843C670.703 676.831 667.529 683.36 657.389 683.36H116.392C106.252 683.36 103.042 676.831 109.316 668.843L180.26 578.129C186.497 570.141 199.92 563.612 210.06 563.612H563.648C573.789 563.612 587.211 570.141 593.449 578.129L664.465 668.843Z" fill="#5F71AA"/>
<path d="M644.331 663.955C650.131 671.031 647.176 676.867 637.766 676.867H135.979C126.568 676.867 123.614 671.068 129.413 663.955L195.251 583.455C201.05 576.378 213.488 570.542 222.899 570.542H550.846C560.256 570.542 572.694 576.342 578.494 583.455L644.331 663.955Z" fill="#A2DCEE"/>
<path d="M529.617 687.153C529.617 687.919 528.742 688.576 527.648 688.576H476.218C475.124 688.576 474.248 687.956 474.248 687.153C474.248 686.387 475.124 685.731 476.218 685.731H527.648C528.742 685.731 529.617 686.387 529.617 687.153Z" fill="#47A3DB"/>
<path d="M642.435 687.591C642.435 688.138 641.997 688.576 641.45 688.576H542.092C541.545 688.576 541.107 688.138 541.107 687.591C541.107 687.044 541.545 686.606 542.092 686.606H641.45C641.997 686.606 642.435 687.044 642.435 687.591Z" fill="#47A3DB"/>
<path d="M581.448 627.115L610.592 622.629L604.865 615.626L580.901 619.309L578.932 583.965L578.53 583.455C576.998 581.594 575.029 579.844 572.804 578.239L573.023 581.302L534.906 574.956L534.614 570.579H529.398L536.876 676.867H542.092L537.35 609.571L551.685 614.969L557.885 662.97H578.786L579.771 676.867H584.986L581.448 627.115ZM564.706 655.164L558.761 609.315L536.657 600.999L535.38 582.98L573.497 589.327L578.129 655.201H564.706V655.164Z" fill="#F4FAFC"/>
<path d="M501.933 676.867L508.754 570.579H503.538L498.759 641.304H477.786L470.71 582.287H435.585L433.542 570.579H428.253L436.059 615.516L412.168 609.352L409.505 570.579H404.289L406.879 607.966L395.17 604.938L389.882 581.704L355.449 587.759L347.57 570.579H341.953L376.386 655.31L328.129 659.25L324.774 637.802L324.117 633.681L318.281 596.549L317.588 592.245L314.196 570.542H308.943L312.445 592.756L288.007 595.09V570.542H281.952V595.674L244.747 599.248L252.188 570.579H246.826L244.784 578.385V574.482H216.151L217.282 571.163C215.276 571.564 213.233 572.147 211.19 572.913L210.68 574.482H209.367V578.385L200.904 603.479L177.05 605.777L173.183 610.519L199.372 608.002L194.157 623.395L164.539 621.06L161.183 625.146L192.734 627.662L176.138 676.904H181.646L198.132 628.1L231.288 630.726L219.324 676.904H224.686L236.541 631.128L262.219 633.17L258.863 676.904H266.705L270.025 633.79L319.485 637.693L325.649 676.904H330.901L329.333 667.019L379.523 662.788L385.14 676.904H390.757L357.601 595.273L383.9 590.64L395.717 642.617L409.067 639.991L411.621 676.831H416.837L415.888 662.934H444.339L446.746 676.831H452.035L436.971 590.057H463.816L470.893 649.073H498.541L496.753 676.831H501.933V676.867ZM213.525 582.287H243.799L239.276 599.795L206.595 602.932L213.525 582.287ZM232.346 626.386L199.518 623.796L205.026 607.419L238.072 604.245L232.346 626.386ZM237.598 626.823L243.58 603.735L281.952 600.051L287.934 599.467L313.065 597.06L318.755 633.243L237.598 626.823ZM401.663 633.498L397.104 613.474L407.426 616.136L408.52 632.149L401.663 633.498ZM437.518 623.905L442.953 655.165H415.341L412.751 617.522L437.518 623.905Z" fill="#F4FAFC"/>
<path opacity="0.6" d="M182.521 632.586L157.827 629.158L129.377 663.955C123.577 671.031 126.532 676.867 135.942 676.867H167.311L182.521 632.586Z" fill="#54B1C9"/>
<path opacity="0.6" d="M205.026 607.419L199.518 623.796L232.346 626.386L238.072 604.245L205.026 607.419Z" fill="#54B1C9"/>
<path opacity="0.6" d="M272.651 636.818L269.733 676.867H321.783L316.275 639.772L272.651 636.818Z" fill="#54B1C9"/>
<path opacity="0.6" d="M360.519 597.133L381.346 648.526L393.128 643.675L382.659 593.558L360.519 597.133Z" fill="#54B1C9"/>
<path opacity="0.6" d="M407.39 642.69L396.301 644.951L385.249 654.727L393.128 675.226H409.651L407.39 642.69Z" fill="#54B1C9"/>
<path opacity="0.6" d="M409.469 570.542L412.168 609.315L436.059 615.48L428.253 570.542H409.469Z" fill="#54B1C9"/>
<path opacity="0.6" d="M508.754 570.542L505.507 621.06L532.244 612.087L529.326 570.542H508.754Z" fill="#54B1C9"/>
<path opacity="0.6" d="M532.244 615.48L505.507 627.407L501.933 676.867H536.803L532.244 615.48Z" fill="#54B1C9"/>
<path opacity="0.6" d="M574.482 602.641L558.797 609.279L564.706 655.165H578.202L574.482 602.641Z" fill="#54B1C9"/>
<path d="M218.048 504.814C198.935 504.814 183.433 520.316 183.433 539.429C183.433 542.675 183.871 545.812 184.71 548.767C190.91 577.035 218.048 611.175 218.048 611.175C218.048 611.175 245.185 577.035 251.386 548.767C252.225 545.776 252.662 542.639 252.662 539.429C252.662 520.353 237.161 504.814 218.048 504.814ZM218.048 547.49C209.585 547.49 202.728 540.633 202.728 532.171C202.728 523.708 209.585 516.851 218.048 516.851C226.51 516.851 233.367 523.708 233.367 532.171C233.331 540.633 226.473 547.49 218.048 547.49Z" fill="#EF3E65"/>
<path d="M557.411 557.849C543.514 557.849 532.28 569.12 532.28 582.98C532.28 585.351 532.608 587.612 533.228 589.765C537.751 610.3 557.448 635.103 557.448 635.103C557.448 635.103 577.144 610.3 581.667 589.765C582.287 587.612 582.616 585.315 582.616 582.98C582.543 569.12 571.308 557.849 557.411 557.849ZM557.411 588.816C551.284 588.816 546.286 583.856 546.286 577.691C546.286 571.563 551.247 566.566 557.411 566.566C563.539 566.566 568.536 571.527 568.536 577.691C568.536 583.856 563.539 588.816 557.411 588.816Z" fill="#EF3E65"/>
<path d="M396.483 606.142H414.028C413.226 602.823 412.423 599.868 411.621 597.899L412.496 586.154L398.526 587.066C398.526 587.066 398.854 594.835 397.286 602.495C397.031 603.552 396.775 604.793 396.483 606.142Z" fill="#FDE6E1"/>
<path d="M419.171 591.734C419.171 591.734 423.658 384.045 420.521 363.255L339.364 364.568C339.364 364.568 348.483 523.854 351.912 590.056C351.912 590.056 361.833 591.515 378.137 589.582C378.903 565.144 379.377 430.879 381.128 420.119L394.004 591.734C394.004 591.734 408.849 594.652 419.171 591.734Z" fill="#574C75"/>
<path opacity="0.4" d="M421.505 389.006C421.505 388.933 421.505 388.897 421.505 388.824C421.505 388.277 421.505 387.766 421.469 387.219C421.469 386.854 421.469 386.526 421.469 386.161C421.469 385.614 421.469 385.067 421.432 384.556C421.432 384.264 421.432 383.973 421.432 383.681C421.396 382.514 421.396 381.419 421.359 380.325C421.359 380.216 421.359 380.106 421.359 379.997C421.359 379.486 421.323 379.012 421.323 378.538C421.323 378.282 421.323 377.991 421.287 377.735C421.287 377.261 421.25 376.823 421.25 376.386C421.25 376.094 421.25 375.839 421.214 375.583C421.214 375.182 421.177 374.744 421.177 374.343C421.141 373.76 421.141 373.176 421.104 372.629C421.104 372.337 421.068 372.045 421.068 371.717C421.068 371.389 421.031 371.06 421.031 370.769C421.031 370.477 420.995 370.221 420.995 369.966C420.995 369.638 420.958 369.31 420.958 369.018C420.958 368.799 420.922 368.58 420.922 368.361C420.885 367.887 420.849 367.413 420.849 366.975C420.849 366.866 420.849 366.756 420.812 366.647C420.776 366.319 420.776 365.99 420.739 365.662C420.739 365.516 420.703 365.37 420.703 365.261C420.666 365.006 420.666 364.75 420.63 364.495C420.63 364.385 420.594 364.276 420.594 364.167C420.557 363.838 420.521 363.547 420.484 363.255L400.35 363.583L339.327 364.568C339.327 364.568 339.619 369.528 340.093 378.064C353.443 380.434 379.267 384.775 401.626 387.292L412.46 586.154L419.244 586.956C419.791 561.825 422.125 443.39 421.505 389.006Z" fill="#483F66"/>
<path opacity="0.4" d="M369.091 587.759L378.21 586.81C378.939 556.39 379.413 430.551 381.128 420.156C381.128 420.156 367.413 436.788 366.1 456.449C364.75 476.072 369.091 587.759 369.091 587.759Z" fill="#483F66"/>
<path d="M355.157 606.47L371.097 606.105C370.295 602.786 370.696 601.4 370.295 598.227L371.17 586.482L357.2 587.394C357.2 587.394 357.492 595.163 355.96 602.823C355.741 603.917 355.486 605.157 355.157 606.47Z" fill="#FDE6E1"/>
<g opacity="0.5">
<path opacity="0.5" d="M380.763 418.15L380.836 412.788C380.836 412.788 380.726 412.824 380.507 412.897L380.763 418.15Z" fill="#3A5C9A"/>
</g>
<path d="M380.69 594.288H348.92V581.923H380.69V594.288Z" fill="#675D86"/>
<path d="M422.053 594.288H390.283V581.923H422.053V594.288Z" fill="#675D86"/>
<path d="M475.671 296.031C478.297 289.21 475.671 285.672 475.671 285.672C472.06 276.554 449.555 239.787 449.555 239.787L435.767 259.046L456.339 294.937C454.296 300.882 447.877 335.461 445.068 354.245L454.515 351.072C454.552 351.072 474.613 298.767 475.671 296.031Z" fill="#FAB18C"/>
<path opacity="0.4" d="M451.634 243.179L443.974 247.629L435.804 259.046L444.193 273.709C449.701 271.447 457.652 267.909 464.108 264.152C459.33 255.909 454.333 247.629 451.634 243.179Z" fill="#D1614C"/>
<path d="M365.297 185.329H400.386L386.125 218.303L369.674 206.959L365.297 185.329Z" fill="#952731"/>
<path d="M430.113 225.379C431.755 216.041 432.667 195.397 410.162 192.187C410.162 192.187 391.596 188.357 387.365 187.336H376.969C372.629 188.357 360.373 189.634 354.027 191.311C354.027 191.311 339.546 191.968 330.646 207.36C330.646 207.36 329.99 211.154 332.543 225.343H430.113V225.379Z" fill="#DF8859"/>
<path d="M394.623 149.183C394.623 149.183 397.213 181.317 399.292 191.02C399.292 191.02 381.164 214.801 364.714 196.199C364.714 196.199 365.297 189.232 366.209 175.445L394.623 149.183Z" fill="#ED9771"/>
<path d="M409.25 141.706C409.25 141.706 414.648 132.842 416.654 139.481C418.916 146.885 411.292 161.183 406.113 153.961C406.113 153.961 404.727 149.329 409.25 141.706Z" fill="#ED9771"/>
<path d="M352.604 142.216C352.604 142.216 347.206 133.353 345.2 139.991C342.938 147.395 350.561 161.694 355.741 154.472C355.777 154.472 357.127 149.839 352.604 142.216Z" fill="#ED9771"/>
<path d="M385.869 184.162C394.332 181.208 403.815 168.077 403.815 168.077C407.207 164.721 410.964 132.258 410.964 132.258C410.599 100.16 382.185 100.233 380.544 100.27C378.866 100.27 350.489 100.853 350.853 132.951C350.853 132.951 352.604 159.068 357.419 166.691C357.419 166.691 362.379 176.284 377.079 184.016C377.079 183.98 381.237 186.424 385.869 184.162Z" fill="#FAB18C"/>
<path d="M404.727 111.431L359.607 112.234L357.82 118.434C357.82 118.434 393.347 127.371 410.855 129.267C410.271 121.352 407.9 115.626 404.727 111.431Z" fill="#E69B7A"/>
<path d="M367.085 142.398C367.085 143.967 367.851 145.243 368.835 145.243C369.82 145.243 370.586 143.967 370.586 142.398C370.586 140.83 369.82 139.553 368.835 139.553C367.851 139.553 367.085 140.83 367.085 142.398Z" fill="#120C27"/>
<path d="M390.429 142.69C390.429 144.259 391.195 145.535 392.179 145.535C393.128 145.535 393.93 144.259 393.93 142.69C393.93 141.122 393.164 139.845 392.179 139.845C391.195 139.845 390.429 141.122 390.429 142.69Z" fill="#120C27"/>
<path d="M352.13 145.535C352.13 145.535 355.413 145.207 355.303 142.435C355.194 139.626 353.698 132.368 353.735 129.559C353.771 126.714 362.015 114.167 365.37 112.27C365.37 112.27 368.361 114.678 373.14 115.845C377.918 117.048 398.198 121.827 405.931 122.41C405.931 122.41 408.411 129.559 407.937 132.733C407.463 135.942 404.873 145.317 405.931 146.484C406.988 147.651 408.119 148.526 408.994 146.994C409.87 145.462 415.706 133.608 415.961 127.845C416.217 122.045 415.451 103.917 407.098 96.8412C396.702 87.9778 375.401 87.0295 365.37 91.8077C355.34 96.5859 349.832 102.312 347.315 108.185C344.762 114.021 349.212 141.377 352.13 145.535Z" fill="#120C27"/>
<path d="M353.479 154.034C353.479 154.034 375.292 147.469 380.909 147.76C386.526 148.052 407.791 154.034 407.791 154.034C407.791 154.034 406.769 164.575 404.8 168.515C402.83 172.454 386.927 185.731 383.936 186.643C380.945 187.555 377.881 187.299 374.307 185.111C370.732 182.886 357.236 171.214 355.741 166.399C354.209 161.548 353.479 154.034 353.479 154.034Z" fill="#5BC9E6"/>
<path d="M353.479 154.034C353.479 154.034 353.662 155.748 353.99 158.046C359.936 154.8 377.042 151.918 381.237 151.298C385.432 150.678 403.085 155.967 407.39 157.28C407.645 155.384 407.791 154.034 407.791 154.034C407.791 154.034 386.526 148.089 380.909 147.76C375.292 147.469 353.479 154.034 353.479 154.034Z" fill="#F7FCFE"/>
<path d="M349.796 138.714C349.796 138.714 354.683 155.165 355.96 155.894C355.96 155.894 358.878 156.514 358.695 155.055C358.513 153.669 349.796 138.714 349.796 138.714Z" fill="#F7FCFE"/>
<path d="M413.371 137.292C413.371 137.292 407.39 154.216 406.076 154.982C406.076 154.982 403.158 155.602 403.341 154.143C403.523 152.721 413.371 137.292 413.371 137.292Z" fill="#F7FCFE"/>
<path d="M346.549 114.495C346.549 114.495 342.282 102.531 345.601 95.8563C348.92 89.1449 372.848 77.6918 378.355 77.4365C378.355 77.4365 385.614 76.9623 389.298 79.1143C392.945 81.2663 413.773 88.6708 415.669 94.908C417.566 101.109 416.8 113.802 415.341 116.684C415.341 116.647 392.581 101.802 346.549 114.495Z" fill="#D5304A"/>
<path d="M346.549 114.495C346.549 114.495 361.467 101.948 370.586 100.27C379.705 98.5919 394.514 101.473 399.292 103.261C404.07 105.048 415.341 116.647 415.341 116.647C415.341 116.647 413.663 118.763 408.338 118.361C403.013 117.96 364.276 116.392 358.695 116.647C353.151 116.866 348.191 114.969 346.549 114.495Z" fill="#A01B3A"/>
<path d="M382.003 97.0235C385.649 97.0235 388.605 94.0677 388.605 90.4215C388.605 86.7753 385.649 83.8195 382.003 83.8195C378.357 83.8195 375.401 86.7753 375.401 90.4215C375.401 94.0677 378.357 97.0235 382.003 97.0235Z" fill="#F7FCFE"/>
<path d="M370.805 131.237C370.331 131.018 369.565 130.836 368.908 130.763C368.215 130.69 367.522 130.726 366.866 130.872C365.516 131.128 364.276 131.93 363.291 133.024L363.255 133.061C363.036 133.28 362.671 133.316 362.452 133.097C362.233 132.915 362.197 132.587 362.343 132.368C362.817 131.675 363.291 130.945 363.984 130.362C364.641 129.778 365.407 129.304 366.246 128.939C367.085 128.611 367.96 128.392 368.872 128.319C369.784 128.246 370.623 128.246 371.68 128.501C372.446 128.684 372.957 129.45 372.775 130.216C372.592 130.982 371.826 131.492 371.06 131.31C370.987 131.31 370.915 131.274 370.805 131.237Z" fill="#120C27"/>
<path d="M388.204 128.538C389.261 128.319 390.064 128.319 391.012 128.356C391.924 128.429 392.8 128.647 393.638 128.976C394.477 129.304 395.243 129.778 395.9 130.398C396.593 130.982 397.067 131.675 397.541 132.404C397.724 132.66 397.651 133.024 397.359 133.207C397.104 133.353 396.812 133.316 396.629 133.097L396.593 133.061C395.608 131.967 394.368 131.164 393.018 130.909C392.362 130.763 391.669 130.726 390.976 130.799C390.319 130.872 389.553 131.055 389.079 131.274C388.35 131.602 387.511 131.274 387.182 130.544C386.854 129.815 387.182 128.976 387.912 128.647C388.021 128.574 388.131 128.538 388.204 128.538Z" fill="#120C27"/>
<path d="M397.687 203.129C397.687 203.129 370.769 203.202 365.334 203.129C361.723 203.093 371.243 216.37 378.1 225.379H387.948L397.687 203.129Z" fill="#FEFCFD"/>
<path d="M337.102 255.325C339.655 280.347 341.516 285.454 342.5 307.193C342.5 307.193 340.713 331.266 338.342 349.212C338.342 349.212 337.503 358.075 336.737 371.024H427.378C426.977 361.54 426.502 353.334 426.028 349.212C423.657 331.303 421.724 309.454 421.724 309.454C422.745 287.423 426.429 253.246 429.092 230.012C429.092 230.012 439.451 196.382 410.198 192.223C410.198 192.223 407.098 191.567 403.085 190.764L385.359 221.841L382.623 222.425C377.042 209.33 364.094 189.451 364.094 189.451C360.41 190.035 356.726 190.655 354.063 191.384C354.063 191.384 339.582 192.041 330.683 207.433C330.683 207.433 329.698 212.795 334.476 234.972C335.643 242.997 336.446 249.197 337.102 255.325Z" fill="#C32E3E"/>
<path d="M338.342 349.212C338.342 349.212 337.941 353.406 337.467 360.191H426.831C426.575 355.486 426.284 351.619 426.028 349.212C425.992 349.029 425.992 348.847 425.955 348.665H338.415C338.379 348.811 338.342 348.993 338.342 349.212Z" fill="#972630"/>
<path d="M361.905 192.442L355.194 215.276L382.587 222.388L361.905 192.442Z" fill="#972630"/>
<path d="M405.019 192.442L411.767 215.276L384.374 222.388L405.019 192.442Z" fill="#972630"/>
<path d="M283.192 296.031C280.383 291.691 283.192 285.672 283.192 285.672C286.803 276.554 309.308 239.787 309.308 239.787L325.758 257.769L299.423 289.283C299.423 289.283 301.867 294.937 313.758 354.209L304.311 351.036C304.311 351.072 284.797 298.475 283.192 296.031Z" fill="#FAB18C"/>
<path opacity="0.4" d="M323.825 255.653L316.64 252.881L307.156 243.361C304.348 248.03 299.205 256.565 294.353 264.918C299.898 266.778 308.25 270.973 313.43 272.578L325.795 257.805L323.825 255.653Z" fill="#D1614C"/>
<path d="M339.765 197.002C339.765 197.002 313.138 220.2 299.424 247.921C299.424 247.921 310.986 264.517 317.406 265.356L338.634 246.097L339.765 197.002Z" fill="#C32E3E"/>
<path d="M422.709 197.184C422.709 197.184 448.424 220.236 462.139 247.921C462.139 247.921 450.576 264.517 444.12 265.356L422.891 246.097L422.709 197.184Z" fill="#C32E3E"/>
<path d="M365.297 185.329C365.297 185.329 377.006 210.935 382.587 222.352C382.587 222.352 364.896 217.573 353.224 207.762L360.884 187.299L365.297 185.329Z" fill="#D0374E"/>
<path d="M400.24 185.329C400.24 185.329 389.043 210.935 383.462 222.352C383.462 222.352 400.678 217.573 412.35 207.762L404.69 187.299L400.24 185.329Z" fill="#D0374E"/>
<path d="M387.985 231.252C387.985 232.09 387.292 232.784 386.453 232.784C385.614 232.784 384.921 232.09 384.921 231.252C384.921 230.413 385.614 229.72 386.453 229.72C387.292 229.72 387.985 230.413 387.985 231.252Z" fill="white"/>
<path d="M387.985 252.991C387.985 253.83 387.292 254.523 386.453 254.523C385.614 254.523 384.921 253.83 384.921 252.991C384.921 252.152 385.614 251.459 386.453 251.459C387.292 251.459 387.985 252.152 387.985 252.991Z" fill="white"/>
<path d="M387.985 274.766C387.985 275.605 387.292 276.298 386.453 276.298C385.614 276.298 384.921 275.605 384.921 274.766C384.921 273.927 385.614 273.234 386.453 273.234C387.292 273.198 387.985 273.891 387.985 274.766Z" fill="white"/>
<path d="M387.985 296.505C387.985 297.344 387.292 298.037 386.453 298.037C385.614 298.037 384.921 297.344 384.921 296.505C384.921 295.667 385.614 294.974 386.453 294.974C387.292 294.937 387.985 295.63 387.985 296.505Z" fill="white"/>
<path d="M387.985 318.245C387.985 319.083 387.292 319.776 386.453 319.776C385.614 319.776 384.921 319.083 384.921 318.245C384.921 317.406 385.614 316.713 386.453 316.713C387.292 316.676 387.985 317.369 387.985 318.245Z" fill="white"/>
<path d="M387.985 339.984C387.985 340.823 387.292 341.516 386.453 341.516C385.614 341.516 384.921 340.823 384.921 339.984C384.921 339.145 385.614 338.452 386.453 338.452C387.292 338.452 387.985 339.145 387.985 339.984Z" fill="white"/>
<path d="M418.077 235.884H394.076V250.656H418.077V235.884Z" fill="white"/>
<path d="M408.374 228.917H403.742V238H408.374V228.917Z" fill="#969A9B"/>
<path d="M449.883 218.303H312.591V355.595H449.883V218.303Z" fill="#F09854"/>
<path d="M332.652 337.03C333.491 337.03 334.184 337.723 334.184 338.562V349.249C334.184 350.088 333.491 350.781 332.652 350.781H321.965C321.126 350.781 320.433 350.088 320.433 349.249V338.562C320.433 337.723 321.126 337.03 321.965 337.03H332.652ZM332.652 336.154H321.965C320.615 336.154 319.558 337.248 319.558 338.562V349.249C319.558 350.598 320.652 351.656 321.965 351.656H332.652C334.002 351.656 335.06 350.562 335.06 349.249V338.562C335.096 337.212 334.002 336.154 332.652 336.154Z" fill="#78513F"/>
<path d="M351.291 337.029C352.13 337.029 352.823 337.722 352.823 338.561V349.248C352.823 350.087 352.13 350.78 351.291 350.78H340.604C339.765 350.78 339.072 350.087 339.072 349.248V338.561C339.072 337.722 339.765 337.029 340.604 337.029H351.291ZM351.291 336.154H340.604C339.254 336.154 338.196 337.248 338.196 338.561V349.248C338.196 350.598 339.291 351.656 340.604 351.656H351.291C352.641 351.656 353.698 350.561 353.698 349.248V338.561C353.698 337.212 352.604 336.154 351.291 336.154Z" fill="#78513F"/>
<path d="M364.313 341.479L362.197 337.905L360.081 341.479H361.65V347.534H362.781L362.744 341.479H364.313Z" fill="#78513F"/>
<path d="M369.018 341.479L366.902 337.905L364.787 341.479H366.355V347.534H367.449V341.479H369.018Z" fill="#78513F"/>
<path d="M368.507 348.701H360.629V349.649H368.507V348.701Z" fill="#78513F"/>
<path d="M369.893 337.029C370.732 337.029 371.425 337.722 371.425 338.561V349.248C371.425 350.087 370.732 350.78 369.893 350.78H359.206C358.367 350.78 357.674 350.087 357.674 349.248V338.561C357.674 337.722 358.367 337.029 359.206 337.029H369.893ZM369.893 336.154H359.206C357.856 336.154 356.799 337.248 356.799 338.561V349.248C356.799 350.598 357.893 351.656 359.206 351.656H369.893C371.243 351.656 372.301 350.561 372.301 349.248V338.561C372.301 337.212 371.243 336.154 369.893 336.154Z" fill="#78513F"/>
<path d="M327.619 342.902C327.363 342.865 327.144 342.829 326.926 342.792V349.431H327.692V342.902C327.655 342.902 327.655 342.902 327.619 342.902Z" fill="#78513F"/>
<path d="M328.859 349.431H325.758V349.868H328.859V349.431Z" fill="#78513F"/>
<path d="M327.327 340.348H326.342L327.181 338.087H323.643C323.643 340.348 325.029 342.209 326.524 342.756L327.327 340.348Z" fill="#78513F"/>
<path d="M327.91 338.087L327.29 339.911L328.494 339.947L326.889 342.865C327.035 342.902 327.181 342.938 327.327 342.938C329.114 342.938 331.011 340.786 331.011 338.124H327.91V338.087Z" fill="#78513F"/>
<path d="M345.929 337.978C345.929 337.978 340.531 338.89 339.911 342.245C339.911 342.245 341.151 341.735 341.807 343.011C341.807 343.011 342.902 341.479 344.324 343.011C344.324 343.011 345.382 342.136 345.966 343.011C346.549 342.136 347.607 343.011 347.607 343.011C348.993 341.479 350.124 343.011 350.124 343.011C350.78 341.735 352.02 342.245 352.02 342.245C351.364 338.926 345.929 337.978 345.929 337.978Z" fill="#78513F"/>
<path d="M348.701 347.862C348.701 348.628 348.081 349.249 347.315 349.249C346.549 349.249 345.929 348.628 345.929 347.862V340.896" stroke="#78513F" stroke-width="0.450086" stroke-miterlimit="10" stroke-linecap="round"/>
<path d="M312.591 346.513L303.873 349.905C303.873 349.905 304.676 354.902 309.272 356.872C313.357 358.622 324.518 362.379 327.874 361.723C329.078 361.504 343.959 357.966 342.099 354.902C342.099 354.902 339.911 353.261 337.394 354.245C334.877 355.23 330.026 356.288 328.895 356.069C328.895 356.069 318.792 352.349 317.333 350.999C317.333 350.999 326.16 354.026 328.202 352.458C330.245 350.926 327.363 350.014 325.904 349.431C324.445 348.884 319.995 347.68 319.667 347.388C319.302 347.169 313.503 346.148 312.591 346.513Z" fill="#F2A879"/>
<path d="M392.836 218.303H374.927V355.595H392.836V218.303Z" fill="#FBE6DA"/>
<path d="M446.272 346.513L454.989 349.905C454.989 349.905 454.187 354.902 449.591 356.872C445.506 358.622 434.345 362.379 430.989 361.723C429.785 361.504 414.903 357.966 416.764 354.902C416.764 354.902 418.952 353.261 421.469 354.245C423.986 355.23 428.837 356.288 429.968 356.069C429.968 356.069 440.071 352.349 441.53 350.999C441.53 350.999 432.703 354.026 430.661 352.458C428.618 350.926 431.5 350.014 432.959 349.431C434.418 348.884 438.867 347.68 439.196 347.388C439.56 347.169 445.36 346.148 446.272 346.513Z" fill="#F2A879"/>
<path d="M356.507 635.541C353.881 638.641 335.716 642.799 330.026 631.601C330.026 631.601 327.947 627.626 330.354 622.337C332.762 617.084 339.291 613.291 355.413 599.832C355.413 599.832 355.96 597.899 357.018 598.737C357.018 598.737 358.44 600.561 360.009 600.744C360.009 600.744 366.027 602.567 369.893 598.154C369.893 598.154 371.097 597.351 371.571 598.737C371.571 598.737 373.285 605.048 372.957 609.534C372.957 609.534 369.82 619.893 356.507 635.541Z" fill="#D5304A"/>
<path d="M366.538 600.525C366.538 600.525 354.063 621.097 349.03 622.519C349.03 622.519 340.531 618.252 336.737 618.434C336.737 618.434 356.106 600.051 357.929 599.321C357.929 599.321 364.386 601.692 366.538 600.525Z" fill="#A31C37"/>
<path d="M372.811 606.106C372.957 607.382 373.03 608.586 372.957 609.571C372.957 609.571 369.82 619.93 356.47 635.577C353.844 638.678 335.68 642.836 329.99 631.638C329.99 631.638 327.91 627.662 330.318 622.373C330.756 621.389 331.339 620.477 332.105 619.528C331.74 621.389 330.026 625 331.266 626.677C333.017 629.012 334.294 625.912 338.269 625.912C341.479 625.912 344.105 627.662 346.184 631.675C348.264 635.65 351.948 633.097 354.793 631.711C354.829 631.711 367.705 617.486 372.811 606.106Z" fill="#D9E9EE"/>
<path d="M338.269 613.729C338.269 613.729 346.403 610.227 355.668 620.586C355.668 620.586 357.528 621.936 359.024 620.586C360.045 619.674 360.045 618.726 358.477 616.647C357.054 614.75 351.51 608.805 343.449 609.498C343.449 609.498 340.969 609.862 340.02 610.519C339.108 611.212 338.379 612.27 338.269 613.729Z" fill="#D9E9EE"/>
<path d="M345.273 608.148C345.273 608.148 351.984 605.266 359.607 613.802C359.607 613.802 361.139 614.932 362.379 613.802C363.218 613.072 363.218 612.27 361.942 610.555C360.774 608.987 356.179 604.099 349.577 604.683C349.577 604.683 347.534 604.975 346.768 605.522C345.966 606.069 345.382 606.944 345.273 608.148Z" fill="#D9E9EE"/>
<path d="M349.978 604.355C349.978 604.355 356.215 601.656 363.364 609.644C363.364 609.644 364.787 610.701 365.954 609.644C366.72 608.951 366.756 608.221 365.553 606.616C364.458 605.157 360.191 600.561 353.99 601.108C353.99 601.108 352.093 601.364 351.364 601.874C350.634 602.385 350.087 603.224 349.978 604.355Z" fill="#D9E9EE"/>
<path d="M357.2 599.795C357.2 599.795 357.163 596.513 358.258 596.148C359.352 595.783 361.504 597.06 364.75 596.476C364.75 596.476 366.282 595.892 367.158 596.476C368.033 597.06 367.158 600.233 367.012 600.269C366.902 600.379 363.109 603.224 357.2 599.795Z" fill="#D5304A"/>
<path d="M412.861 635.541C415.487 638.641 433.652 642.799 439.342 631.601C439.342 631.601 441.421 627.626 439.013 622.337C436.606 617.084 430.077 613.291 413.955 599.832C413.955 599.832 413.408 597.899 412.35 598.737C412.35 598.737 410.928 600.561 409.359 600.744C409.359 600.744 403.341 602.567 399.474 598.154C399.474 598.154 398.271 597.351 397.797 598.737C397.797 598.737 396.119 605.048 396.411 609.534C396.411 609.534 399.547 619.893 412.861 635.541Z" fill="#D5304A"/>
<path d="M402.83 600.525C402.83 600.525 415.305 621.097 420.338 622.519C420.338 622.519 428.837 618.252 432.63 618.434C432.63 618.434 413.262 600.051 411.438 599.321C411.438 599.321 404.982 601.692 402.83 600.525Z" fill="#A31C37"/>
<path d="M396.556 606.106C396.411 607.382 396.338 608.586 396.411 609.571C396.411 609.571 399.547 619.93 412.897 635.577C415.524 638.678 433.688 642.836 439.378 631.638C439.378 631.638 441.457 627.662 439.05 622.373C438.612 621.389 438.029 620.477 437.263 619.528C437.627 621.389 439.342 625 438.102 626.677C436.351 629.012 435.074 625.912 431.098 625.912C427.889 625.912 425.262 627.662 423.183 631.675C421.104 635.65 417.42 633.097 414.575 631.711C414.539 631.711 401.663 617.486 396.556 606.106Z" fill="#D9E9EE"/>
<path d="M431.098 613.729C431.098 613.729 422.964 610.227 413.7 620.586C413.7 620.586 411.84 621.936 410.308 620.586C409.286 619.674 409.286 618.726 410.855 616.647C412.277 614.75 417.821 608.805 425.882 609.498C425.882 609.498 428.363 609.862 429.311 610.519C430.259 611.212 430.989 612.27 431.098 613.729Z" fill="#D9E9EE"/>
<path d="M424.095 608.148C424.095 608.148 417.384 605.266 409.76 613.802C409.76 613.802 408.228 614.932 406.988 613.802C406.149 613.072 406.149 612.27 407.426 610.555C408.593 608.987 413.189 604.099 419.791 604.683C419.791 604.683 421.834 604.975 422.6 605.522C423.402 606.069 423.986 606.944 424.095 608.148Z" fill="#D9E9EE"/>
<path d="M419.39 604.355C419.39 604.355 413.153 601.656 406.003 609.644C406.003 609.644 404.581 610.701 403.414 609.644C402.648 608.951 402.611 608.221 403.815 606.616C404.909 605.157 409.177 600.561 415.378 601.108C415.378 601.108 417.274 601.364 418.004 601.874C418.733 602.385 419.28 603.224 419.39 604.355Z" fill="#D9E9EE"/>
<path d="M412.168 599.795C412.168 599.795 412.204 596.513 411.11 596.148C410.016 595.783 407.864 597.06 404.654 596.476C404.654 596.476 403.122 595.892 402.247 596.476C401.371 597.06 402.247 600.233 402.392 600.269C402.465 600.379 406.259 603.224 412.168 599.795Z" fill="#D5304A"/>
</svg>
