<?xml version="1.0" encoding="utf-8"?>
<!-- Generator: Adobe Illustrator 18.0.0, SVG Export Plug-In . SVG Version: 6.00 Build 0)  -->
<!DOCTYPE svg PUBLIC "-//W3C//DTD SVG 1.1//EN" "http://www.w3.org/Graphics/SVG/1.1/DTD/svg11.dtd">
<svg version="1.1" id="_2" xmlns="http://www.w3.org/2000/svg" xmlns:xlink="http://www.w3.org/1999/xlink" x="0px" y="0px"
	 viewBox="0 0 1920 1080" enable-background="new 0 0 1920 1080" xml:space="preserve">
<g>
	<path fill="#EBF3FA" d="M342,1046.2c0,0-169.5-181.9-28.7-378.9c124.9-174.8,270.6-162.8,377.4-91.9
		c45.5,30.2,176.7,3.7,288.4-174.1c152.3-242.5,680.3-95.4,584,277.7c-46.6,180.6,141.8,187.1,45.8,367.6L342,1046.2z"/>
	<g>
		<path fill="#363D78" d="M1195.1,1044.5H922.8c-17.8,0-32.4-14.6-32.4-32.4V437.5c0-17.8,14.6-32.4,32.4-32.4h272.2
			c17.8,0,32.4,14.6,32.4,32.4v574.6C1227.4,1029.9,1212.9,1044.5,1195.1,1044.5z"/>
		<path fill="#312F55" d="M1245.2,422.4v604.9c0,9.5-7.8,17.2-17.2,17.2H925.5c-9.5,0-17.2-7.8-17.2-17.2V422.4
			c0-9.5,7.8-17.2,17.2-17.2H1228C1237.5,405.1,1245.2,412.9,1245.2,422.4z"/>
		<g>
			<path opacity="0.4" fill="#5E92DD" d="M1126.2,429.3h-87.6c-1.9,0-3.4-1.5-3.4-3.4l0,0c0-1.9,1.5-3.4,3.4-3.4h87.6
				c1.9,0,3.4,1.5,3.4,3.4l0,0C1129.6,427.8,1128,429.3,1126.2,429.3z"/>
			<path opacity="0.4" fill="#5E92DD" d="M1023,429.3L1023,429.3c-1.9,0-3.4-1.5-3.4-3.4l0,0c0-1.9,1.5-3.4,3.4-3.4l0,0
				c1.9,0,3.4,1.5,3.4,3.4l0,0C1026.4,427.8,1024.9,429.3,1023,429.3z"/>
		</g>
		<path fill="#95C0F4" d="M1102.9,1009.1c0,6-2.4,11.5-6.4,15.5c-4,4-9.5,6.5-15.6,6.5c-12.1,0-22-9.8-22-22
			c0-7.8,4.1-14.7,10.2-18.6c3.4-2.2,7.4-3.4,11.8-3.4C1093.1,987.2,1102.9,997,1102.9,1009.1z"/>
		<rect x="928.5" y="444.5" fill="#95C0F4" width="298.8" height="531.9"/>
		<path fill="#8CBAF1" d="M1096.6,1024.6c-4,4-9.5,6.5-15.6,6.5c-12.1,0-22-9.8-22-22c0-7.8,4.1-14.7,10.2-18.6
			C1071.3,999.9,1077.7,1015.6,1096.6,1024.6z"/>
	</g>
	<path opacity="0.9" fill="#78ACEA" d="M1223,508.1h-0.7h-138.3h-139c-2.4,0-4.3,2.5-4.3,5.6v177.8c0,3.1,1.9,5.6,4.3,5.6h139h138.3
		h0.7c2.4,0,4.3-2.5,4.3-5.6V513.6C1227.3,510.6,1225.3,508.1,1223,508.1z"/>
	<path opacity="0.9" fill="#78ACEA" d="M1119.2,724.1h-0.5h-107.9H902.4c-1.8,0-3.3,2.5-3.3,5.6v177.8c0,3.1,1.5,5.6,3.3,5.6h108.4
		h107.9h0.5c1.8,0,3.4-2.5,3.4-5.6V729.6C1122.6,726.6,1121.1,724.1,1119.2,724.1z"/>
	<g>
		<path fill="#FCECDB" d="M1328.7,497.6v177.8c0,3.1-2.5,5.6-5.6,5.6h-360c-3.1,0-5.6-2.5-5.6-5.6V497.6c0-3.1,2.5-5.6,5.6-5.6h360
			C1326.2,492.1,1328.7,494.6,1328.7,497.6z"/>
		<path fill="#F99746" d="M1328.7,497.6v177.8c0,3.1-2.9,5.6-6.5,5.6h-179.1V492.1h179.1C1325.8,492.1,1328.7,494.6,1328.7,497.6z"
			/>
		<g>
			<path fill="#FCECDB" d="M1231,561.1h-63.4c-2.2,0-4-1.8-4-4l0,0c0-2.2,1.8-4,4-4h63.4c2.2,0,4,1.8,4,4l0,0
				C1235.1,559.3,1233.2,561.1,1231,561.1z"/>
			<path fill="#FCECDB" d="M1214.9,573.2h-47.2c-2.2,0-4-1.8-4-4v0c0-2.2,1.8-4,4-4h47.2c2.2,0,4,1.8,4,4l0,0
				C1218.9,571.4,1217.1,573.2,1214.9,573.2z"/>
		</g>
		<g>
			<path fill="#FCECDB" d="M1168.5,515.9c1.5-2,3.5-3,6-3c2.4,0,4.4,1,5.9,3c1.5,2,2.3,4.4,2.3,7.4c0,2.9-0.7,5.4-2.3,7.4
				c-1.5,2-3.5,3-5.9,3c-2.4,0-4.4-1-6-3c-1.5-2-2.3-4.4-2.3-7.4C1166.2,520.3,1167,517.8,1168.5,515.9z M1178.8,517.2
				c-1.1-1.6-2.6-2.4-4.4-2.4c-1.8,0-3.2,0.8-4.4,2.4c-1.1,1.6-1.7,3.6-1.7,6c0,2.4,0.6,4.4,1.7,6c1.1,1.6,2.6,2.4,4.4,2.4
				c1.8,0,3.3-0.8,4.4-2.4c1.1-1.6,1.7-3.6,1.7-6C1180.5,520.8,1180,518.8,1178.8,517.2z"/>
			<path fill="#FCECDB" d="M1199,515.3c1.3,1.6,2,3.9,2,6.9c0.1,6.2-3.3,11.4-8.7,11.3c-1.6,0-3.1-0.4-4.2-1.2v-2
				c1.3,0.9,2.6,1.3,4.1,1.3c4.8,0,6.7-4.3,6.8-8.6c-1.1,1.8-3.1,3-5.9,3c-1.8,0-3.3-0.6-4.6-1.8c-1.2-1.2-1.9-2.7-1.9-4.6
				c0-2,0.7-3.6,1.9-4.9c1.3-1.3,2.9-1.9,4.9-1.9C1195.8,512.9,1197.6,513.7,1199,515.3z M1190.1,516.2c-0.9,0.9-1.4,2-1.4,3.4
				c0,1.4,0.5,2.5,1.4,3.3c0.9,0.8,2.1,1.2,3.5,1.2c1.2,0,2.3-0.4,3.3-1.1c1-0.7,1.7-1.7,2-2.8c-0.3-3.4-2.2-5.4-5.4-5.4
				C1192.2,514.8,1191,515.3,1190.1,516.2z"/>
			<path fill="#FCECDB" d="M1205.2,520.2c0.6-0.6,1.5-0.6,2.1,0c0.6,0.6,0.6,1.5,0,2.1c-0.6,0.6-1.5,0.6-2.1,0
				C1204.7,521.8,1204.7,520.8,1205.2,520.2z M1205.2,530.9c0.6-0.6,1.5-0.6,2.1,0c0.6,0.6,0.6,1.5,0,2.1c-0.6,0.6-1.5,0.6-2.1,0
				C1204.7,532.4,1204.7,531.4,1205.2,530.9z"/>
			<path fill="#FCECDB" d="M1215.1,533.2v-17.7l-4.5,2.6v-2l4.7-2.8h1.9v20H1215.1z"/>
			<path fill="#FCECDB" d="M1224.5,515.9c1.5-2,3.5-3,6-3c2.4,0,4.4,1,5.9,3c1.5,2,2.3,4.4,2.3,7.4c0,2.9-0.7,5.4-2.3,7.4
				c-1.5,2-3.5,3-5.9,3c-2.4,0-4.4-1-6-3c-1.5-2-2.3-4.4-2.3-7.4C1222.3,520.3,1223,517.8,1224.5,515.9z M1234.9,517.2
				c-1.1-1.6-2.6-2.4-4.4-2.4c-1.8,0-3.2,0.8-4.4,2.4c-1.1,1.6-1.7,3.6-1.7,6c0,2.4,0.6,4.4,1.7,6c1.1,1.6,2.6,2.4,4.4,2.4
				c1.8,0,3.3-0.8,4.4-2.4c1.1-1.6,1.7-3.6,1.7-6C1236.6,520.8,1236,518.8,1234.9,517.2z"/>
			<path fill="#FCECDB" d="M1251,533.2v-20h8.4c4,0,6.4,2.2,6.4,5.6c0,3.4-2.4,5.6-6.4,5.6h-6.3v8.8H1251z M1253.1,522.5h6.2
				c2.8,0,4.5-1.3,4.5-3.7c0-2.4-1.6-3.7-4.5-3.7h-6.2V522.5z"/>
			<path fill="#FCECDB" d="M1270,533.2v-20h2.1l7.2,9.7l7.2-9.7h2.1v20h-2.1v-16.8l-6.6,8.8h-1.3l-6.6-8.8v16.8H1270z"/>
		</g>
		<path fill="#F9E5D1" d="M1064.4,681H963.1c-3.1,0-5.6-2.5-5.6-5.6V554.6C985.1,587.2,1039.2,651.2,1064.4,681z"/>
		<path fill="#F99746" d="M1049.6,515.5c-20.3,0-36.7,16.4-36.7,36.7c0,20.3,36.7,65.3,36.7,65.3s36.7-45.1,36.7-65.3
			C1086.3,531.9,1069.9,515.5,1049.6,515.5z M1049.6,568.9c-9.5,0-17.2-7.7-17.2-17.2c0-9.5,7.7-17.2,17.2-17.2
			c9.5,0,17.2,7.7,17.2,17.2C1066.8,561.3,1059.1,568.9,1049.6,568.9z"/>
		<g>
			<path fill="#EFCBAB" d="M1046.5,648h-63.4c-2.2,0-4-1.8-4-4l0,0c0-2.2,1.8-4,4-4h63.4c2.2,0,4,1.8,4,4l0,0
				C1050.6,646.1,1048.8,648,1046.5,648z"/>
			<path fill="#EFCBAB" d="M1030.4,660.1h-47.2c-2.2,0-4-1.8-4-4l0,0c0-2.2,1.8-4,4-4h47.2c2.2,0,4,1.8,4,4l0,0
				C1034.4,658.2,1032.6,660.1,1030.4,660.1z"/>
		</g>
	</g>
	<g>
		<path fill="#FCECDB" d="M1150.9,716v177.8c0,3.1-2.5,5.6-5.6,5.6h-360c-3.1,0-5.6-2.5-5.6-5.6V716c0-3.1,2.5-5.6,5.6-5.6h360
			C1148.4,710.4,1150.9,712.9,1150.9,716z"/>
		<path fill="#F99746" d="M1150.9,716v177.8c0,3.1-2.5,5.6-5.6,5.6H985.2V710.4h160.1C1148.4,710.4,1150.9,712.9,1150.9,716z"/>
		<g>
			<g>
				<path fill="#FCECDB" d="M1066.8,843.4c-3.2,0-6.1-1.7-7.7-4.4l-23.7-40.5c-2.5-4.3-1.1-9.8,3.2-12.3c4.3-2.5,9.8-1.1,12.3,3.2
					l15.2,26l28.6-58.8c2.2-4.5,7.5-6.3,12-4.2c4.5,2.2,6.3,7.5,4.2,12l-35.9,73.9c-1.4,3-4.4,4.9-7.7,5
					C1067.1,843.4,1067,843.4,1066.8,843.4z"/>
			</g>
			<g>
				<path fill="#FCECDB" d="M1066.8,864.2c-30.7,0-55.7-25-55.7-55.7c0-30.7,25-55.7,55.7-55.7c30.7,0,55.7,25,55.7,55.7
					C1122.6,839.2,1097.6,864.2,1066.8,864.2z M1066.8,759.2c-27.1,0-49.2,22.1-49.2,49.2s22.1,49.2,49.2,49.2
					c27.1,0,49.2-22.1,49.2-49.2S1094,759.2,1066.8,759.2z"/>
			</g>
		</g>
		<path fill="#F9E5D1" d="M885.2,899.3h-99.9c-3.1,0-5.6-2.5-5.6-5.6V756.2L885.2,899.3z"/>
		<g>
			<g>
				<path fill="#F99746" d="M828,741.3c-11,0-20,8.9-20,20c0,11,8.9,20,20,20c11,0,20-8.9,20-20C848,750.2,839.1,741.3,828,741.3z
					 M841.9,761.9H828c-0.4,0-0.6-0.3-0.6-0.6v-14.9c0-0.4,0.3-0.6,0.6-0.6s0.6,0.3,0.6,0.6v14.2h13.2c0.4,0,0.6,0.3,0.6,0.6
					C842.5,761.6,842.2,761.9,841.9,761.9z"/>
				<g>
					<path fill="#EFCBAB" d="M930.8,753.8h-63.4c-2.2,0-4-1.8-4-4l0,0c0-2.2,1.8-4,4-4h63.4c2.2,0,4,1.8,4,4l0,0
						C934.8,752,933,753.8,930.8,753.8z"/>
					<path fill="#EFCBAB" d="M914.6,765.9h-47.2c-2.2,0-4-1.8-4-4l0,0c0-2.2,1.8-4,4-4h47.2c2.2,0,4,1.8,4,4v0
						C918.7,764.1,916.8,765.9,914.6,765.9z"/>
				</g>
			</g>
			<g>
				<path fill="#F99746" d="M826.1,818.5c-9.9,0-18,8-18,18c0,9.9,18,32,18,32s18-22.1,18-32C844,826.6,836,818.5,826.1,818.5z
					 M826.1,844.7c-4.6,0-8.4-3.8-8.4-8.4c0-4.6,3.8-8.4,8.4-8.4c4.6,0,8.4,3.8,8.4,8.4C834.5,841,830.7,844.7,826.1,844.7z"/>
				<g>
					<path fill="#EFCBAB" d="M925.9,831.6h-63.4c-2.2,0-4-1.8-4-4l0,0c0-2.2,1.8-4,4-4h63.4c2.2,0,4,1.8,4,4l0,0
						C930,829.8,928.2,831.6,925.9,831.6z"/>
					<path fill="#EFCBAB" d="M909.8,843.7h-47.2c-2.2,0-4-1.8-4-4l0,0c0-2.2,1.8-4,4-4h47.2c2.2,0,4,1.8,4,4v0
						C913.8,841.9,912,843.7,909.8,843.7z"/>
				</g>
			</g>
		</g>
	</g>
	<g>
		<g>
			<path fill="#B7D3F3" d="M437.2,817.4c-1.3-32.5-4.2-60.7-7.6-80.4c-5.4-31.4-10.3-49.4-10.4-49.6c-0.7-2.8-11-13.9-34-13.6
				c-23,0.3-20.8,15-20.8,15l0,0c0,0.5,0.1,1,0.2,1.3c0.2,0.8,21.3,77.2,20.4,175.9c0,1.4-0.2,3.8-0.1,5.4c0,0,53.2,1.4,53.2,0
				C440,862.8,439.1,838.9,437.2,817.4z"/>
			<path fill="#D2E3FC" d="M443.9,865.5c0,1.4-0.7,2.5-1.6,2.5h0c-0.9,0-1.6-1.1-1.6-2.5H395c0,1.4-0.7,2.5-1.6,2.5h0
				c-0.9,0-1.6-1.2-1.6-2.5c0.3-28.2-1.3-54.6-3.8-77.9c-6.1-58.1-17.3-96.9-17.4-97.4c-0.1-0.3-0.2-0.8-0.2-1.3
				c0,0-2.2-14.6,20.8-15c23-0.3,33.3,10.8,34,13.6c0,0.1,2.8,10.4,6.5,28.7c1.2,6.1,2.5,13.1,3.9,20.9c3.4,19.7,6.2,47.9,7.6,80.4
				C445.1,838.9,445.8,856.9,443.9,865.5z"/>
			<path fill="#C5DCF8" d="M388.4,868h178.8c0,0-4.2-16.8-107.7-14.3C386.2,855.4,388.4,868,388.4,868z"/>
			<g>
				<path fill="#B7D3F3" d="M373.9,1044c20.7-104.9,15.4-169.3,15.4-170.1c-0.1-1.6,2.9-3.1,4.5-3.1c1.6,0,8.8-0.5,9.6,0.9
					c1.1,1.8,5.3,81.2-25.6,172.4H373.9z"/>
			</g>
			<g>
				<path fill="#B7D3F3" d="M540.8,1044c-20.7-104.9-15.4-169.3-15.4-170.1c0.1-1.6-2.9-3.1-4.5-3.1c-1.6,0-8.8-0.5-9.6,0.9
					c-1.1,1.8-5.3,81.2,25.6,172.4H540.8z"/>
			</g>
			<g>
				<path fill="#B7D3F3" d="M573.9,1044c-20.7-104.9-15.4-169.3-15.4-170.1c0.1-1.6-2.9-3.1-4.5-3.1c-1.6,0-8.8-0.5-9.6,0.9
					c-1.1,1.8-5.3,81.2,25.6,172.4H573.9z"/>
			</g>
			<g>
				<path fill="#B7D3F3" d="M407.2,1044c20.7-104.9,15.4-169.3,15.4-170.1c-0.1-1.6,2.9-3.1,4.5-3.1c1.6,0,8.8-0.5,9.6,0.9
					c1.1,1.8,5.3,81.2-25.6,172.4H407.2z"/>
			</g>
			<path fill="#B7D3F3" d="M566.1,873.4H389.7c-2.7,0-4.9-2.2-4.9-4.9v0c0-2.7,2.2-4.9,4.9-4.9h176.4c2.7,0,4.9,2.2,4.9,4.9l0,0
				C571,871.2,568.8,873.4,566.1,873.4z"/>
			<g>
				<path fill="#FFB27D" d="M561,711.9l59.4-12.9l3.5,8.5c0,0-65.6,39-71.7,37.1S561,711.9,561,711.9z"/>
				<path fill="#FFB27D" d="M507,980.7c-1.5,1.7-1.7,3.6-0.9,5.6c0,0,0,0,0,0c1.4,3.8,5.9,8,11.1,12.2c0.7,0.5,1.3,1,1.8,1.5
					c0.1,0.1,0.3,0.2,0.4,0.4c0.1,0.1,0.2,0.2,0.3,0.3c4.9,4.5,3,5.5,11.8,14.6c10,10.4,16.9,10.6,18.8,9.6
					c1.7-0.8-1.7-6.3-5.4-12.5c-0.2-0.3-0.4-0.6-0.5-0.9c-0.5-0.8-1-1.7-1.5-2.5c-4.4-7.5-3.2-11-2.2-22c0.8-9,14-50.4,14-50.4
					l-19.1-3.3c0,0-5.8,32.9-12.1,38c-3.4,2.7-7.2,2.7-10.5,4.7c-0.2,0.1-0.5,0.3-0.7,0.4C510.4,977.7,508.5,979,507,980.7z"/>
				<path fill="#2F2D2C" d="M507,980.7c-1.5,1.7-1.7,3.6-0.9,5.6c0,0,0,0,0,0c1.7,3.8,6.1,7.9,11.1,12.1c0.7,0.5,1.2,1.1,1.8,1.5
					c0.1,0.1,0.3,0.2,0.4,0.4c0.1,0.1,0.2,0.2,0.3,0.3c4.9,4.5,3,5.5,11.8,14.6c10,10.4,16.9,10.6,18.8,9.6
					c1.7-0.8-1.7-6.3-5.4-12.5c-1.9-0.7-11-4.4-17.8-13.1c-6-7.7-10-17.5-14.1-23.2c-0.2,0.1-0.5,0.3-0.7,0.4
					C510.4,977.7,508.5,979,507,980.7z"/>
				<path fill="#FFB27D" d="M661.3,968.7c1.2,5.9,9.6,4.9,19,2.6c9.4-2.3,7.2,0.4,20.6-1c13.4-1.5,17.4-6.5,17.9-8.5
					c0.4-1.8-6.3-2.4-13.3-3.2c-0.9-0.1-1.8-0.2-2.7-0.3c-8-1-13.9-6.2-21.2-10.4c-6.9-4-17.2-20.4-17.2-20.4l-18.4,1.5
					c0,0,9.6,14.6,13.4,21c2.2,3.7,2.1,8.7,1.8,12.5C661,964.5,660.9,966.7,661.3,968.7z"/>
				<path fill="#2F2D2C" d="M680.3,971.4c9.4-2.3,7.2,0.4,20.6-1c13.4-1.5,17.4-6.5,17.9-8.5c0.4-1.8-6.3-2.4-13.3-3.2l-0.1,0.1
					c0,0-8,5.7-19.2,6c-9.1,0.2-18.7-2.4-25-2.3c-0.1,2.1-0.3,4.2,0.1,6.3C662.5,974.6,670.9,973.7,680.3,971.4z"/>
				<path fill="#FFB27D" d="M620.5,699c0,0,4.4-10.7,9.2-11.2c4.8-0.4,20.1-2.8,21.2-0.7s0,10.1-3.3,12.9
					c-3.3,2.8-23.6,7.4-23.6,7.4L620.5,699z"/>
				<path fill="#1D3966" d="M590.9,851.3l-39.6,106.5c0,0-6.1,0.6-11.9-1.1c-5.4-1.5-11.5-5.6-11.5-5.6s9.8-102.3,27.8-123.5
					C573.8,806.3,590.9,851.3,590.9,851.3z"/>
				<path fill="#25478E" d="M434.4,808.2c0,0,113.7-38.4,139.1-30.3C598.9,786.1,675,937.6,675,937.6s-1.7,2.3-6.4,4
					c-4.4,1.6-14.9,1.5-14.9,1.5s-68.7-58.9-76.9-76.1c-8.2-17.2-11.5-33.5-19.6-31.9c-8.2,1.6-105.5,40.1-127.6,17.2
					c-22.1-22.9-16.3-52.7-16.3-52.7L434.4,808.2z"/>
				<path fill="#482E1F" d="M499.3,537.1c-4.9-2.8-10.8-3.1-14.9-2.9c1.1-1.1,3.1-1.5,3.1-1.5c-2.6-0.4-8.3,2.2-8.3,2.2
					c-35.5-13.7-41.1,38.6-40.4,50.8c0.7,12.2,0.8,26.1-16.9,37.1c-34.9,21.5-5.5,58.9-5.5,58.9c0.3,0.2,16.2,27.2,16.2,27.2
					c-0.9-9.8,44.4-61.7,68.1-77.2c5.8-8.5,7.8-23.4,8-24.6c-1,11.9-3,18.5-4.8,22.3C523.9,610.9,512.3,544.5,499.3,537.1z"/>
				<path fill="#FDF7B9" d="M499.4,632.5c0.1,0.1-11.4,6-20.1,3.7c-8.2-2.2-13.5-12.8-13.4-12.8c3.5-0.7,4.5-5.4,4.4-25.8l1.6,0.3
					l26.3,5.2c0,0-0.6,8.3-0.6,16.1C497.5,625.6,497.9,631.8,499.4,632.5z"/>
				<path fill="#DBD6A2" d="M498.1,603c0,0-0.6,8.3-0.6,16.1c-14.7-0.4-22.5-13.8-25.7-21.3L498.1,603z"/>
				<path fill="#482E1F" d="M469.1,594.9c0,0-7.7-12.2-9.6-22.6c-1.3-7.4,2.5-35,30.2-31c0,0,8,0.8,15.6,5.9c6,4.1,14.7,12.8,5,36.9
					l-2.5,8.1L469.1,594.9z"/>
				<path fill="#FDF7B9" d="M503,610.4c0,0-34.8,0.6-34.8-21.1c0-21.7-4.5-36.2,17.7-37.5c22.2-1.3,26.5,7,28.3,14.2
					C516,573.2,512.1,609.6,503,610.4z"/>
				<path fill="#482E1F" d="M501.8,551.3c0,0-9.5,25.4-24.1,29.2c-14.6,3.8-21-0.2-21-0.2s11.2-8.9,13.5-24.5
					C470.2,555.8,494.6,539.2,501.8,551.3z"/>
				<path fill="#482E1F" d="M499.4,553.3c0,0,7.1,5.7,8.8,11.2c1.7,5.5,2.5,16.9,5.8,16.5c0,0,7.2-17.3-0.9-27.1
					C504.6,543.6,499.4,553.3,499.4,553.3z"/>
				<path fill="#B4D699" d="M421.9,726.1c-3.4-14.4,8.2-42.3,20.4-65.4c11.1-20.9,22.5-37.9,23.6-37.3c29.2,17.3,31.8,2.9,31.8,2.9
					l0,0c0,0,26.5,3.5,34,16.4c9.3,16,19.4,60.8,29.3,69.2c-1.5,4.7-0.9,7.2,0.7,13c0.3,1.2,0.7,2.4,1.2,3.6c1.5,4.1,3.4,7.4,5,10.3
					c-5.1,3.1-14.9,8.9-22.1,4.7c-11-6.4-19.6-26.1-24.4-33.9c0,0,0-0.1-0.1-0.1c-10.5,59.5,3.8,73-3.5,79.3
					c-7.6,6.6-18.5-3.2-42.5,7.2c-15.7,6.8-37.6,16.7-52.3,18.4c-7.7,0.9-13.5-0.4-15.3-5.6C402.3,793.7,428.5,753.5,421.9,726.1z"
					/>
				<path fill="#A5C48C" d="M407.8,808.8c1.9,5.2,7.6,6.6,15.3,5.6c10.2-4.4,54.1-21.5,53.7-33c-0.7-17.1-8.5-17.6-3-38.7
					c4.4-16.9-36.2-48.4-42.7-55.3c-12.2,23.1-12.5,24.2-9.1,38.6C428.5,753.5,402.3,793.7,407.8,808.8z"/>
				<path fill="#B4D699" d="M402.8,747.2c7.8-10.9,15.9-16.7,21.3-19.6c-1.2-3.2,32.8-44.9,32.8-51.3c0-6.5,9.1-52.9,9.1-52.9
					s-28.4,1.8-38.2,15.4C415.5,655.9,390,721.8,402.8,747.2z"/>
				<path fill="#FDF7B9" d="M424,727.6l56.7,14.8l-5.3,9.5c0,0-68.9-0.5-72.6-4.7C399.1,743,424,727.6,424,727.6z"/>
				<path fill="#A5C48C" d="M521.4,709.6c4.8,7.8,13.4,27.4,24.4,33.9c7.2,4.2,17-1.6,22.1-4.7c-1.6-2.9-3.5-6.2-5-10.3
					c-4,0.9-9,2.1-12.2,3.1C544.6,733.4,521.4,709.6,521.4,709.6z"/>
				<path fill="#FDF7B9" d="M480.7,742.3c0,0,17.8-5,22-3.9c4.2,1.2,18.8,10.8,16.7,13.4c-2,2.6-14.8-1.6-20.7-0.8
					c-5.9,0.8-10.4,3.7-14.7,3.1c-4.2-0.6-8.7-2.3-8.7-2.3L480.7,742.3z"/>
				<path fill="#FDF7B9" d="M480.7,742.3c0,0,8.7-4.5,11.2-7c0.3-0.3,0.8-0.3,1.1,0.1c0.7,1,1.3,3.1-1.8,5.1
					C486.8,743.4,480.7,742.3,480.7,742.3z"/>
			</g>
		</g>
		<g>
			<path fill="#656563" d="M562.9,767.4h-83l0,0c0-3.7,3-6.6,6.6-6.6h76.4V767.4z"/>
			<polygon fill="#656563" points="562.7,677 691,677 660.2,767.4 531.1,767.4 			"/>
			<polygon fill="#747573" points="692.9,677 662.1,767.4 533,767.4 564.6,677 			"/>
			<path fill="#F9DDBF" d="M623.7,721.3c-0.8,3.5-4.2,6.3-7.7,6.3c-3.5,0-5.6-2.8-4.8-6.3c0.8-3.5,4.2-6.3,7.7-6.3
				C622.4,715.1,624.5,717.9,623.7,721.3z"/>
			<path fill="#656563" d="M692.9,677l-30.8,90.4h-85.5c56.7-19.3,71.7-78.3,74.3-90.4H692.9z"/>
		</g>
	</g>
	<g>
		<g>
			<path fill="#95C0F4" d="M320.3,1044c1.6,0,3-1.1,3.3-2.7l16.1-91.4l23.2-131.4l6.5-36.7l-16.5-0.5l-2.9,21.3l-20.1,149.9
				l-11.9,88.8C317.8,1042.7,318.9,1044,320.3,1044z"/>
		</g>
		<path fill="#78ACEA" d="M350,802.6c10.7,4.7,12.9,15.9,12.9,15.9l6.5-36.7l-16.5-0.5L350,802.6z"/>
	</g>
	<g>
		<g>
			<path fill="#95C0F4" d="M731.1,1044c-1.6,0-3-1.1-3.3-2.7l-16.1-91.4l-23.2-131.4l-6.5-36.7l16.5-0.5l2.9,21.3l20.1,149.9
				l11.9,88.8C733.6,1042.7,732.5,1044,731.1,1044z"/>
		</g>
		<path fill="#78ACEA" d="M701.4,802.6c-10.7,4.7-12.9,15.9-12.9,15.9l-6.5-36.7l16.5-0.5L701.4,802.6z"/>
	</g>
	<path fill="#78ACEA" d="M313.7,796.2h414.2c7.9,0,14.4-6.5,14.4-14.4v0c0-7.9-6.5-14.4-14.4-14.4H313.7c-7.9,0-14.4,6.5-14.4,14.4
		v0C299.2,789.7,305.7,796.2,313.7,796.2z"/>
	<path fill="#2E3552" d="M1674.4,1047.8H221.9c-1.1,0-1.9-0.9-1.9-1.9v0c0-1.1,0.9-1.9,1.9-1.9h1452.4c1.1,0,1.9,0.9,1.9,1.9l0,0
		C1676.3,1046.9,1675.4,1047.8,1674.4,1047.8z"/>
	<g>
		<path fill="#E4E0AA" d="M1293.2,573.2c0,0-5.9-19-9.3-21.1c-3.4-2-17.3-8.9-18.2-7.1c-0.8,1.9,7.5,10.9,9.4,13.9
			c1.9,3,2.8,6,1.5,4.7c-1.3-1.3-8.4-5.7-9.1-4.7c-0.7,1,3.5,4.7,5.6,7.7c2,3,4.3,8,11.5,9.1C1292,576.8,1293.2,573.2,1293.2,573.2z
			"/>
		<path fill="#E4E0AA" d="M1508.4,733.5c0,0-1.8,17.2-3.7,20.5c-1.9,3.3-10.2,13.7-13.7,15.7c-3.5,2,2.2-13.7,1.4-16.8
			c-0.7-3.1-2.9,5.6-4.5,5.8c-1.6,0.2-1.2-7.6-1.2-10.4c-0.1-2.8,7.6-9.8,10.2-15.9C1499.7,726.4,1508.4,733.5,1508.4,733.5z"/>
		<path fill="#A5C48C" d="M1454.5,557c0,0-14.3,70.2-93,93.2c-24.6,7.2-80.4-73.7-80.4-73.7s2-7.5,14.3-5.7c0,0,54.4,36,61.2,39.9
			c6.1,3.5,46-44.6,64.2-52.3C1438.9,550.5,1454.5,557,1454.5,557z"/>
		<g>
			<path fill="#2F2D2C" d="M1548.5,998.4c0,0,9.8,8.9,7.9,15.2c-1.9,6.3-10.7,10.6-11.9,18.3c-1.2,7.7-6,12-10.2,12
				c-4.3,0-20.4,0-20.4,0s-3.2-5.4,4.5-7.1c7.6-1.6,10.5-10.7,10-19.2c-0.5-8.4,0.7-19.7,0.7-19.7l16.2-3.8L1548.5,998.4z"/>
			<path fill="#2F2D2C" d="M1428.6,1021.4c0,0,1.8,20.3-2.5,22.4l-54.9-0.1c0,0,0-6.3,8.8-7.7c8.8-1.4,24.3-6.6,26.9-18.1
				C1409.6,1006.4,1428.6,1021.4,1428.6,1021.4z"/>
			<path fill="#25478E" d="M1382.3,734.9c0,0,2.9,35.6,6.3,78.3c4.6,58.1,10.2,129.4,10.7,142.9c0.9,23.5,4.8,61,4.8,61
				s9,8.9,27.2,5.2c0,0,16.1-53.6,20.7-110.2c0.1-0.9,0.1-1.9,0.2-2.8c4.3-57.7,11-179.2,11-179.2L1382.3,734.9z"/>
			<path fill="#1D3966" d="M1382.3,734.9c0,0,2.9,35.6,6.3,78.3L1452,912c0.1-0.9,0.1-1.9,0.2-2.8c4.3-57.7,11-179.2,11-179.2
				L1382.3,734.9z"/>
			<path fill="#25478E" d="M1395.5,739.2c0,0,52.2,128.8,86.5,189.3c34.3,60.5,45,77.4,45,77.4s19.7-7.7,21.4-13
				c0,0-13.1-116.8-36.1-145.3c-13-16.1-28.2-64.4-28.9-81.3c-0.7-16.9-4.6-50.3-4.6-50.3L1395.5,739.2z"/>
		</g>
		<path fill="#E4E0AA" d="M1464.2,540.7c0,0-35.3,17-55.6,10.7c0,0,5-6.3,13.8-11c-0.7-4.1-1.3-7.6-1.6-10.6
			c-0.9-6.9-0.9-10.9-0.9-10.9l13.6-10.7l12.9-10.2C1445.4,526.8,1464.2,540.7,1464.2,540.7z"/>
		<path fill="#B4D699" d="M1482.8,722.5c0.1,2.2-4.5,4.6-6.6,5.5c-15.1,6.6-29.2,11.3-45.2,12.8c-18.9,1.9-41.2-2.3-48.8-2.2
			c-0.8,0-1.5-0.3-2.1-0.8c-0.5-0.4-0.9-23.1-0.5-51.7c0-1.2,0-2.3,0.1-3.5v-0.4c0.2-11.2,0.5-22.9,1.1-34.6
			c1.1-25.7,7.6-49.6,11.1-63.4c4.1-16.2,9.1-27.8,17.6-35.6l7-6.2c7,1.4,14.5,1,21.9-2.6c8.1-3.9,16.9-8.2,18.3-7.1
			c10.6,7.8,17.8,25.3,21.7,47.6c0,0.1,0,0.2,0.1,0.3c2.2,12.8,3.2,27.1,3.2,42c0,5.6-0.2,11.3-0.5,16.9
			c-1.6,25.5-0.5,48.2,0.5,63.9c0.2,3.1,0.4,5.9,0.6,8.5C1482.5,716.6,1482.7,720.1,1482.8,722.5z"/>
		<path fill="#A5C48C" d="M1481.6,703.7c-58.5-67.5-22.2-116.6-22.2-116.6l19-6.2c2.2,12.8,3.2,27.1,3.2,42c0,5.6-0.2,11.3-0.5,16.9
			C1479.5,665.3,1480.5,687.9,1481.6,703.7z"/>
		<path fill="#CFCC9B" d="M1446.6,509c0,0-8.9,16.3-25.9,20.8c-0.9-6.9-0.9-10.9-0.9-10.9l13.6-10.7L1446.6,509z"/>
		<path fill="#E4E0AA" d="M1413.7,518.4c0,0,33.7,5.5,36.8-15.2c3.2-20.7,9.6-33.9-11.7-38.3c-21.4-4.4-26.8,2.9-29.5,9.5
			C1406.5,481.1,1405,516.5,1413.7,518.4z"/>
		<path fill="#482E1F" d="M1462.7,462.5c0.3-0.4,1-0.6,2.6-0.7c0,0-1.3-0.8-2.9-0.8c-0.3-2.2-1.5-6-5.2-7c0,0,2,1.1,2.3,3.4
			c-4.3-4.5-13.7-7.7-39.5-5.7c-34,2.7-22.8,24.5-18.4,27.1c4.4,2.6,15.5-4.5,23.7-3.9c8.2,0.7,9.8,12.5,12.5,14.1
			c2.8,1.6,1.7-1.2,5.5-3c3.8-1.7,4.1,4.5,3,8.6c-1.1,4.1,4.1,9.4,4.1,9.4s0,0,5.2-5.6c5.2-5.6,10.2-29.5,7.8-34.6
			C1463.2,463.4,1463,462.9,1462.7,462.5z"/>
		<path fill="#B4D699" d="M1456.6,532.7c0,0,21.3,10.1,31.5,25.6c15.8,24.1,34.2,111.7,34.5,119.8c0.3,8.1-13.4,65.4-13.4,65.4
			s-13.9-0.9-17.5-8c0,0,2.8-58.9,1-62.7c-1.8-3.8-58.1-79-51.8-95C1447.3,561.9,1456.6,532.7,1456.6,532.7z"/>
	</g>
	<path fill="#FCECDB" d="M1278.1,664.5h-80.3c-8.3,0-15.2-6.8-15.2-15.2v0c0-8.3,6.8-15.2,15.2-15.2h80.3c8.3,0,15.2,6.8,15.2,15.2
		v0C1293.2,657.7,1286.4,664.5,1278.1,664.5z"/>
	<g>
		<g>
			<path fill="#F99746" d="M1237.7,656c-0.6,0-1.1-0.3-1.4-0.8l-4.4-7.5c-0.5-0.8-0.2-1.8,0.6-2.3c0.8-0.5,1.8-0.2,2.3,0.6l2.8,4.8
				l5.3-11c0.4-0.8,1.4-1.2,2.2-0.8c0.8,0.4,1.2,1.4,0.8,2.2l-6.7,13.8C1239,655.6,1238.4,656,1237.7,656
				C1237.8,656,1237.8,656,1237.7,656z"/>
		</g>
		<g>
			<path fill="#F99746" d="M1237.7,659.9c-5.7,0-10.4-4.7-10.4-10.4c0-5.7,4.7-10.4,10.4-10.4s10.4,4.7,10.4,10.4
				C1248.1,655.2,1243.5,659.9,1237.7,659.9z M1237.7,640.3c-5.1,0-9.2,4.1-9.2,9.2c0,5.1,4.1,9.2,9.2,9.2c5.1,0,9.2-4.1,9.2-9.2
				C1246.9,644.4,1242.8,640.3,1237.7,640.3z"/>
		</g>
	</g>
	<g>
		<path fill="#D2E3FC" d="M763.6,555.6h-89.8c-11.8,0-21.4,9.7-21.4,21.4v34c0,5.4,2,10.3,5.3,14.1l-5.3,24.4l30.8-17h80.5
			c11.8,0,21.4-9.7,21.4-21.4v-34C785.1,565.2,775.4,555.6,763.6,555.6z"/>
		<path fill="#B7D3F3" d="M765.3,581.5h-93.1c-1.9,0-3.5-1.6-3.5-3.5l0,0c0-1.9,1.6-3.5,3.5-3.5h93.1c1.9,0,3.5,1.6,3.5,3.5l0,0
			C768.8,579.9,767.3,581.5,765.3,581.5z"/>
		<path fill="#B7D3F3" d="M765.3,596.7h-93.1c-1.9,0-3.5-1.6-3.5-3.5l0,0c0-1.9,1.6-3.5,3.5-3.5h93.1c1.9,0,3.5,1.6,3.5,3.5l0,0
			C768.8,595.1,767.3,596.7,765.3,596.7z"/>
		<path fill="#B7D3F3" d="M765.3,611.4h-93.1c-1.9,0-3.5-1.6-3.5-3.5l0,0c0-1.9,1.6-3.5,3.5-3.5h93.1c1.9,0,3.5,1.6,3.5,3.5l0,0
			C768.8,609.8,767.3,611.4,765.3,611.4z"/>
	</g>
	<g>
		<g>
			<g>
				<g>
					<g>
						<text transform="matrix(1 0 0 1 472.6104 700.3057)" fill="#2E358D" font-family="'Comfortaa-Bold'" font-size="8.2051">a</text>
					</g>
				</g>
				<g>
					<g>
						<text transform="matrix(1 0 0 1 478.1484 700.3057)" fill="#2E358D" font-family="'Comfortaa-Bold'" font-size="8.2051">r</text>
					</g>
				</g>
				<g>
					<g>
						<text transform="matrix(1 0 0 1 481.8086 700.3057)" fill="#2E358D" font-family="'Comfortaa-Bold'" font-size="8.2051">celsheba</text>
					</g>
				</g>
			</g>
		</g>
		<g>
			<radialGradient id="SVGID_1_" cx="467.2746" cy="688.3434" r="15.7576" gradientUnits="userSpaceOnUse">
				<stop  offset="0" style="stop-color:#00A8E4"/>
				<stop  offset="1" style="stop-color:#2D358C"/>
			</radialGradient>
			<polygon fill="url(#SVGID_1_)" points="464.1,674 470.2,680.1 470.2,693.9 464.1,693.9 			"/>
			<linearGradient id="SVGID_2_" gradientUnits="userSpaceOnUse" x1="461.2468" y1="693.7041" x2="482.9544" y2="675.4893">
				<stop  offset="0.6089" style="stop-color:#3E75B6"/>
				<stop  offset="1" style="stop-color:#2D358C"/>
			</linearGradient>
			<path fill="url(#SVGID_2_)" d="M464.2,674l6,6.1h7.8c0,0,2.2,0.7,2.2,2.9c0,2.3-2.2,3-2.2,3h-6.7c0,0-6.6,0-7.2,6.8l0,4.2
				l6.1,6.1v-8.9c0,0,0.2-2.1,2.6-2.2c2.4,0,6.5,0,6.5,0s7.3,0,7.2-8.8c0-8.8-9.1-9.4-9.1-9.4H464.2z"/>
			<radialGradient id="SVGID_3_" cx="483.3755" cy="679.4612" r="17.561" gradientUnits="userSpaceOnUse">
				<stop  offset="0" style="stop-color:#00A8E4"/>
				<stop  offset="1" style="stop-color:#2D358C"/>
			</radialGradient>
			<path fill="url(#SVGID_3_)" d="M486.5,685.2c0,0,1.1-5.1-8.5-5.1s-7.8,0-7.8,0l-6-6.1h13.4C477.5,674,487.9,674.8,486.5,685.2z"
				/>
			<linearGradient id="SVGID_4_" gradientUnits="userSpaceOnUse" x1="466.7784" y1="700.2964" x2="474.3329" y2="693.9575">
				<stop  offset="0" style="stop-color:#3E75B6"/>
				<stop  offset="1" style="stop-color:#2D358C"/>
			</linearGradient>
			<path fill="url(#SVGID_4_)" d="M470.3,703.3l-6.1-6.1c0,0,2.8-4.9,8.7-4.9c0,0-2.2,0-2.6,2.2V703.3z"/>
		</g>
	</g>
	<g>
		<g>
			<g>
				<g>
					<g>
						<text transform="matrix(0.714 0 0 1 1398.8223 621.4082)" fill="#2E358D" font-family="'Comfortaa-Bold'" font-size="9.5373">a</text>
					</g>
				</g>
				<g>
					<g>
						<text transform="matrix(0.714 0 0 1 1403.4181 621.4082)" fill="#2E358D" font-family="'Comfortaa-Bold'" font-size="9.5373">r</text>
					</g>
				</g>
				<g>
					<g>
						<text transform="matrix(0.714 0 0 1 1406.4561 621.4082)" fill="#2E358D" font-family="'Comfortaa-Bold'" font-size="9.5373">celsheba</text>
					</g>
				</g>
			</g>
		</g>
		<g>
			
				<radialGradient id="SVGID_5_" cx="1352.2006" cy="607.5045" r="18.3158" gradientTransform="matrix(0.714 0 0 1 428.9234 0)" gradientUnits="userSpaceOnUse">
				<stop  offset="0" style="stop-color:#00A8E4"/>
				<stop  offset="1" style="stop-color:#2D358C"/>
			</radialGradient>
			<polygon fill="url(#SVGID_5_)" points="1391.8,590.9 1396.8,598 1396.8,614 1391.8,614 			"/>
			<linearGradient id="SVGID_6_" gradientUnits="userSpaceOnUse" x1="1387.4768" y1="613.6728" x2="1409.3221" y2="595.3424">
				<stop  offset="0.6089" style="stop-color:#3E75B6"/>
				<stop  offset="1" style="stop-color:#2D358C"/>
			</linearGradient>
			<path fill="url(#SVGID_6_)" d="M1391.8,590.9l5,7.1h6.5c0,0,1.9,0.8,1.9,3.4c0,2.6-1.8,3.5-1.8,3.5h-5.6c0,0-5.5,0-6,7.9l0,4.9
				l5.1,7.1v-10.4c0,0,0.2-2.5,2.2-2.5c2,0,5.4,0,5.4,0s6,0,6-10.2c0-10.3-7.6-10.9-7.6-10.9H1391.8z"/>
			
				<radialGradient id="SVGID_7_" cx="1370.9148" cy="597.1802" r="20.4119" gradientTransform="matrix(0.714 0 0 1 428.9234 0)" gradientUnits="userSpaceOnUse">
				<stop  offset="0" style="stop-color:#00A8E4"/>
				<stop  offset="1" style="stop-color:#2D358C"/>
			</radialGradient>
			<path fill="url(#SVGID_7_)" d="M1410.4,603.9c0,0,0.9-5.9-7.1-5.9s-6.5,0-6.5,0l-5-7.1h11.1
				C1402.9,590.9,1411.5,591.8,1410.4,603.9z"/>
			<linearGradient id="SVGID_8_" gradientUnits="userSpaceOnUse" x1="1393.707" y1="621.0976" x2="1401.3098" y2="614.7181">
				<stop  offset="0" style="stop-color:#3E75B6"/>
				<stop  offset="1" style="stop-color:#2D358C"/>
			</linearGradient>
			<path fill="url(#SVGID_8_)" d="M1396.9,624.9l-5.1-7.1c0,0,2.3-5.7,7.2-5.8c0,0-1.9,0-2.2,2.5V624.9z"/>
		</g>
	</g>
	<path fill="#0097C6" d="M1421.2,543.4c0,0,8.8,2,4.4,14c0,0,29.1-13.3,31.7-23.9c0,0-0.6-5.8-3.2-5.8
		C1451.3,527.7,1458.9,532.3,1421.2,543.4z"/>
	<path fill="#0097C6" d="M1419.9,543.1l2.4-2.7l-0.9-5.6c0,0-14.5,10.5-15,16.7C1406.4,551.5,1414.9,541.6,1419.9,543.1z"/>
	<path fill="#0097C6" d="M1423,544.1c0,0-15.9,13.3-19.1,25c0,0-5.7,0-5.8-2.1c0,0,4.2-11.2,18.4-23.6
		C1416.5,543.5,1418.1,541.9,1423,544.1z"/>
</g>
<g>
	<g>
		<text transform="matrix(1 0 0 1 694.0952 231.6758)" font-family="'MyriadPro-Regular'" font-size="106.9397">O</text>
	</g>
	<g>
		<text transform="matrix(1 0 0 1 768.0962 231.6758)" font-family="'MyriadPro-Regular'" font-size="106.9397">ur </text>
	</g>
	<g>
		<text transform="matrix(1 0 0 1 884.6582 231.6758)" font-family="'MyriadPro-Regular'" font-size="106.9397">S</text>
	</g>
	<g>
		<text transform="matrix(1 0 0 1 938.0205 231.6758)" font-family="'MyriadPro-Regular'" font-size="106.9397">e</text>
	</g>
	<g>
		<text transform="matrix(1 0 0 1 991.5967 231.6758)" font-family="'MyriadPro-Regular'" font-size="106.9397">r</text>
	</g>
	<g>
		<text transform="matrix(1 0 0 1 1029.2383 231.6758)" font-family="'MyriadPro-Regular'" font-size="106.9397">vi</text>
	</g>
	<g>
		<text transform="matrix(1 0 0 1 1105.6973 231.6758)" font-family="'MyriadPro-Regular'" font-size="106.9397">c</text>
	</g>
	<g>
		<text transform="matrix(1 0 0 1 1152.9648 231.6758)" font-family="'MyriadPro-Regular'" font-size="106.9397">es</text>
	</g>
</g>
</svg>
