<?xml version="1.0" encoding="utf-8"?>
<!-- Generator: Adobe Illustrator 18.0.0, SVG Export Plug-In . SVG Version: 6.00 Build 0)  -->
<!DOCTYPE svg PUBLIC "-//W3C//DTD SVG 1.1//EN" "http://www.w3.org/Graphics/SVG/1.1/DTD/svg11.dtd">
<svg version="1.1" xmlns="http://www.w3.org/2000/svg" xmlns:xlink="http://www.w3.org/1999/xlink" x="0px" y="0px"
	 viewBox="0 0 3000 2000" enable-background="new 0 0 3000 2000" xml:space="preserve">
<g id="BACKGROUND">
</g>
<g id="OBJECTS">
	<path fill="#E1F4FD" d="M2358.8,767c-217.5-588.1-1386.2-613.7-1476,46.2c0,0-69.3,12.1-130.4,3.8
		c-333.2-44.9-916.4,516.5-468.8,945.5h2499.2C3053.1,1352.9,2858.9,933.7,2358.8,767z"/>
	<g>
		<path fill="#DADADA" d="M1978.9,677.1c-9.5,0-17.2-7.7-17.2-17.2s7.7-17.2,17.2-17.2c9.5,0,17.2,7.7,17.2,17.2
			S1988.4,677.1,1978.9,677.1z M1978.9,648c-6.6,0-11.9,5.3-11.9,11.9c0,6.6,5.3,11.9,11.9,11.9c6.6,0,11.9-5.3,11.9-11.9
			C1990.8,653.3,1985.5,648,1978.9,648z"/>
		<path fill="#DADADA" d="M553.2,943c-9.5,0-17.2-7.7-17.2-17.2s7.7-17.2,17.2-17.2s17.2,7.7,17.2,17.2S562.7,943,553.2,943z
			 M553.2,913.9c-6.6,0-11.9,5.3-11.9,11.9c0,6.6,5.3,11.9,11.9,11.9c6.6,0,11.9-5.3,11.9-11.9C565.1,919.2,559.8,913.9,553.2,913.9
			z"/>
		<path fill="#DADADA" d="M2148.2,1326.1c-9.5,0-17.2-7.7-17.2-17.2c0-9.5,7.7-17.2,17.2-17.2c9.5,0,17.2,7.7,17.2,17.2
			C2165.4,1318.4,2157.7,1326.1,2148.2,1326.1z M2148.2,1297c-6.6,0-11.9,5.3-11.9,11.9c0,6.6,5.3,11.9,11.9,11.9
			c6.6,0,11.9-5.3,11.9-11.9C2160.1,1302.3,2154.8,1297,2148.2,1297z"/>
		<path fill="#DADADA" d="M2733.3,1142.7c-9.5,0-17.2-7.7-17.2-17.2c0-9.5,7.7-17.2,17.2-17.2s17.2,7.7,17.2,17.2
			C2750.4,1135,2742.7,1142.7,2733.3,1142.7z M2733.3,1113.6c-6.6,0-11.9,5.3-11.9,11.9c0,6.6,5.3,11.9,11.9,11.9
			s11.9-5.3,11.9-11.9C2745.2,1118.9,2739.8,1113.6,2733.3,1113.6z"/>
		<circle fill="#DADADA" cx="2091.4" cy="1081.8" r="11.9"/>
		<circle fill="#DADADA" cx="2639.3" cy="1520.1" r="11.9"/>
		<circle fill="#DADADA" cx="1763.4" cy="741.9" r="11.9"/>
		<circle fill="#DADADA" cx="449.2" cy="1558.9" r="11.9"/>
	</g>
	<g>
		<path fill="#86A7FF" d="M1686.7,1759.9h-787c-27.2,0-49.3-22.1-49.3-49.3V560.4c0-27.2,22.1-49.3,49.3-49.3h787
			c27.2,0,49.3,22.1,49.3,49.3v1150.3C1736,1737.9,1714,1759.9,1686.7,1759.9z"/>
		<rect x="1137.2" y="566" fill="#D3DFFF" width="312.1" height="52.4"/>
		<rect x="938.8" y="698.3" fill="#DADADA" width="708.9" height="157.2"/>
		<rect x="969.8" y="719.8" fill="#FFFFFF" width="646.9" height="114.2"/>
		<g>
			<path fill="#1F3C88" d="M1462.8,991.9h-48.2c-14.5,0-26.2-11.7-26.2-26.2v-11.1c0-14.5,11.7-26.2,26.2-26.2h48.2
				c14.5,0,26.2,11.7,26.2,26.2v11.1C1489,980.2,1477.3,991.9,1462.8,991.9z"/>
			<path fill="#1F3C88" d="M1621.5,991.9h-48.2c-14.5,0-26.2-11.7-26.2-26.2v-11.1c0-14.5,11.7-26.2,26.2-26.2h48.2
				c14.5,0,26.2,11.7,26.2,26.2v11.1C1647.7,980.2,1636,991.9,1621.5,991.9z"/>
		</g>
		<g>
			<path fill="#1F3C88" d="M1635.2,1151.5h-96.7c-6.9,0-12.5-5.6-12.5-12.5v-58c0-6.9,5.6-12.5,12.5-12.5h96.7
				c6.9,0,12.5,5.6,12.5,12.5v58C1647.7,1145.9,1642.1,1151.5,1635.2,1151.5z"/>
			<path fill="#1F3C88" d="M1441.1,1151.5h-96.7c-6.9,0-12.5-5.6-12.5-12.5v-58c0-6.9,5.6-12.5,12.5-12.5h96.7
				c6.9,0,12.5,5.6,12.5,12.5v58C1453.6,1145.9,1448,1151.5,1441.1,1151.5z"/>
			<path fill="#1F3C88" d="M1247,1151.5h-96.7c-6.9,0-12.5-5.6-12.5-12.5v-58c0-6.9,5.6-12.5,12.5-12.5h96.7
				c6.9,0,12.5,5.6,12.5,12.5v58C1259.5,1145.9,1253.9,1151.5,1247,1151.5z"/>
			<path fill="#1F3C88" d="M1052.9,1151.5h-96.7c-6.9,0-12.5-5.6-12.5-12.5v-58c0-6.9,5.6-12.5,12.5-12.5h96.7
				c6.9,0,12.5,5.6,12.5,12.5v58C1065.3,1145.9,1059.8,1151.5,1052.9,1151.5z"/>
		</g>
		<g>
			<path fill="#1F3C88" d="M1635.2,1301.4h-96.7c-6.9,0-12.5-5.6-12.5-12.5v-58c0-6.9,5.6-12.5,12.5-12.5h96.7
				c6.9,0,12.5,5.6,12.5,12.5v58C1647.7,1295.8,1642.1,1301.4,1635.2,1301.4z"/>
			<path fill="#D3DFFF" d="M1441.1,1301.4h-96.7c-6.9,0-12.5-5.6-12.5-12.5v-58c0-6.9,5.6-12.5,12.5-12.5h96.7
				c6.9,0,12.5,5.6,12.5,12.5v58C1453.6,1295.8,1448,1301.4,1441.1,1301.4z"/>
			<path fill="#D3DFFF" d="M1247,1301.4h-96.7c-6.9,0-12.5-5.6-12.5-12.5v-58c0-6.9,5.6-12.5,12.5-12.5h96.7
				c6.9,0,12.5,5.6,12.5,12.5v58C1259.5,1295.8,1253.9,1301.4,1247,1301.4z"/>
			<path fill="#D3DFFF" d="M1052.9,1301.4h-96.7c-6.9,0-12.5-5.6-12.5-12.5v-58c0-6.9,5.6-12.5,12.5-12.5h96.7
				c6.9,0,12.5,5.6,12.5,12.5v58C1065.3,1295.8,1059.8,1301.4,1052.9,1301.4z"/>
		</g>
		<g>
			<path fill="#1F3C88" d="M1635.2,1451.3h-96.7c-6.9,0-12.5-5.6-12.5-12.5v-58c0-6.9,5.6-12.5,12.5-12.5h96.7
				c6.9,0,12.5,5.6,12.5,12.5v58C1647.7,1445.7,1642.1,1451.3,1635.2,1451.3z"/>
			<path fill="#D3DFFF" d="M1441.1,1451.3h-96.7c-6.9,0-12.5-5.6-12.5-12.5v-58c0-6.9,5.6-12.5,12.5-12.5h96.7
				c6.9,0,12.5,5.6,12.5,12.5v58C1453.6,1445.7,1448,1451.3,1441.1,1451.3z"/>
			<path fill="#D3DFFF" d="M1247,1451.3h-96.7c-6.9,0-12.5-5.6-12.5-12.5v-58c0-6.9,5.6-12.5,12.5-12.5h96.7
				c6.9,0,12.5,5.6,12.5,12.5v58C1259.5,1445.7,1253.9,1451.3,1247,1451.3z"/>
			<path fill="#D3DFFF" d="M1052.9,1451.3h-96.7c-6.9,0-12.5-5.6-12.5-12.5v-58c0-6.9,5.6-12.5,12.5-12.5h96.7
				c6.9,0,12.5,5.6,12.5,12.5v58C1065.3,1445.7,1059.8,1451.3,1052.9,1451.3z"/>
		</g>
		<g>
			<path fill="#FBC343" d="M1635.2,1606.5h-96.7c-6.9,0-12.5-5.6-12.5-12.5v-58c0-6.9,5.6-12.5,12.5-12.5h96.7
				c6.9,0,12.5,5.6,12.5,12.5v58C1647.7,1600.9,1642.1,1606.5,1635.2,1606.5z"/>
			<path fill="#D3DFFF" d="M1441.1,1606.5h-96.7c-6.9,0-12.5-5.6-12.5-12.5v-58c0-6.9,5.6-12.5,12.5-12.5h96.7
				c6.9,0,12.5,5.6,12.5,12.5v58C1453.6,1600.9,1448,1606.5,1441.1,1606.5z"/>
			<path fill="#D3DFFF" d="M1247,1606.5h-96.7c-6.9,0-12.5-5.6-12.5-12.5v-58c0-6.9,5.6-12.5,12.5-12.5h96.7
				c6.9,0,12.5,5.6,12.5,12.5v58C1259.5,1600.9,1253.9,1606.5,1247,1606.5z"/>
			<path fill="#D3DFFF" d="M1052.9,1606.5h-96.7c-6.9,0-12.5-5.6-12.5-12.5v-58c0-6.9,5.6-12.5,12.5-12.5h96.7
				c6.9,0,12.5,5.6,12.5,12.5v58C1065.3,1600.9,1059.8,1606.5,1052.9,1606.5z"/>
		</g>
	</g>
	<g>
		<g>
			<rect x="1968.7" y="1408.2" fill="#FBC343" width="483.2" height="354.4"/>
			<rect x="2323.2" y="1488.4" fill="#E49B31" width="128.7" height="5.3"/>
			<rect x="2228" y="1682.4" fill="#E49B31" width="224" height="5.3"/>
			<path fill="#E49B31" d="M2209.6,1536.6c0,40.8-6.1,81.8-18.6,121.6c-19,60.5-75,101.7-138.4,101.7h-83.9v-351.7h220.1
				C2202.6,1449.5,2209.6,1492.9,2209.6,1536.6z"/>
		</g>
		<g>
			<path fill="#FBC343" d="M1767.7,1700.8v37.8c0,13.3-10.7,24-24,24h-398.3c-13.3,0-24-10.7-24-24v-37.8c0-13.3,10.7-24,24-24
				h398.3C1757,1676.8,1767.7,1687.5,1767.7,1700.8z"/>
			<path fill="#FBC343" d="M1718.4,1614.9v37.8c0,13.3-10.8,24-24,24H1296c-13.3,0-24-10.7-24-24v-37.8c0-13.2,10.7-24,24-24h398.3
				C1707.6,1590.9,1718.4,1601.7,1718.4,1614.9z"/>
			<path fill="#E49B31" d="M1767.7,1700.8v37.8c0,13.3-10.7,24-24,24h-285.6c-19.7-24.3-31.8-55.7-39-85.8
				c-8.4-34.5-10.5-67.2-11-85.9h286.3c13.2,0,24,10.8,24,24v37.8c0,13.3-10.8,24-24,24h49.4
				C1757,1676.8,1767.7,1687.5,1767.7,1700.8z"/>
		</g>
		<g>
			<path fill="#FBC343" d="M1977.1,997l-32.2,98.8l-2.4,7.3l-14.9,45.9l-0.1,0.3l-48.1-1.1l-184.5-4.2l-13.5-38.6l-2.3-6.5
				l-35.7-102C1754.2,1035.4,1845.5,951.5,1977.1,997z"/>
			<path fill="#E49B31" d="M1942.5,1103.1l-14.9,45.9l-48.2-0.7l-184.5-4.2l-13.5-38.6C1744.8,1104.3,1853.9,1102.8,1942.5,1103.1z"
				/>
			<path fill="#FBC343" d="M2148.7,1660.9c-9.5,30.3-28.3,55.7-52.5,73.5c-24.3,17.9-54.2,28.1-85.9,28.1h-417.9
				c-60.4,0-113.4-40.4-129.5-98.7c-9.3-33.7-14.2-67.9-15-101.9c-0.1-3.3-0.1-6.6-0.1-9.8c0-3.9,0.1-7.8,0.2-11.6
				c3.4-123.3,63.7-238.1,160.4-314.7l100-79.2l228.8,5.3l125.8,120.4c17.7,16.9,33.5,35.9,46.1,56.8c15.2,25.1,27.4,51.7,36.7,79.1
				C2173.1,1488.9,2174.9,1577.4,2148.7,1660.9z"/>
			<path fill="#ED7545" d="M1974.9,1189.4h-323.7c-13.4,0-24.3-11-24.3-24.3v-10.4c0-13.4,11-24.3,24.3-24.3h323.7
				c13.4,0,24.3,11,24.3,24.3v10.4C1999.2,1178.4,1988.3,1189.4,1974.9,1189.4z"/>
			<path opacity="0.4" fill="#E49B31" d="M2148.7,1660.9c-9.5,30.3-28.3,55.7-52.5,73.5c-24.3,17.9-54.2,28.1-85.9,28.1h-417.9
				c-60.4,0-113.4-40.4-129.5-98.7c-9.3-33.7-14.2-67.9-15-101.9c69.1,65.9,150.6,152.1,341.1,154.8
				c236.5,3.3,338.4-107.6,356.7-308.6C2173.1,1488.9,2174.9,1577.4,2148.7,1660.9z"/>
		</g>
	</g>
	<rect x="97.9" y="1757.3" fill="#102048" width="2823.1" height="5.3"/>
	<g>
		<path fill="#482E1F" d="M676.4,978.7c-3.6-7,79.3-32.2,80.6,36.9c0,0,155.3-3.8,81.2-90.4c-25.7-30-23-54.7-22.3-77.8
			c0.8-23.1-16-90.1-73.5-83.4c0,0-15.1-6.1-33.8,3.6C665.8,789.9,570.1,1004.2,676.4,978.7z"/>
		<path fill="#FDF7B9" d="M930.3,1056c0,0,10.1-15.4,18.3-15.7c8.1-0.3,23.2-4.5,22-1.5c-1.2,3-10.6,3.3-11.5,5.1
			c-0.9,1.8,13.9,4.5,18.1,4.8c4.2,0.3,14.2,0,13.9,2.1c-0.3,2.1-17.9,10.9-30.4,9.7c-12.5-1.2-27.8,3.6-27.8,3.6L930.3,1056z"/>
		<path fill="#B4D699" d="M934.8,1073.7c0,0-21.2,28.8-49.5,41.4c0,0,0,0,0,0c-10,4.4-20.8,6.8-32,5.2c-8.1-1.2-15.6-4.1-22.4-7.9
			c-12.9-7.3-23.5-18.1-31.4-27.9c-2.4-3-4.5-5.8-6.3-8.5c-5.9-8.6-9.1-14.9-9.1-14.9l7.2-122.9c0,0,25.7,6,33.3,17.4
			c7.5,11.5,39.2,102.7,44.7,105.5c5.4,2.7,62.5-10.1,62.5-10.1S939.8,1060.1,934.8,1073.7z"/>
		<path fill="#404041" d="M571.3,1676.7c0,0-17.4,15.9-14,27.2c3.4,11.3,19.1,18.8,21.2,32.6c2.1,13.8,10.6,21.3,18.3,21.3
			c7.6,0,36.4,0,36.4,0s5.6-9.7-8-12.6c-13.6-2.9-18.7-19.1-17.9-34.2c0.8-15-1.3-35.1-1.3-35.1l-28.9-6.7L571.3,1676.7z"/>
		<path fill="#404041" d="M718.6,1683.4c0,0-6.3,67.3,1.4,71l97.8-0.2c0,0,0-11.3-15.7-13.8c-15.7-2.5-43.3-11.7-48-32.2
			C749.4,1687.8,718.6,1683.4,718.6,1683.4z"/>
		<path fill="#A5C48C" d="M830.9,1112.3c-12.9-7.3-23.5-18.1-31.4-27.9c-2.4-3-4.5-5.8-6.3-8.5c5.4-25.5,13.3-60.5,11.6-38.3
			C802.6,1066.4,825,1103.3,830.9,1112.3z"/>
		<path fill="#FDF7B9" d="M648.9,1200.7c20.1-45.1,32.4-58.1,30.1-72.1c-1.7-10.4,5.3-194.4,5.3-194.4c2.4-0.7,7.2-1.4,9.8-2
			c8.3-1.8,15.1-7.6,17.9-15.6c3.4-9.6,6.1-23.8,6.1-41.5l2.6,0.5l43.3,8.6c0,0-1,13.6-1,26.5c0,0.1,0,0.2,0,0.3
			c-0.1,11.2,7.3,21,18,24.1c5.5,1.6,10.2,2.9,10.2,2.9s15.9,45.4,19,92.1c3,46.7-28.9,67,0.2,160.2
			C840.2,1285.7,637.8,1225.6,648.9,1200.7z"/>
		<path fill="#DBD6A2" d="M764,884.3c0,0-1,13.6-1,26.5c-24.3-0.7-37.1-22.8-42.3-35.1L764,884.3z"/>
		<path fill="#FDF7B9" d="M772.1,896.5c0,0-57.4,0.9-57.4-34.8c0-35.7-7.5-59.7,29.2-61.8c36.6-2.1,43.8,11.5,46.7,23.4
			C793.5,835.2,787,895.3,772.1,896.5z"/>
		<path fill="#482E1F" d="M770,799c0,0-15.7,41.9-39.8,48.1c-24.1,6.2-34.6-0.3-34.6-0.3s18.5-14.7,22.3-40.3
			C717.9,806.5,758.1,779,770,799z"/>
		<path fill="#482E1F" d="M766.1,802.4c0,0,11.6,4.4,16.4,12.9c4.7,8.3,8.7,19.3,7.8,32.8c0,0,11.8-28.5-1.5-44.6
			C774.7,786.3,766.1,802.4,766.1,802.4z"/>
		<path fill="#B4D699" d="M643.4,1015.6c0,0-1.5,20.5,0,45.2c1,16.3,17.5,38.2,19.8,43.6c5.9,13.6,12.5,15.8,12.5,15.8l51.3,12.6
			l18.1,4.4l56.9-17c0,0,25.9-72.4,15.5-113.1c-10.4-40.7-26.3-69-26.3-69s-46.4,45.5-106.9-3.9L643.4,1015.6z"/>
		<path fill="#F8CBA5" d="M658.4,1067.5c1,16.3,2.5,31.6,4.8,37c5.9,13.6,12.5,15.8,12.5,15.8l51.3,12.6l22.3-6.6
			c0,0-74.4-11.3-66.2-75.3L658.4,1067.5z"/>
		<path fill="#1D3966" d="M798.4,1131.2c0,0,28.2,87.7,30,117.6c1.8,29.9-53.9,424.4-56.1,438.2c-2.1,13-18.2,21.2-18.2,21.2
			s-7.4,4.4-18,1.4c-14.7-4.1-19.3-9.1-19.3-9.1s-21.9-281.4-8.4-381.9c13.6-100.5,13.7-187.4,13.7-187.4H798.4z"/>
		<path fill="#25478E" d="M679,1128.6c0,0-43,57.7-47,96.7c-4,39-6.3,176-14.8,214c-8.5,38-39.9,111.2-39.9,229.8
			c0,0,3.3,6.8,13.3,10.4c3.2,1.2,7.5,2.3,11.7,3.2c8.3,1.9,16.8-2.2,20.6-9.8c21.2-42.7,88.8-180.5,92.3-209.1
			c2.5-20.2,23.8-154.2,70.3-232.8c11.2-18.9-6.9-93.9-6.9-93.9L679,1128.6z"/>
		<path fill="#1D3966" d="M802.9,1117.7c0,0-11.3,9-33.8,9.4c-26.9,0.5-93.4-6.8-93.4-6.8s-3,8.3-2.8,17c0,0,81.3,20.5,128.4,3
			C801.2,1140.2,807.3,1128.8,802.9,1117.7z"/>
		<g>
			<path fill="#FFFFFF" d="M763.3,1136.4c0-7.6,5.5-13.9,12.3-13.9c6.8,0,12.3,6.2,12.3,13.9c0,7.6-5.5,13.9-12.3,13.9
				C768.8,1150.2,763.3,1144,763.3,1136.4z M767.4,1136.4c0,5.4,3.7,9.8,8.2,9.8c4.5,0,8.2-4.4,8.2-9.8c0-5.4-3.7-9.8-8.2-9.8
				C771,1126.6,767.4,1131,767.4,1136.4z"/>
		</g>
		<g>
			<g>
				<g>
					<g>
						<g>
							<text transform="matrix(1 0 0 1 728.5341 1056.932)" fill="#2E358D" font-family="'Comfortaa-Bold'" font-size="13.7723">a</text>
						</g>
					</g>
					<g>
						<g>
							<text transform="matrix(1 0 0 1 737.8303 1056.932)" fill="#2E358D" font-family="'Comfortaa-Bold'" font-size="13.7723">r</text>
						</g>
					</g>
					<g>
						<g>
							<text transform="matrix(1 0 0 1 743.9722 1056.932)" fill="#2E358D" font-family="'Comfortaa-Bold'" font-size="13.7723">celsheba</text>
						</g>
					</g>
				</g>
			</g>
			<g>
				<radialGradient id="SVGID_1_" cx="719.5795" cy="1036.8541" r="26.4489" gradientUnits="userSpaceOnUse">
					<stop  offset="0" style="stop-color:#00A8E4"/>
					<stop  offset="1" style="stop-color:#2D358C"/>
				</radialGradient>
				<polygon fill="url(#SVGID_1_)" points="714.3,1012.9 724.4,1023.1 724.4,1046.2 714.3,1046.2 				"/>
				<linearGradient id="SVGID_2_" gradientUnits="userSpaceOnUse" x1="709.4619" y1="1045.8521" x2="745.8979" y2="1015.2785">
					<stop  offset="0.6089" style="stop-color:#3E75B6"/>
					<stop  offset="1" style="stop-color:#2D358C"/>
				</linearGradient>
				<path fill="url(#SVGID_2_)" d="M714.4,1012.9l10.2,10.3h13.1c0,0,3.8,1.1,3.8,4.9c0,3.8-3.7,5-3.7,5h-11.3c0,0-11.1,0-12.1,11.5
					l0.1,7.1l10.3,10.3v-15c0,0,0.3-3.6,4.4-3.6c4-0.1,10.9,0,10.9,0s12.2,0.1,12.1-14.8c-0.1-14.8-15.3-15.8-15.3-15.8H714.4z"/>
				<radialGradient id="SVGID_3_" cx="746.6047" cy="1021.9455" r="29.4758" gradientUnits="userSpaceOnUse">
					<stop  offset="0" style="stop-color:#00A8E4"/>
					<stop  offset="1" style="stop-color:#2D358C"/>
				</radialGradient>
				<path fill="url(#SVGID_3_)" d="M751.9,1031.6c0,0,1.8-8.5-14.3-8.5c-16.1,0-13.1,0-13.1,0l-10.2-10.3h22.4
					C736.8,1012.9,754.2,1014.1,751.9,1031.6z"/>
				<linearGradient id="SVGID_4_" gradientUnits="userSpaceOnUse" x1="718.7466" y1="1056.9171" x2="731.4268" y2="1046.2772">
					<stop  offset="0" style="stop-color:#3E75B6"/>
					<stop  offset="1" style="stop-color:#2D358C"/>
				</linearGradient>
				<path fill="url(#SVGID_4_)" d="M724.7,1062l-10.3-10.3c0,0,4.7-8.3,14.6-8.3c0,0-3.8,0-4.4,3.6V1062z"/>
			</g>
		</g>
		
			<rect x="624.3" y="1037.3" transform="matrix(-0.7542 -0.6567 0.6567 -0.7542 461.1406 2398.3025)" fill="#F37621" width="110.4" height="151.1"/>
		<path fill="#FDF7B9" d="M694.5,1133.8c0,0,30.5,3.6,30.4,10.8c-0.1,7.2-7.6,22.1-11.4,22.8c-3.8,0.7-24.8-20.1-24.8-20.1
			L694.5,1133.8z"/>
		<path fill="#B4D699" d="M684.3,934.3c0,0-40.7,2.9-56.3,40.8c-15.6,38-45.2,101.7-45.2,112.4s16.5,43.8,105.4,62.8
			c0,0,9.2-9.7,8.6-17.3c0,0-55.5-47.6-55.3-53.2c0.3-10.5,9.1-24.4,57.8-73.2C712.5,993.3,684.3,934.3,684.3,934.3z"/>
		<polygon fill="#A5C48C" points="670,1011.2 648.5,1064.4 677.9,1030.5 		"/>
	</g>
	<path fill="#FFFFFF" d="M1716.2,1476.5c-0.7,0-1.3,0-1.9,0c-11.1,0-22.2,0-33.4,0c-0.6,0-1.4-0.3-1.9-0.8
		c-11.1-11.5-22.2-23.1-33.3-34.7c-0.2-0.2-0.4-0.4-0.7-0.8c23.8,0,47.4,0,71.1,0c0-0.6,0.1-1,0.1-1.4c0-23.5,0-47.1,0-70.6
		c0-6.7-1.7-12.8-6.7-17.6c-3.6-3.5-8-5.4-12.7-6.8c-5.8-1.8-11.6-1.8-17.5-0.3c-1.9,0.5-3.7,1.5-5.8,2.3c-0.9-1.6-2.1-3.5-3.1-5.5
		c-3.2-6.9-6.5-13.7-9.2-20.8c-1.3-3.5-0.6-7.5,1.5-10.9c2.5-4.1,6.2-6.6,10.3-8.7c7.9-4,16.2-7,25.1-7.9
		c16.3-1.6,29.6,3.6,39.6,16.9c8.5,11.2,12.9,24,15,37.7c1,6.6,1.4,13.2,1.4,19.8c0,24,0,47.9,0,71.9c0,0.6,0,1.2,0,1.9
		c0.6,0,1.1,0,1.6,0c6.2,0,12.4,0,18.6,0c0.6,0,1.3,0.3,1.7,0.7c11.4,11.6,22.9,23.3,34.3,35c0.1,0.1,0.3,0.3,0.6,0.7
		c-19,0-37.7,0-56.6,0c0,0.6-0.1,1-0.1,1.5c0,33.7,0,67.4,0,101.1c0,11.2,4.8,20,13.9,26.5c4.5,3.2,9.9,4.5,15.4,5.3
		c16.1,2.4,30.5-2.1,43.7-11c17.3-11.7,31.7-26.3,42.5-44.3c5.5-9.1,9.1-19,10.6-29.6c0.3-1.8,0.4-3.7,0.6-5.5c0-0.2,0-0.3,0-0.7
		c-1.9,0.1-3.7,0.3-5.5,0.4c-9.3,0.8-18.4-0.3-27.1-3.9c-9.8-4-16.7-11.1-20.4-20.9c-4.8-12.5-6.1-25.5-2.9-38.6
		c2.4-9.8,7.4-18.2,15.6-24.3c5.5-4.1,11.8-6.1,18.5-7.2c9.1-1.5,18.2-1.7,27.2,0.5c9.9,2.3,18.4,7.2,25.7,14.2
		c14.2,13.7,22.9,30.3,26,49.8c3.8,24,0,47-10,69c-7.5,16.6-18,31.1-30.1,44.6c-8.3,9.2-17.3,17.7-27.5,25
		c-14.5,10.3-30.4,17.6-47.8,21.5c-9.8,2.2-19.6,3.2-29.6,3.2c-9.5,0.1-18.4-2.3-26.9-6.3c-16.5-7.8-30.3-19-41.2-33.7
		c-3.5-4.7-6.2-9.8-7.8-15.5c-0.3-0.9-0.4-1.9-0.4-2.8c0-38.8,0-77.7,0-116.5C1716.2,1477.8,1716.2,1477.3,1716.2,1476.5z"/>
	<g>
		<g>
			<path fill="#E4E0AA" d="M1818.8,918.9c0,0-10.5-33.7-16.4-37.3c-5.9-3.6-30.7-15.8-32.2-12.5c-1.5,3.3,13.4,19.3,16.7,24.7
				c3.3,5.3,4.9,10.6,2.6,8.3c-2.3-2.3-14.8-10-16.2-8.3c-1.3,1.7,6.3,8.3,9.9,13.6c3.6,5.3,7.6,14.2,20.4,16.2
				C1816.5,925.4,1818.8,918.9,1818.8,918.9z"/>
			<path fill="#E4E0AA" d="M2199.7,1202.7c0,0-3.1,30.5-6.6,36.2c-3.4,5.8-18.1,24.2-24.3,27.8c-6.2,3.6,3.8-24.3,2.5-29.7
				c-1.3-5.4-5.1,9.9-7.9,10.3c-2.7,0.4-2-13.4-2.1-18.4c-0.1-5,13.4-17.4,18.1-28.1C2184.2,1190.1,2199.7,1202.7,2199.7,1202.7z"/>
			<path fill="#A5C48C" d="M2104.2,890.3c0,0-25.3,124.3-164.7,164.9c-43.5,12.7-142.3-130.5-142.3-130.5s3.5-13.2,25.2-10.2
				c0,0,96.2,63.7,108.3,70.6c10.7,6.1,81.4-78.9,113.7-92.7C2076.7,878.7,2104.2,890.3,2104.2,890.3z"/>
			<g>
				<path fill="#2F2D2C" d="M2270.5,1671.6c0,0,17.3,15.8,13.9,27c-3.4,11.2-19,18.7-21.1,32.4c-2.1,13.7-10.5,21.2-18.1,21.2
					c-7.6,0-36.2,0-36.2,0s-5.6-9.6,7.9-12.5c13.5-2.9,18.6-19,17.7-34c-0.8-14.9,1.3-34.9,1.3-34.9l28.7-6.6L2270.5,1671.6z"/>
				<path fill="#2F2D2C" d="M2058.5,1712.4c0,0,3.1,35.9-4.5,39.6l-97.1-0.2c0,0,0-11.2,15.6-13.7c15.6-2.5,43-11.6,47.6-32
					C2024.7,1685.8,2058.5,1712.4,2058.5,1712.4z"/>
				<path fill="#25478E" d="M1976.5,1205.2c0,0,5.1,62.9,11.1,138.6c8.2,102.8,18,229,19,252.9c1.7,41.5,8.4,107.9,8.4,107.9
					s16,15.8,48.1,9.1c0,0,28.6-94.8,36.7-195.1c0.1-1.6,0.3-3.3,0.4-5c7.6-102.1,19.4-317.2,19.4-317.2L1976.5,1205.2z"/>
				<path fill="#1D3966" d="M1976.5,1205.2c0,0,5.1,62.9,11.1,138.6l112.2,174.8c0.1-1.6,0.3-3.3,0.4-5
					c7.6-102.1,19.4-317.2,19.4-317.2L1976.5,1205.2z"/>
				<path fill="#25478E" d="M1999.9,1212.7c0,0,92.3,227.9,153.1,335c60.7,107.1,79.7,137,79.7,137s34.8-13.7,37.9-23
					c0,0-23.2-206.8-63.9-257.2c-23-28.5-50-114-51.2-143.9c-1.3-29.9-8.2-89.1-8.2-89.1L1999.9,1212.7z"/>
			</g>
			<path fill="#E4E0AA" d="M2121.3,861.4c0,0-62.5,30.1-98.5,19c0,0,8.9-11.2,24.4-19.5c-1.2-7.2-2.2-13.5-2.8-18.8
				c-1.5-12.3-1.5-19.2-1.5-19.2l24.1-19l22.9-18.1C2088.1,836.8,2121.3,861.4,2121.3,861.4z"/>
			<path fill="#B4D699" d="M2154.3,1183.3c0.1,3.8-8,8.2-11.6,9.8c-26.7,11.7-51.7,19.9-79.9,22.6c-33.4,3.4-72.9-4.1-86.4-3.8
				c-1.4,0-2.6-0.5-3.7-1.5c-1-0.7-1.7-40.9-1-91.5c0-2,0-4.1,0.1-6.1v-0.7c0.3-19.8,1-40.5,1.9-61.3c1.9-45.6,13.5-87.9,19.6-112.1
				c7.3-28.6,16-49.2,31.1-63l12.5-10.9c12.5,2.5,25.6,1.8,38.8-4.6c14.4-7,29.9-14.5,32.4-12.5c18.8,13.8,31.6,44.7,38.4,84.3
				c0,0.2,0.1,0.4,0.1,0.6c3.8,22.6,5.7,47.9,5.6,74.4c0,9.8-0.3,19.9-0.8,29.9c-2.8,45.1-0.9,85.3,0.9,113.1c0.4,5.5,0.7,10.5,1,15
				C2153.7,1172.8,2154.1,1178.9,2154.3,1183.3z"/>
			<path fill="#A5C48C" d="M2152.1,1149.9c-103.6-119.6-39.3-206.5-39.3-206.5l33.7-10.9c3.8,22.6,5.7,47.9,5.6,74.4
				c0,9.8-0.3,19.9-0.8,29.9C2148.4,1081.9,2150.3,1122,2152.1,1149.9z"/>
			<path fill="#CFCC9B" d="M2090.3,805.2c0,0-15.8,28.8-45.9,36.8c-1.5-12.3-1.5-19.2-1.5-19.2l24.1-19L2090.3,805.2z"/>
			<path fill="#E4E0AA" d="M2031.9,822c0,0,59.6,9.7,65.2-26.9c5.6-36.6,17.1-60.1-20.8-67.8c-37.8-7.8-47.4,5.1-52.3,16.9
				C2019.2,756,2016.6,818.5,2031.9,822z"/>
			<path fill="#482E1F" d="M2118.8,722.9c0.5-0.6,1.8-1.1,4.6-1.3c0,0-2.2-1.4-5.2-1.5c-0.6-3.9-2.6-10.7-9.3-12.4c0,0,3.6,1.9,4,6
				c-7.7-7.9-24.2-13.7-69.9-10.1c-60.2,4.8-40.4,43.3-32.6,47.9c7.8,4.6,27.4-8,41.9-6.8c14.5,1.2,17.3,22.1,22.2,25
				c4.9,2.9,3-2.2,9.7-5.2c6.7-3,7.3,8,5.4,15.2c-1.9,7.2,7.2,16.7,7.2,16.7s0,0,9.3-10c9.3-10,18-52.2,13.8-61.2
				C2119.6,724.5,2119.2,723.7,2118.8,722.9z"/>
			<path fill="#B4D699" d="M2108,847.3c0,0,37.7,17.9,55.8,45.3c28,42.6,60.6,197.8,61.2,212.2c0.6,14.4-23.7,115.8-23.7,115.8
				s-24.7-1.6-31-14.1c0,0,4.9-104.2,1.8-110.9c-3.1-6.7-102.9-139.8-91.7-168.2C2091.5,898.9,2108,847.3,2108,847.3z"/>
		</g>
		<g>
			<g>
				<g>
					<g>
						<g>
							<g>
								
									<text transform="matrix(0.714 0 0 1 2005.6649 1004.2603)" fill="#2E358D" font-family="'Comfortaa-Bold'" font-size="16.8825">a</text>
							</g>
						</g>
					</g>
					<g>
						<g>
							<g>
								
									<text transform="matrix(0.714 0 0 1 2013.8008 1004.2603)" fill="#2E358D" font-family="'Comfortaa-Bold'" font-size="16.8825">r</text>
							</g>
						</g>
					</g>
					<g>
						<g>
							<g>
								
									<text transform="matrix(0.714 0 0 1 2019.1775 1004.2603)" fill="#2E358D" font-family="'Comfortaa-Bold'" font-size="16.8825">celsheba</text>
							</g>
						</g>
					</g>
				</g>
			</g>
			<g>
				
					<radialGradient id="SVGID_5_" cx="1981.0422" cy="979.6484" r="32.4219" gradientTransform="matrix(0.714 0 0 1 583.3634 0)" gradientUnits="userSpaceOnUse">
					<stop  offset="0" style="stop-color:#00A8E4"/>
					<stop  offset="1" style="stop-color:#2D358C"/>
				</radialGradient>
				<polygon fill="url(#SVGID_5_)" points="1993.2,950.2 2002.1,962.8 2002.1,991.1 1993.2,991.1 				"/>
				<linearGradient id="SVGID_6_" gradientUnits="userSpaceOnUse" x1="1985.582" y1="990.5674" x2="2024.2517" y2="958.1198">
					<stop  offset="0.6089" style="stop-color:#3E75B6"/>
					<stop  offset="1" style="stop-color:#2D358C"/>
				</linearGradient>
				<path fill="url(#SVGID_6_)" d="M1993.3,950.2l8.9,12.6h11.5c0,0,3.3,1.4,3.3,6.1c0,4.7-3.3,6.1-3.3,6.1h-9.9
					c0,0-9.7,0-10.6,14.1l0.1,8.7l9,12.6v-18.3c0,0,0.3-4.4,3.8-4.4c3.5-0.1,9.6,0,9.6,0s10.7,0.1,10.6-18.1
					c-0.1-18.2-13.4-19.3-13.4-19.3H1993.3z"/>
				
					<radialGradient id="SVGID_7_" cx="2014.1693" cy="961.3729" r="36.1322" gradientTransform="matrix(0.714 0 0 1 583.3634 0)" gradientUnits="userSpaceOnUse">
					<stop  offset="0" style="stop-color:#00A8E4"/>
					<stop  offset="1" style="stop-color:#2D358C"/>
				</radialGradient>
				<path fill="url(#SVGID_7_)" d="M2026.1,973.2c0,0,1.6-10.4-12.5-10.4c-14.1,0-11.5,0-11.5,0l-8.9-12.6h19.6
					C2012.9,950.2,2028.2,951.8,2026.1,973.2z"/>
				<linearGradient id="SVGID_8_" gradientUnits="userSpaceOnUse" x1="1996.6104" y1="1003.7104" x2="2010.0685" y2="992.4178">
					<stop  offset="0" style="stop-color:#3E75B6"/>
					<stop  offset="1" style="stop-color:#2D358C"/>
				</linearGradient>
				<path fill="url(#SVGID_8_)" d="M2002.3,1010.5l-9-12.6c0,0,4.2-10.2,12.8-10.2c0,0-3.3,0-3.8,4.4V1010.5z"/>
			</g>
		</g>
		<path fill="#0097C6" d="M2045.3,866.2c0,0,15.7,3.5,7.7,24.8c0,0,51.5-23.6,56.1-42.3c0,0-1-10.3-5.7-10.3
			C2098.6,838.4,2112,846.6,2045.3,866.2z"/>
		<path fill="#0097C6" d="M2042.9,865.7l4.3-4.8l-1.6-9.9c0,0-25.6,18.6-26.5,29.6C2019.1,880.6,2034.1,863,2042.9,865.7z"/>
		<path fill="#0097C6" d="M2048.4,867.5c0,0-28.1,23.6-33.9,44.3c0,0-10,0-10.2-3.8c0,0,7.4-19.8,32.5-41.7
			C2036.9,866.3,2039.8,863.6,2048.4,867.5z"/>
	</g>
	<g>
		<g>
			<text transform="matrix(1 0 0 1 1220.5291 420.0132)" font-family="'MyriadPro-Regular'" font-size="221.9453">P</text>
		</g>
		<g>
			<text transform="matrix(1 0 0 1 1335.0544 420.0132)" font-family="'MyriadPro-Regular'" font-size="221.9453">r</text>
		</g>
		<g>
			<text transform="matrix(1 0 0 1 1408.5168 420.0132)" font-family="'MyriadPro-Regular'" font-size="221.9453">icing</text>
		</g>
	</g>
</g>
</svg>
