<svg width="10" height="16" viewBox="0 0 10 16" fill="none" xmlns="http://www.w3.org/2000/svg">
<path d="M9.60897 0.128076L7.39613 0.125C4.91081 0.125 3.30386 1.64648 3.30386 4.00092V5.78823H1.07976C0.88781 5.78823 0.731842 5.93219 0.731842 6.10939V8.69884C0.731842 8.87603 0.887803 9.02 1.07976 9.02H3.30454V15.5537C3.30454 15.7309 3.4605 15.8749 3.65246 15.8749H6.55514C6.74709 15.8749 6.90306 15.7309 6.90306 15.5537L6.90239 9.02H9.50374C9.69569 9.02 9.85166 8.87604 9.85166 8.69884L9.85299 6.10939C9.85299 6.02448 9.81634 5.94266 9.75102 5.88237C9.6857 5.82207 9.59706 5.78823 9.50508 5.78823H6.90237V4.27352C6.90237 3.54509 7.09033 3.17594 8.11807 3.17594L9.60838 3.17532C9.80033 3.17532 9.9563 3.03136 9.9563 2.85417V0.44914C9.9563 0.272567 9.801 0.128596 9.60904 0.127982L9.60897 0.128076Z" fill="#172ACB"/>
</svg>
